<?xml version="1.0" encoding="utf-8"?>
<!-- Generator: Adobe Illustrator 19.1.0, SVG Export Plug-In . SVG Version: 6.00 Build 0)  -->
<svg version="1.1" id="Layer_1" xmlns="http://www.w3.org/2000/svg" xmlns:xlink="http://www.w3.org/1999/xlink" x="0px" y="0px"
	 viewBox="0 0 1000 1000" style="enable-background:new 0 0 1000 1000;" xml:space="preserve">
<style type="text/css">
	.st0{fill:#F0EBE5;}
</style>
<path class="st0" d="M763.2,651.3c56.7-30.4,102.5-76.4,152.5-116.4c11.8-9.4,26.4-21,3.5-31.1c-21.3-9.6-53.7-46.4-60.6-25.9
	c-12.6,38.1-27,15.7-37.9,9.7c-17.8-9.7-36-11.3-54-9.1c-34.6,4.4-45.5-7.3-43.3-43.2c6.6-107.3,0.3-215.3,13.4-322.4
	c4.8-39.8-4-59.8-51.7-58c-99.4,3.9-199,2.6-298.5,0.4c-33.8-0.6-51.8,7.3-44.8,43.7c12.5,65.2-8.3,98-92.5,75.6
	c30.7,32.3,47.5,53.3,67.7,70.3c20.3,17.3,43.6,31.1,66.2,45.5c32.9,21.3,37.8,63.9,72.6,87.2c21.7,14.5-9.1,62.5-40.5,62.8
	c-64.2,0.7-128.6,2-192.7-0.5c-31.3-1.2-43.6,14.1-62.7,36.3c-65.1,75.6-69.4,164.8-70.5,256.1c-0.2,21.8-18.1,41.8,11.7,64.8
	c90.5,69.4,180.5,133,303.4,113.7c11.8-1.8,25.7-0.6,36.8,3.8c48,19.1,82.7,43.5,136.1-15.4c39.2-43,79.8-98.2,140.1-124.5
	c22.4-9.8,21.5-30.3,13.1-53.3C719,689.9,732.3,667.8,763.2,651.3z"/>
</svg>
