<?xml version="1.0" encoding="utf-8"?>
<!-- Generator: Adobe Illustrator 20.1.0, SVG Export Plug-In . SVG Version: 6.00 Build 0)  -->
<svg version="1.1" id="Layer_1" xmlns="http://www.w3.org/2000/svg" xmlns:xlink="http://www.w3.org/1999/xlink" x="0px" y="0px"
	 viewBox="0 0 1000 1000" style="enable-background:new 0 0 1000 1000;" xml:space="preserve">
<style type="text/css">
	.st0{fill:#F0EBE5;}
</style>
<path class="st0" d="M731.4,762.6l-0.8-0.2l-1.8,0.6l-1,0.5l-0.8,0.5l-0.5,0.6l-0.3,0.7l-0.6,0.6l-2.1,0.5l-0.7,0.4l-0.6,0.5
	l-0.5,0.6l-0.5,0.8l0.4,0l1.6-0.7l0.1,0.1l0.4,0.1l0.6,0.1l0.5,0l0.3-0.2l0.7-1.1l1.6-1l0.3-0.4l0.2-0.4l0.3-0.3l0.6-0.2l0.5,0
	l0.4,0.1l0.3,0.1l0.4,0.3l0.5,0.2l0.4-0.1l0.6-0.4l0.6-0.3l0.4-0.6l0.6-1.3l-1.7,0.1L731.4,762.6z M665.1,733.7L665.1,733.7
	l-0.1,0.1L665.1,733.7z M845.9,710.5l-1.7-2.3l-0.1-0.2l0-0.2l-0.1-0.1l-0.3,0.1l-0.5,1l-0.3,0.8l0,0.9l0.4,1l-1,0.3l0.2,0.7
	l0.7,0.9l0.4,1l0.9-0.9l0.2-1.1l0.4-0.9l1.4-0.3l0-0.4L845.9,710.5z M843.8,704.1l0.9,0.4l0.2-0.6l0-0.6l-0.1-0.6l-0.2-0.6l-0.6,0.4
	l-0.4-0.3l-0.4-0.5l-0.4-0.2l-0.7,0.8l0.6,0.8L843.8,704.1z M654.4,729.8l-1.8-1l0-0.4l1,0.2l0.6-0.3l0-0.6l-0.8-0.6l-1.3-0.2
	l-2.9,2.4l-1.4-0.1l-0.4,0l0.4,0.8l0.8,0.9l0.9,0.7l0.7,0.3l1-0.3l2-1.3L654.4,729.8z M659,730.6l-1.3-0.3l-0.9-0.3l-1.9,0.7
	l-0.5,0.6l0.5,0.9l0.4,0.2l1.2,0l0.5,0.1l1.8,1.1l-0.5-1l-0.1-0.3l-0.1-0.5l0.4-0.3l0.8,0l1.3,0.3l-0.6-0.7L659,730.6z M654.8,736.7
	l-0.2-0.4l-0.7,0.1l-0.6,0.4l-0.5,0.7l-0.3,0.8l-0.1,0.7l0.9-0.2l0.6-0.3l1.1-0.6l-0.1-0.8L654.8,736.7z M690.6,783.5l-0.5,0
	l-0.6,0.3l0-0.2l-0.1-0.1l-0.2,0l-0.2,0l-0.2,0.4l0,0.2l0.3,0.3l-0.1,0.5l1.2,2.6l0.4,0l-0.3-0.5l-0.3-0.3l0.4-0.8l0.7-1.6l0.7-0.7
	l-0.8,0.1L690.6,783.5z M700,776.5l-1.8,0.3l-0.7-0.3l-0.4,0l-0.4,0.4l-0.4-0.2l-0.3-0.5l-0.2-0.6l-0.3-0.6l-1.2-0.9l-0.4-0.7
	l0.1-0.3l0.3-1.8l0-0.4l1.8-0.9l0.3-0.3l-0.2-1l-0.3-0.3l-0.4-0.1l-0.6-0.3l-0.2,0l-0.5,0.1l-0.2,0l-0.1-0.1l0-0.5l0-0.2l-0.5-0.7
	l-0.1-0.1l-0.1-0.7l-1.7-3.7l-0.2,0.1l-0.2,0l-0.1,0.1l0.1,0.3l-0.4,0l0-0.4l-0.4,0l0.2,0.4l0.2,0.7l0.2,0.4l-0.4,0l0-0.2l-0.6,0.4
	l-1.6,1.4l-1.1,0.3l-0.4,0.3l-0.3,0.6l0,0.5l0,0.5l-0.1,0.7l-0.1,0.1l-0.6,1.4l0,0.2l-0.5,0.2l-1.2,0.1l-0.2,0.1l0.6,1.5l0.2,0.2
	l0.5,0.4l1.6,2.7l2.7,1.9l1.2,0.6l1.6,1.4l0.7,0.5l1.2,0.2l2.6-0.1l2.2,1l1.3-0.1l1.2-0.5l1.1-0.6l-1.9-2.9L700,776.5z M859.2,704.2
	l-0.6-1.1l0-0.9l0.5,0.4l-0.1-1l-0.5-0.5l-0.6-0.3l-0.3-0.7l-0.1-0.6l-0.2-0.7l-0.3-0.6l-0.4-0.4l-0.5-0.2l-0.3,0.1l-0.2,0.3
	l-0.1,0.5l-0.4,0l-0.1-0.3l-0.2-0.3l-0.1-0.3l-2.5,1.1l-1,0.8l0.5,0.9l-0.4,0.4l0.6,1.4l0.2,0.4l0.1,0.4l-0.2,0.4l-0.3,0.4l-0.1,0.3
	l0.4,0.6l0.5,0.4l0.4,0.6l0.2,1.1h-0.4l-0.2-0.2l-0.3-0.6l-0.1,0.6l-0.3,1l0.1,0.4l0.4,0.2l1.3,0.2l0.4,0.1l0.5,0.9l0.4,1.2l0.7,1
	l1.2,0.2l0-0.4l-0.7-0.4l-0.5-0.9l-0.8-2.1l0.4-0.1l0.3-0.3l0.2-0.4l0.1-0.5l0.2,0.2l0.1,0.1l0.1,0.2l0.1,0.2l0.4,0l0.6-0.2l0.8,0
	l0.6-0.2l-0.1-0.6l0.8-1.3L859.2,704.2z M656.1,664.1l1.1,0.1l0.9,0.4l0.6,1.2l-0.8-0.3l0,0.4l0.6,0.3l0.3,0.5l0.1,1.4l-0.1,0.3
	l-0.1,0.1l0,0l0.7,0.6l0.3,0.1l0.4-1.4l0.9-1l1.2-0.6l1.2,0.1l-0.7-0.8l-0.8-0.4l-1.6-0.6l-1.5-1.2l-0.6-0.2l-0.5,0.3l-0.5,0.1
	l-0.5-0.1l-0.5-0.2l-0.3-0.3l-0.3-0.1l-0.3,0.1l-0.3,0.3l0,0.4L656.1,664.1z M959,717.6l-0.6-0.5l-0.7-0.4l-0.6-0.5l-0.5-0.8
	l-0.3-1.4l-1.7-4.5l-2-3.1l-2.4-2.8l-1.5-2.5l-0.5-0.6l-0.8-0.2l-0.8,0l-0.8-0.2l-0.8-0.9l-0.7-2l-0.9-4l-1.1-2l-1.1-1.5l-0.7-0.5
	l-1-0.2l-1.7,0.3l-0.6-0.3l-0.1-1.3l0.3-1.8l2-2.7l0.6-1.5l-0.2-1l-0.3-0.6l0-0.5l0.9-0.7l0.9-0.3l0.9-0.2l0.6-0.5l0-0.8l-0.4-0.1
	l-0.3-0.1l-0.3-0.2l-0.3-0.3l-1,0.8l-1.8,0.3l-2-0.1l-1.5-0.6l-1.4-1.1l-0.4-0.6l-0.3-0.7l0-0.8l0.1-0.7l-0.2-0.5l-0.9-0.4l0.1,0.8
	l-1-0.6l-1.6-2.3l-1.1-0.4l-0.3-0.4l-0.7-0.7l-0.7-0.5l-0.3,0.3l0.2,0.6l0.4,0.4l0.4,0.3l0.4,0.4l-1.2-0.4l-1.6-1l-1.4-1.3l-0.6-1.3
	l-0.2,0.1l-0.4,0.2l-0.2,0.1l-2.1-2.5l-0.7-1.2l0.3-1.3l-0.6-0.3l-0.7-0.5l-0.6-0.6l-0.3-0.7l-1.4-0.9l-0.1-0.2l-0.2-0.7l-0.2-0.3
	l-3.2-2.6l-0.8-1.1l-0.4,0l0.1,1l0.2,0.7l0.8,1.4l-3.3-2.8l-0.8-0.4l-1-0.7l-2.3-2.8l-1.3,0.2l-0.6-0.6l-1.4-1.2l-0.3-0.7l-0.8-0.3
	l-1.1-0.1h-2.1l-1.5-0.7l-1.5-0.3h-0.4l-0.5-0.1l-0.9-0.5l-0.6-0.1l-1.2,0.2l-0.6,0l-0.7-0.2L888,645l-0.5-0.2l-0.6,0l-0.7,0.2
	l-0.4,0l-1.5-0.7l-0.6-0.1l-1.6-0.7l-1.1-0.1l-1.6-0.8l-0.3,0l-1.7-0.9l-1.9-0.5l-0.8-0.3l0.1-0.5l0-0.4l-0.7-0.2l-2.1,0l-0.9-0.2
	l-1.4-0.6l-0.8-0.1l-0.6,0.2l-0.8,0.9l-0.7,0.3l-0.7,0l-1.3-0.5l-0.7-0.1l-2.8,0.3l-0.4-0.1l-1.1-0.7l-0.8-0.2l-0.3,0.2l-0.4,0.4
	l-0.6,0.2l-0.8-0.4l-0.5,0.1l-2,1.5l-0.6-0.8l-0.8,0.4l-1.4,1.5l-0.7-0.4l-0.8-0.1l-0.7,0.1l-0.3,0.1l-0.1-0.4l-0.3-0.4l-0.5-0.3
	l-0.6-0.1l-0.8,0l-1.5-0.2l-0.8,0.1l-0.3,0.2l-0.9,0.9l-0.4,0.3l-0.4,0l-0.8-0.5l-0.9,0.2l-0.8,0l-0.4-0.9l-0.3-3.2l0.3-0.7l0.8-0.5
	l1.9-0.6l0.2,0.1l0.4,0.1l0.4-0.1l0.2-0.5l1.5-0.7l-1.4-0.4l-2.1,0l-2,0.4l-1.3,0.6l-0.8-0.1l-1,0.3l-1,0.1l-0.8-0.4l-0.4,0l-1.1,1
	l-2.2,0.5l-2.5-0.1l-2-0.8l-2.1-0.4l-5.9,0.1l-1.3-1l-0.4,0.3l-0.4,0.1l-0.4-0.2l-0.4-0.5l-0.3,1.1l0,0.5l-1.2-0.2l-0.5-0.2
	l-0.4-0.2l-0.4,0l-0.1,0.4l-0.2,0.2l-0.2,0.1l-0.3,0.2l-0.3-0.4l0-0.1l-0.6-0.2l0-0.4l0.6-0.4l-0.1-0.4l-0.4-0.5L811,633l-2.2,1.5
	l-0.8,0.4l-0.3-0.1l-0.8,0l-0.9,0.1l-0.4,0.4l-0.3,0.4l-1.3,0.9l-0.3,0.5l-0.2,0.2l-0.3,0.1l-0.3,0.2l0.1,0.6l0.3,0l0.5-0.2l0.8-0.4
	l-0.2,0.7l-1.9,3.2l-1.1,1.3l-0.2,0.1l-0.4,0.2l-0.2,0.2l-0.1,0.2l-0.1,0.5l-0.1,0.2l-0.9,0.7l-1.7,0.8l-0.8,0.9l-0.5,1.1l0.1,0.8
	l0.4,0.9l0.4,1.3l-0.5-0.6l-0.5-0.3l-1.1-0.5l-0.9-0.1l-1.1-0.3l-0.7,0l0.2,0.6l-0.4,0.4l-0.3-0.2l-0.2-0.1l0.2,0.5l0.2,1l0.2,0.5
	l-1.2-0.7l-0.3,0.6l0,1.2l-0.3,1.1l-0.6,0.4h-0.6l-0.5-0.2l-0.4-0.4l-0.2-0.6l-0.1-2.2l-1.6,1l-1.6,1.7l-1.3,1.8l-1,1.8l-3,3
	l-1.6,1.1l-1.9,1l-2.1,0.8l-2,0.4l-0.6,0.3l-1.8,1.3l-0.9,0.4l-4.8,1.2l-7.3,3l-2.4,1.4l-5.3,3l-0.7,0.3l-0.8,0.4l-2,2.3l-1.9,0.9
	l-0.2,0.1l-0.5,0.2l-0.3,0.4l-0.2,0.4l-0.2,0.2l-0.6,0.4l-0.6,0.9l-0.8,1.7l-0.5,0.6l-0.7,0.7l-0.8,0.6l-0.8,0.3l-2.3,0.3l-8,4.1
	l-1.4-0.1l-0.4,0.6l-0.5,0.4l-0.5,0.2l-0.5-0.2l-2.1,1l-2.1,0.6l-4.2,0.4l-5.9,1.2l-0.9,0l-0.6-0.4l-1.3-0.3l-1.3-0.1l-1.1,0.5
	l-3.4-0.5l-1.2,0.5l-0.6,0.1l-0.4-0.1l-0.5-0.5l-0.5-0.1l-0.5-0.2l-0.7-0.5l-0.7-0.6l-0.4-0.5l-1.2-0.7l-2.6-2.3l-4-4.7l-0.9-0.5
	l-0.3-0.3l-1.3-1.6l-0.7-0.4l-1.9-0.8l-0.6-0.1l-1.6,0.1l-0.6-0.1l-0.4-0.2l-0.4-0.5l-0.5-1.3L678,676l0-0.4l0.5,0.2l0.6,0l0.5-0.2
	l0-0.5l-0.3-0.2l-1.4-0.9l-1.5-1.6l-1.1-0.7l-1.2,0.1l-0.4,0.7l1,0.6l2,0.7l-0.6,0.8l-1.4,0l-1.5-0.3l-0.9,0.1l0.3,0.5l1,0.8
	l1.2,0.7l0.8,0.3l0.6,0.5l2.3,2.9l4.2,1.9l0.4,2.4l-0.2,1l-1,0.6l-3.6-1.3l-0.6,0.2l-0.3,0.4l-0.7-0.2l-0.6-0.4l-0.1-0.2l-0.9-0.2
	l-0.5,0l-0.6,0.3l0.2,0.6l-0.4,0.7l-0.8,0.6l-0.8,0.3l-1-0.1l-0.7-0.4l-0.8-0.2l-1.3,0.2l-2.7,1.1l-1.1,0l-0.7,0.1l-0.2,0l-0.2-0.2
	l-0.1-0.4l-0.2-0.2l-0.3-0.3l-1-1.3l0-0.5l-0.8-0.4l-2.2-0.5l-1,0.7l-1.4,0l-1.5-0.5l-1.1-0.9l0.3,0.2l0.2,0.1l0.2,0l0.3,0l0.1-3.9
	l-0.4-0.6l-1.5-0.6l-0.4-0.8l0.9,0.2l0.3,0.1l0-0.4l-0.5-0.6l-0.3-1.1l0.1-1.1l0.6-0.5h1.5l1,0.3l1.9,1l0.3-0.8l-0.2-1.6l0.1-0.9
	l-0.4,0l0,0.4l-0.4,0l-0.3-0.3l-0.3-0.3l-0.2-0.4l-0.2-0.5l-0.3,0L656,671l0,0.2l0,0.2l-0.5-0.4l-0.2,0.2l-0.1,0.5l0,0.7l-0.2,0.2
	l-0.5,0l-0.5-0.4l-0.1-0.8l-0.4,0l0.2,0.9l-0.2,0.7l-0.4,0.3l-0.7-0.1l-0.4-0.5l-0.2-0.7l-0.3-0.6l-0.8-0.2l0.8,1l-0.3,0.2l-0.7,0.1
	l-0.4,0.7l-0.4,0l-2.2-1.1l-0.4-0.5l-0.2-0.7l-0.4-0.8l-0.6-0.6l-0.6-0.4l-0.3,0.1l-0.3-0.1l-0.1-0.3l0.3-0.5l0.1-0.7l1.5,0l0.7-0.7
	l0-0.6l-0.5-0.4l-0.7-0.4l-0.5-0.5l-0.3-0.8l0.1-0.7l1.4-2.9l0.2-0.8l0.1-1l-1.5,1.2l-2.3-1l-3.8-3.2l-6.1-4l-0.8-0.4l-1-0.5
	l-1.7-2.1l-1.2-0.5l-1.3,0l-1.4,0.2l-1.4,0l-4.1-1l-1-0.6l-0.6-1.1l-0.5-2.4l-0.4-0.9l-1.5,0.6l-2.8-2.2l-3.8-4.3l-0.9-0.6l-3.1-3.9
	l-0.8-0.7l-0.5-0.8l-0.3-0.9l-0.1-1.1l-0.4-0.4l-1.6-0.1l-0.6-0.3l-1.3,0.9l-2.5-2.1l-4.1-4.3l-1-0.6l-12.4-13.8l-4.8-6.7l-4.2-8.2
	l-3.5-7.7l-0.3,0.8l-0.2,1.4l-0.2,0.7l-0.3-0.5l-0.1-0.4l0-0.4l0.2-0.3l-0.7,0.5l-0.5,0.6l-0.6,0.5l-0.9,0.2l1.6-1.6l0-1.9l-1.4-4.7
	l1.8,3.7l1,1l0-1.9l-1.3-2.9l-1.7-2.6l-1.3-1.3l-1-0.4l-1.3-0.2l-0.8,0.2l0.3,0.6l-1,0.3l-1.1-2.4l-1.1-0.6l-0.5-0.4l-1.6-2.1
	l-0.7-1.4l-2-2.6l-1.5-3l-2.4-7.7l-0.4-6l0.2-1l0.5-1l1.7-2.5l0.4,0l1.3,0.1l0.6-2.2l0.4-2.8l0.5-1.9l0.4-0.5l0.5-0.3l0.6-0.1
	l0.7-0.1l0.5-0.2l0.5-0.9l0.5-0.2l0.1-0.1l0.8-0.3l0.8-0.2l0.1,0.2l0.4-0.5l0.2-0.4l0-0.5l0-0.8l-0.3-2.1l-3.5-10.7l-0.6-0.5l-1,0.1
	l-0.5,0.3l-0.3,0.6L553,523l0.1,0.5l0.3,0.4l0,0.3l-0.9,0.2l-0.6,0l-0.6-0.2l-0.5-0.3l-0.6-1.1l-0.9-0.9l-1-0.8l-0.8-0.5l0.2-0.5
	l0.5-0.6l0.5-0.5l0.5-0.2l0.3-0.2l1-1.5l0.2-0.2l0.3-0.1l0.3-0.2l0.3-0.4l0-0.4l-0.2-0.4l-0.2-0.3l-0.1-0.3l0.1-0.4l0.4-1.1l0.1-0.5
	l-0.1-0.8l-0.2-0.7l-0.3-0.6l-0.4-0.4l-1.5-0.5l-0.7-0.4l0.3-0.2l2.5,0.6l1-0.1l0.3-1.2l0-1l0.8-1.4l0.1-1l-0.2-0.8l-0.5-0.6l-1.1-1
	l-0.4,0l-0.7,0.9l-1-0.5l-0.2-0.9l1.8-0.3l1.1,0.4l1.1,0.9l0.9,1.1l0.4,1l-0.4,1.4l-0.8,0.7l-0.5,0.7l0.7,1.5l1.6,1.7l0.5,1
	l-0.2,1.2l0.4-0.2l0.4-0.3l-0.5-1.3l-1-7.6l0.8-7.2l2.4-5.7l-0.3-0.4l-1.2-0.1l-0.5,0.4l-0.3,0.8l-0.7,3.1l-0.2,0.6l-0.2-0.4l0-0.7
	l0.2-1.2l0-0.6l-0.4-0.9l-1.8,0.5l-1.1-0.5l-0.5-1.1l0.1-1.1l0.3-1.2l0.1-1.3l-0.6-2.6l-0.5-0.5l-0.4-0.1l-0.5,0l-0.7-0.1h-0.5
	l-0.2,0.1l-0.1-0.1l-0.2-3.1l0.4-0.8l1-0.4l2.5-0.4l1.8-0.9l2.9-2.8l1.8-1.2l-0.7-0.9l-0.2-0.3l0.2-0.5l0.1-0.4l0-1l-0.1-0.6
	l-0.2-0.2l-0.3-0.1l-0.3-0.4l-0.1-0.4l-0.2-1l0-0.2l-0.1-0.1l-1.3-0.6l-0.5-1l-0.1-1.2l0.4-1.1l1.2-0.8l1.5-0.2l1.6,0.3l1.2,0.9
	l0.3,1.6l-0.2,0.4l-0.3,0.3l-0.2,0.2l-0.1,0.1l0.1,3.3l-0.1,0.8l-0.5,0.6l0,0.4l0.9,1.8l-0.3,2.7l-1.3,2l-2.1-0.5l-0.4,0l-0.1,0.2
	l0,0l-0.1,0l-0.2,0.1l0.4,1.5l0.2,3.9l1.4,1l0.4,0.8l0.3,0.9v0.7l-0.3,0.4l-1.1,0.9L557,489l1.2,0.6l1.4-0.3l1.4-0.6l1.4-0.4
	l1.9-0.2l1.2-0.5l0.5-1l0-1.8l-0.5-1.5l-1.8-2.2l-0.7-1.9l-1-1.7l-0.2-0.6l-0.2-3.5l0.9-15.8l-4.6-19.3l-0.4-0.7l0.4-0.4l-0.5-0.8
	l-0.2-1.4l0.1-7.7l0.8-4l1-3l-0.1-1.1l0.1-1.4l-0.3-2.9l0.9-6.9l1.7-7.7l1-5.6l0.7-1.9l1.1-1.7l2.6-2.1l0.4-0.8l0.2-1l1.9-2.7
	l4.3-8.1l1.3-3.9l0.2-2.1l-0.5-2.3l-3.3-8l-0.7-2.8l-0.6-1.1l-0.1-0.3l-2.9-10.3l-0.5-0.5l-0.4,0.5l0.1,1.4l-0.5-0.8l-0.6-0.5
	l-0.7-0.2l-0.6,0.4l0.5,0.2l1.1,0.6l0.4,0.3l-0.8,1.2l-0.9-0.2l-0.9-0.8l-0.8-0.4l-0.4-0.5l-0.8-2.4l-0.8-0.6l-0.2,0.3l-0.5,0.6
	l0.5-1.5l2.3-3.4l1.1-1.1l0.7-0.5l0.9-0.4l0.8,0.1l0.4,1.2l0.2,1.2l0.7,1.5l0.1,1.1l-0.5-0.5l-0.6-0.2l-0.7,0.1l-0.7,0.4l0,0.4
	l0.5,0.3l0.2-0.1l0.4-0.3l0,0.4l0,0.3l-0.1,0.3l-0.2,0.3l0-0.4l-0.5,0.6l-0.1,0.3l-0.1,0.4l1.9-0.9l0.7-0.6l0.4-0.8l0.1-0.6l0-1.3
	l0.1-0.6l0.3-0.4l0.7-0.8l0.1-0.3l0.2-0.8l0.5-1l0.6-0.9l0.7-0.4l0.4-0.7l0.5-1.3l0.7-0.7l0.9,1l0.5-0.6l1-0.6l0.4-0.6l-7.3-2.4
	l-1.8-1.3l-1.7-2.2l-1.2-2.3l-1.2-3.8l-0.8-1.1l-3.1-2l-7.9-2.4l-6.4-2.8l-0.6-0.2l-0.7-0.4l-0.9-0.7l-0.9-0.4l-0.9,0.5l-0.3,1.1
	l0.9,0.5l1.2,0.3l0.6,0.6l0.5,0.3l2.6,0.8l0.9,0.1l-0.2,0.6l-0.1,0.2l0.4,0.4l1-0.5l0.9,0.1l1.8,0.9l1-0.6l0.8,0.6l0.5,1.1l0.2,0.8
	l0.3,0.6l0.3,0.3l0.3,0.3l0.3,0.4l0.3,0.6l0,0.2l-2.5,1.1l-0.4,0.3l-0.3,0.4l-0.5,0.9l-0.3,0.4l-1.1,0.5l-0.8-0.4l-0.5-1l-0.2-1.4
	l-0.4,0l-0.2,0.4l-0.1,0.4l0.1,0.4l0.3,0.5l-0.3,0.3l-0.4,0.2l-0.3-0.1l-0.2-0.5l0-0.6l0.2-0.3l0.2-0.2l0.2-0.3l0.3-0.9l0.3-0.6
	l0.3-0.3l0.5,0l0.6,0.1l0.5,0.2l0.2,0.3l0.4,1l0.7,0.2l0.6-0.4l0.2-0.9l-0.1-1.8l-0.1-0.4l-0.2-0.2l-0.1-0.2l0.3-0.4l0-0.4l-1,0.3
	l-3.8-0.5l-0.4-0.1l-0.4,0l-0.4,0.3l-0.1,0.5l0.2,1.3l-0.2,0.3l-2,0.4l-1.2,0.4l-0.9,0.6l-0.9,1.8l-0.5,0.3l-0.6-1.1l-0.4,0l0.1,0.8
	l-0.3,0.4l-0.4,0.1l-0.5-0.4l-0.2-0.6l0-2.2l-0.5-1.7l-0.6,0.1l-0.8,0.6l-1-0.2l0-0.4l0.3-0.2l0.4-0.4l0.4-0.3l-0.5-0.7l-0.6-0.6
	l-0.7-0.4l-1.7-0.3l-1-0.4l-0.8-0.5l-0.4-0.6l-0.9-1.2l-5.3-2l-1.3,0.5l-0.5,0.3l-0.5,0.5l0.7,0.5l1.5,1.9l0.7,0.4l4.5,1.3l0.6,0
	l0.5,0.1l0.3,0.3l0.2,0.4l0.4,0.4l2.5,1.2l0.8,0.7l-0.8,0.7l-1.3,0.6l-1.3,0.4l-1,0.2l-1.2-0.2l-1-0.6l-0.8-0.9l-0.5-1l0-0.4
	l0.6-0.4l0.4-0.1l0.6,0l0-0.4l-2.8,0.5l-1.1-0.1l-0.9-0.9l0.4-1l-0.3-0.9l-0.7-0.8l-0.8-0.6l0.6,1.7l-0.5,0.6l-1.3-0.2l-1.5-0.7
	l-1-1l-1.1-1.6l-0.5-1.5l0.6-0.7l1.2-0.6l-0.4-1.3l-1-1.5l-0.9-1.9l-0.6-0.3l-0.5,0.2L515,305l-1.1,0.6l-0.1,0.9l-0.4,0l0.1-0.7
	l0.2-0.7l0-0.5l-1.1-0.3l-0.4-0.4l-0.5-1.3l0.7,0l1,0.2l0.7,0l1-0.4l0.8-0.2l0.7,0.1l0.7,0.7l1.9,3.3l0.4,0l0.1-0.2l0.1-0.1l0.1,0
	l0.1-0.1l-0.8-0.8l-0.7-1.1l-0.4-1l0.1-0.7l0.4-0.1l0.7,0l0.6,0.1l0.3,0.1l-0.1,0.4l-0.3,0.4l-0.7,0.7l1.6,0.5l0.4,0.2l0.8-0.6
	l0.4-0.5l0.5-0.4l1.2-0.2l0.8,0.3l0.9,0.6l0.8,0.4l0.6-0.3l0.4,0l2,2l0.5,0.7l-0.3,0.1l-0.2,0.2l-0.3,0.1l0.7,0.6l0.8,0.1l1.7-0.1
	l0.6,0.2l1.1,0.7l1.7,0.5l2.3,1.6l1,0.3l0.8-0.2l0.4-0.3l-0.1-0.5l-0.4-0.6L539,309l-2.1-0.2l-1.1-0.4l-1.1-0.6l-4.1-3.3l-3.4-2.4
	l-6.2-5.4l-7-4.9l-3.5-3.5l-1.9-0.8l-0.5-0.8l-0.5-0.5l-0.7-0.2l-7.9-0.2l-9.2-1.3l-0.7,0l-0.4,0.4l0.8,0.3l8.9,1.2l1.2,0.8
	l-2.8,0.2l-1.3,0.5l0.3,1.1l-3,0.3l-1.2-0.2l-0.6-1.2l-0.3-0.4l-0.6,0.7l-0.5,1l0.1,0.5l-1.2,0.1l-0.4-0.2l-0.6-0.6l-0.5-0.9
	l-0.3-1.2l0.1-1.1l1-0.7l-0.5-0.4l-1.3-0.6l-2-0.3l-9.8-3.5l-7-1.6l-4,0.3l-5,3.6l-1.7,0.8l-2,0.5l-9.1,0.9l-7.3,1l-2.4-0.2
	l-2.1-0.4l-3.8-1.2l-0.9-0.2l-0.9-0.4l-1-0.7l-0.8-0.3l-0.4,0.7l-0.1,0.1l-0.2,0.1l-0.1,0.2l0.1,0.4l-0.4,0l-0.2-0.7l0-0.8l-0.2-0.7
	l-0.7-0.3l-0.9-0.2l-1.5-0.8l-0.8-0.2l-3.2-0.3l-1.6-0.4l-1-0.7l-0.6,0.4l-1.3,0.3l-0.4,0.3l-4.9-1.1l-1.5,0.2L406,280l1.8,0.4
	l3.7,0.4l1,1.2l-0.4,1.5l-1.2,1.4l-2.2,1.7l-0.6,0.3l-0.7,0.2l-8.3,0.7l-2,0.6l-2,0.9l-0.6,0.6l-1.4,1.7l-5.4,3.7l-1,0.5l-1.1,0.2
	l-1.4,0l-0.9-0.2l-1.5-0.9l-1.8-0.6l-1.9,0l-11.3,1.5l-2.5-0.1l-0.3-0.2l-0.7-0.4l-0.7-0.2l-0.3,0.3l-0.2,0.1l-0.9,0.8l-0.2,0.2
	l-1,0.2l-3.5,1.2l-2.2,0.3l-2.1-0.1l-6.3-1.2l-5.4-0.4l-5.3-1.6l-6.1-1.1l-1.1,0.2l-0.9,0.6l-0.3,1l-0.3,0.3l-1.5,0l-0.6,0.1
	l-0.3,0.3l-0.6,1l-0.3,0.4l-1.9,0.4l-1.8-0.7l-5.6-4.7l-0.3-0.4l-0.5-0.4l0.4-1l1.1-1.6l-2,1.3l-0.6,0.7l0.6,0.6l0,0.4l-1-0.1
	l-2.6-1.5l-1-0.3l-1-0.1l-0.8,0.3l-0.3,0.9l-1,0.3l-5,0.5l-1.7,0.6l-0.9,0.7l-1,0.3l-2.5,0.1l-0.2,0.2l0.3,0.4l0.5,0.4l0.7,0.2
	l0.3,0.3l-0.1,0.6l-0.4,0.8l-3.3,2.2l-2.3-0.2l-0.6,0.2l0.3,0.9l-1.4,1l-3.3,3.7l-1.5,0.7l-1.4-0.4l-2.7-1.8l-0.4-0.2l-2.1-0.8
	l-2.7-2.2l-0.6-0.3l-2-1.7l-6.1-2.6l-3.1-2.5l-1.2-0.7l-1.8-1.7l-0.7-0.4l-1.7-0.7l-0.9-0.5l-0.8,1l0.8,0.9l2.6,1.3l0.4,0.5l0.4,0.7
	l0.5,0.6l1.1,0.5l0.8,0.5l1.4,1.2l-0.8,0.3l-1.7-0.3l-0.7,0.5l-0.4,0l0-0.2l0-0.6l-0.4,0l0.1,0.9l0.5,1.4l0,0.9l-0.3,0.5l-0.5,0.5
	l-0.5,0.7l-0.2,1l-0.2,0.5l-0.5,0.1l-0.5,0l-0.3,0.1l0,0.5l0.2,0.3l0.2,0.2l0,0.3l0.1,0.1l0.1,0.5l-0.2,0.5l-0.6,0.3l-1.6,0
	l-0.1-0.4l0.6-2.7l-6-3.5l-1.3-0.2l-0.3-1.3l-2-1.1l-2.6-0.5l-2,0.6l-2-1.6l-0.8-0.3l0.2-1.4l-1.3-2.5l0.2-1.5l0.6-0.8l1-0.8l1-0.6
	l1.5-0.5l0.1-0.5l-0.1-0.7l0.1-0.7l0.3-0.4l0.3-0.3l0.6-0.6l0.6-0.3l0.5-0.2l0.4-0.3l0.2-1.1l0.3-0.5l0.3-0.4l0.3-0.2l1-0.2l0.8-0.6
	l0.5-0.9l0.2-1.3l-0.2-2.3l0.2-1l0.8-0.4l0.8-0.1l0.4-0.3l0.3-0.3l0.3-0.2l2-0.3l0.4-0.2l0.2-0.4L252,270l0.1-0.2l0.2-0.1l0.5-0.1
	l0.5,0l0.2,0.3l0.4,0.8l0.8,0.5l0.8-0.2l0.4-1.3l0.4,0l0.1,2.5l0.2-1l0.1-0.2l0.3-0.2l0.7-0.2l0.3-0.2l0.2,0l0.5,0.1l0.2,0l0-0.2
	l-0.1-0.5l0-0.2l0.2-0.3l0.2-0.8l0.2-0.3l1.5-2.1l0.4-0.3l0.2-0.3l0.7-1.8l0.2-0.3l0.1-0.2l0.1-0.1l0.4-0.3v0.1l0.2,0.1l0.3,0
	l0.3-0.2l0-0.3l0.1-1.4l0.1-0.3l1.1-0.5l1.1-2.4l1.1-0.9l-0.4-0.8l0.1-0.7l0.4-0.6l0.6-0.4l0-0.4l-0.6,0l-0.3-0.1l-0.2-0.2l-0.1-0.5
	l0.5,0.2l0.4,0l0.3-0.1l0.4-0.2l-0.8-0.4l-0.4-0.1l1.2-1.5l1.5-4l1.5-0.8l-0.3,0.6l-0.9,1.1l-1.6,6.9l0.2,0.9l0.4,0l0.4-0.5l0.2-0.6
	l-0.4-1.5l0.2-1.1l0.3-0.8l0.6-2.5l0.6-0.8l0.5-0.5l0.3-0.7l0.4-4.3l-0.1-0.6l-0.3-0.9l-0.1-0.7l0.1-0.6l0.3-0.4l0.3-0.3l0.1-0.3
	l0.1-0.5l0.3-0.4l0.7-0.6l0.2-0.1l0.8,0.1l0.2-0.1l0-0.4l-0.2-0.3l-0.2-0.2l-0.1,0l-0.3-1l-1.2-1.7l-0.3-1.1l0.3-1l0.6-1.1l0.8-0.9
	l0.6-0.6l0.6-0.2l0.5,0l0.4-0.2l0.1-0.7l-0.4-1.5l-0.2-1.9l-0.3-1.3l-0.5-1.2l-0.7-0.9l-1.3-0.4l-0.6-0.3l-0.2-0.7l-0.3-1.4
	l-0.1-0.6l-0.3-1.1l-0.4-1.3l0.1-2.4l0-1.3l0.4-6.1l2.2-8l0.1-0.9l0.7-0.6l1.5,0.2l1.5,0l0.7-1.2l-0.6-0.5l-2.4-0.4l-0.6-0.5
	l-0.5-0.9l-2.1-1l-0.7-0.7l-0.3-1.4l0.2-1.3l0.6-1.1l1.5-1.8l0.4-1l1.3-5l0.6-5l-0.4-1.5l2.3-4.8l1-0.7l2-5.6l0.2-0.9l0.8-1.5
	l0.2-0.9l0.3-5.5l-0.6-7.1l-0.2-0.3l-0.6,0.1l-0.6,0.3l-0.5,0.3l-0.4,0.7l-0.5,0.2L278,147l0-0.7l0.3-0.3l1.3-0.6l1.1-0.9l0.3-0.6
	l0.1-0.8l-0.3-0.2l-0.7,0.1l-2,0.7l-1.7,1.2l-1.2,0.2l-0.8-0.2l-1.7-0.8l-1.3-0.1l-0.9,0.2l-0.9,0.4l-1.9,1.4l-0.9,1.1l-0.5,0.4
	l-0.4,0l-0.2-0.3l0.3-0.5l1.3-1.7l0.5-0.9l0.3-0.9l-2.7,1.3l-0.8,0l-0.7-0.9l0.4-0.9l4.4-3.3l1.1-1.5l-1-0.9l0-0.2l-0.4-0.1
	l-3.6,0.1l-0.4,0.1l-0.3,0.2l-0.3,0.1l-0.4-0.3l-0.6-0.5l-0.3-0.1l-0.4,0.1l-0.6,0.3l-1.1,0.4l-0.5,0.1l-0.6-0.2l-0.5-0.3l-0.6-0.1
	l-1.7,1.4l-0.4,0.5l-0.3,0.7l-0.3,1.8l-0.5,1.5l-0.2,1.5l-0.2,0.7l-0.7,1.1l-1.7,2.1l-0.5,1l-0.2,1l-0.1,1L251,152l-0.6,0.9
	l-0.7,0.5l-1.7,0.8l-1.6,1.3l0.2,0.2l0.2,0.8l-0.2,0.7l-1.4,2.4l-0.1,0.6l-0.1,1.4l-0.2,0.7l-0.5,0.9l-0.7,0.5l-0.8,0.5l-0.8,0.7
	l-0.3,0.6l-0.8,2.4l-0.5,0.6l-2.9,2.3l-0.2,0.4l-0.2,1.3l-0.3,0.5l-0.5,0.2l-2.3-1.3l-0.8-0.6l-0.8-1.7l-0.5-0.1l-0.7,0.2l-0.7-0.1
	l-1-0.7l-0.9-0.9l-1-0.8l-1.2-0.4l-4.8,1.8l-1.2,1.8l-0.4,2.4l0.2,5.3l-12.7,0.2l-12.7,0.2l-12.8,0.2l-12.8,0.2l-12.8,0.2l-12.8,0.1
	l-12.8,0.1l-12.8,0.1l-2.5,0l-1.2,0.3l-0.5,0.5l0.2,33.5l-25.7,0l-0.4,0.1l-0.2,1l1.4,0.6l1.8,0.4l0.9,0.5l0.5,1.5l1.2,0.2l1.6-0.3
	l1.6,0.1l0.6,0.5l0.5,1l0.3,1.1l0.1,0.9l0.2,0.4l1.2,0.3l0.5,0.3l0.3,0.4l0.3,1.1l0.3,0.6l0.5,0.8l2.1,2.3l0.6,0.2l1.4-0.2l0.6,0.1
	l0.3,0.4l0.3,1.2l0.2,0.5l2.1,2.5l0.3,0.6l0.3,1.3l0.7,0.6l2.3,0.8l0.3,0.3l0.7,0.8l0.3,0.2l0.6-0.3l-0.1-0.6l-0.2-0.6l0.1-0.3l1,0
	l0.8,0.1l0.1,0.5l-0.9,1l1.2,0.6l1.7,1.7l1.1,0.6l4.1,1.2l0.7,0l0.5-0.5l0.8,0.4l0,0.4l-0.2,0.7l0.9,0.7l2.1,1l0.9,0.7l4,5.7
	l0.8,2.2l-0.8,1.4l0,0.4l0.5-0.1l0.3-0.1l0.2-0.2l0.2-0.4l0.8,0.5l-0.2,0.9l-0.4,1l0.2,1l-0.5,0.9l0.5,0.2l0.9,0l0.7,0.4l0,0.6
	l-0.4,0.5l-0.5,0.4l-0.3,0.6l0.7-0.2l0.9,0l0.8,0.2l0.4,0.2l0.3-0.2l1.5-0.5l0.6,0l0.3,1.3l0.4,0.5l1.4-0.7l0.7,0.2l0.6,0.4l0.4,0.3
	l0.3,0.7l-0.1,0.5l0.2,0.3l1.9,0.2l0.6,0.3l0.4,0.3l0.4,0.2l0.7-0.1l0.5-0.2l0.3,0.1l0.1,0.9l0,0.8l0.1,0.3l0.7,1.1l-0.9-0.2l-0.8,0
	l-0.6,0.3l-0.1,0.9l0.4,0l0-0.5l0.4,0l0.5,0.8l-0.3,1l-0.9,0.8l-1.1,0.4l-0.4,0.2l0.6,0.4l0.9,0.3l0.4-0.2l0,0.6l-0.4,0.2l-0.5-0.1
	l-0.4-0.2l-0.1,0.2l0,0.2l-0.1,0.1l-0.3,0l0.2,0.3l0.4,0.7l0.2,0.3l-0.8-0.1l-0.2-0.1l-0.3-0.3l-0.7,0.7l0.1,0.6l0.6,0.5l0.8,0.3
	l-0.7,0.3l-0.7,0.6l-0.4,0.8l0.2,1.2l1.7,0.9l0.4,0.6l-1.3,0.6l0,0.4l0.8,0.7l-1.4,1.2l0.2,1l0.4,0l0.2-0.2l0.1-0.1l0.1,0l0.3-0.1
	l-0.2,0.5l-0.4,0.9l-0.2,0.3l-1.1,0.4l-1.1,0.2l-5.3,0.1l-8.1,0.2l-8.1,0.1l-8.1,0.1L107,286l-8.1,0.1l-8.1,0.1l-8.2,0.1l-8.2,0.1
	l-2.7,0l-0.9,0.5l-0.7,0.9l-1.3,2.3l-1.1,1.9l-2.8,5l-4,7.1l-4.6,8.1l-4.6,8.1l-4,7.1l-2.9,5l-1.1,1.9l-0.4,1.1l0,1.1l0.5,1l7.8,10
	l-1.1,2.7l-0.6,0.7l-0.8,0.3l-0.8,0.1l-0.7,0.2l-0.7,0.7l-0.2,2l0.2,3.8l-0.7,1.9l-1.2,1.5l-0.3,0.7l0.1,1.3l0.1,0.5l0.6,1.5l0,0.5
	l-0.1,0.9l0,0.4l1.1,3l0.1,1.2l-0.2,0.9l-1.2,2.4l-1.3,3.7l-1.1,1.3l-1.2,0.2l11.9,8.3l8.6,7.5l14.1,8.6l2.3,2.2l1.8,0.6l3.4,2.2
	l14.1,5.3l9.2,2.2l4.7,0.4l15.4-1.3l11.3-0.4l3.4,0.6l1.6,0.1l3.1,0.6l6.4,2l16,6.7l2.1,0.4l5.4,2.5l3.4,2.1l3.9,1.8l1.8,1.1
	l0.7,0.6l0.7,0.7l0.5,1l0.5,2.6l0.7,0.3l1.9-0.4l9.4,0.6l4.3,1.1l9.7,0.1l1.6,0.3l2-0.1l4.4,0.9l4.1,1.6l7.2,4l15,6.3l1.9,0.8
	l15.5,2.2l0.9,0.4l0.8,0.6l1.2,0.6l1.1,0.1l0.4-0.7l-1.2-1.1l-2.6-0.7l-4.9-0.8l0-0.4l1.8,0.4l0.8,0.1l1.1,0.1l0-0.5l-0.5-0.3
	l-0.8-0.9l-0.4-0.4l-0.8-0.4l-0.5-0.1l-4.7,0.7l-1.7-0.3l-0.4,0.2l-0.4-0.1l-0.4-0.2l-0.4-0.3l0.7-0.4l3.4-0.2l2.4-0.5l0.9,0l2,0.3
	l0.7,0l0.5,0.3l1.1,1.7l1.1,0.5l2.5,0.5l0.9,0.5l0.2-0.6l-0.2-0.6l-0.4-0.7l-0.2-0.9l0.8,0.4l1.2,1.5l1,0.4l0,0.4l-0.8,0.9l-0.2-0.1
	l-0.6-0.2l0.4,1.5l1.2,0.7l1.5,0l1.4-0.6l0-0.5l-0.8,0.1l-0.5,0.2l-0.5,0.1l-0.6-0.2l0.9-0.4l1-0.2l2.2,0l-0.3-0.6l-0.8-1l-0.3-0.5
	l1.1,0.7l0.8,1.1l-0.1,0.9l-1.3,0.1l0,0.4l0.9,0.2l0.8,0.2l1.4-0.5l5.5,0.6l5.1-0.7l1-0.4l0.4,0l1.9,0.3l8.2,0.2l2.1-0.6l-1.4-0.9
	l0.2-1l1.1-1l4.3-2.4l1.1-1l0.4-1.3l0-0.7l-0.1-0.3l-1.2-0.7l-2-1.8l-0.7-0.2l-1.1-0.7l0.4-1.7l1.5-3l0.5,1.3l0.3,0.5l0.5,0.2
	l0.9,0.3l0.4,0.1l0.6,0l0.2,0.2l0,0.4l0.1,0.4l1.1,0.3l1.4,0.8l1.1,0.2l1.7-0.5l1.6-1.3l0.8-1.6l-0.6-1.7l0.5-0.7l0.8-0.7l0.7-0.2
	l0.4,0.9l-0.1,1.7l0.2,0.7l0.8,0.3l-0.6,1.5l-0.1,0.6l0.4,0l0.7-0.8l1,0l1.2,0.4l1.1,0.2l0,0.4l-0.8,0l0,0.4l0.6,0.2l0.5,0l0.9-0.3
	l2.1-0.1l0.4-0.1l0.5-0.5l-0.1-0.3l-0.2-0.4l0.1-0.8l0.3-0.6l0.3-0.3l1-0.8l0.6,0.5l0.5,0.1l1.2-0.3l0.5,0.1l0.4,0.3l0.9,0.8
	l-0.1,0.4l0,0.4l0.1,0.5l-1.9,0.8l-0.9,0.3l-0.8-0.1l-0.4,0.4l-1.1,1.7l-0.5,0.5l-1,0.5l-0.5,0.4l-0.5,0.6l-0.1,0.5l0.2,0.5l0.4,0.5
	l0.3,0.1l0.4-0.1l0.3,0l0.2,0.2l0.1,0l0.4,1l1.2,1.4l1.2,2l0.9,2.3l0.3,2.3l0.4,0l1.1-0.4l1.9,0.1l3.5,0.7l-0.6,0.2l-1.8,0.4
	l-0.4,0.2l-0.1,1l0.1,0.3l0.4,0.6l0.8,0.8l0.9,0.5l1.2,0.2l1.6,0l0,0.4l-0.8,0.3l-0.6,0.5l-0.4,0.6l-0.1,0.8l-0.6,0.4l-0.4,0.3
	l-2.8,1.6l-0.6,1l0.7,0.5l1.6,0.1l3.1-0.2l0,0.5l-6.1,0.7l-2.5-0.4l-2-1.8l-0.1-0.4l0.1-0.9l-0.1-0.4l-0.2-0.2l-0.8-0.4l-0.3-0.2
	l-1.1-1.4l-0.4-0.2l-1.6-1.2l-0.3-0.2l-0.3-0.3l-0.7-0.2l-0.8-0.1l-0.7,0l0.2-0.4l0.1-1.3l-0.4,0l-0.2,2.3l-1.2,1.4l-1.7,1.1
	l-1.6,1.5l-1,2.2l0.1,1.8l0.9,1.5l1.5,1.2l7.2,3.8l1.4,1.2l0.9,0.6l0.6,0.1l-0.1-0.7l-0.9-0.7l-1.6-1l0-0.4l1.2,0.3l1.4,0.7l1,0.8
	l0.2,0.6l0,0.4l0.5,0.3l0.3,0.1l0,0.4l-0.7-0.3l-0.2-0.2l-0.3-0.3l0.8,1.5l6.9,7.2l0.2-0.3l0.4-0.6l0.2-0.3l0.4,1l0.3,0.6l0.5,0.5
	l3.8,2.7l0.7,0.3l1.2,1l1.6,1.9l1,0.8l-0.7-2.2l0.4,0l1.5,2.5l0.5,0.4l0.8,0.2l0.8,0.6l1.6,1.5l-1.3-0.2l-1.4-0.5l-1.2-0.7l-0.7-0.9
	l0.2,1.4l4.2,1.6l1.9,1.8l3.4,1.8l0.8,0.9l12.5,6.8l1.5,1.2l0.6,0.9l2.4,5.6l2.5,3.7l1.5,1.7l1.5,1.1l0.7,0.7l0.3,0.8l0.2,0.9
	l1.1,1.8l1,1.3l1.6,1.5l0.6,0.3l0.7,0.5l1.8,3.5l1.2,1.4l7.4,5l0.8,1.9l0.8,0.9l1,0.6l5.6,2.1l2.3,2l1.9,0.7l0.7,1.8l0.3,0.5
	l0.9,0.7l2.7,1.3l2.2,2l1.6,0.7l2.1,2.3l1,0.8l2.1,0.4l0.2,0.2l0.9,0.6l0.3,0.1l0.6,0.3l6.8,6.7l1.2,1.5l0.7,2.1l0.5,1l0.9,0.4
	l1.2,0.1l3,1l0.6,0.2l0.8,0.5l0.7,0.8l0.2,0.9l-0.7,0.7l-1.2,0.1l-0.7-0.5l-0.5-0.3l-0.9,0.9l-0.4,0.3l-0.3,0.1l0,0.1l0.5,0.5
	l0.4,0.3l1,0.4l0.5,0.3l0.5,0.7l0.2,0.8l-0.2,0.7l-0.9,0.4l0,0.4l0.3,0.3l0.1,0.4l-0.1,0.4l-0.4,0.2l-0.5-0.1l-0.6-0.5l-0.4-0.2
	l-1.2,0l-1.3,0.3l-0.6,0.5l0.7,0.6l0,0.4l-0.4,0.5l-0.4,0l-0.8-0.7l-0.3-0.1l-0.1-0.2l0.1-0.5l0-0.5l-0.3-0.4l-0.8-0.1l-2.9,0.4
	l0,0.4l0.5,0.1l0.3,0.1l0.2,0.2l0.3,0.4l-1.4,0.3l-2.4,1.3l-1.3,0.4l0,0.4l2.2,0.1l1.6,0.6l1.4,0.7l1.8,0.6l0.5,0l1.1-0.2l0.4,0.1
	l0.4,0.4l-0.1,0.3l-0.3,0.2l-0.3-0.1l0.5,0.5l1.7,1.2l0.4,0l0.9-0.7l2,0.2l2,0.7l1,1l0.6,3.9l-0.1,2.1l-0.9,0.9l0,0.4l0.4,0l0,0.4
	l-0.7,0.2l0,0.2l-0.1,0.5l0.2-0.1l0.1-0.1l0.1-0.1l0.1-0.1l0.4,0.4l-0.5,0.2l-0.4,0.3l-0.6,0.8l0,0.4l0.3,0l0.1,0.1l0,0.2l0.1,0.2
	l2.3-2.6l0.8,0.5l0.3,0.4l0.2,0.5l-1.7,2l-0.7,0l-0.2,0l-0.5,1l-0.3,0.3l-0.3,0.2l-0.2,0.4l0.1,0.8l-0.4,0l-0.9,0l-1.1,0.8l-1.1,0.6
	l-0.9-0.6l-0.4,0l-0.4,1.2l-0.4,0.4l-0.7,0.2l0,0.4l0.8-0.1l0,0.4l-0.3,0.1l-0.2,0.1l-0.4,0.3l0.7,0.6l1,1.1l0.6,1l-1.2,1l-0.4,1
	l-0.5,0.7l-1-0.3l-0.4,1l-0.6,1.1l-1,0.9l-0.4,0.6l0.8,0.4l1.4,1.5l0.2,0.5l-0.3,0.6l-0.8,0.9l0.4,0.7l0.3,1l0.3,1.7l2.7,5.5
	l0.8,1.1l0.6,1.6l0.4,0.6l6.6,7.1l0.7,1.5l-0.4,1.1l0.6,0.7l0.4-0.1l0.4-0.3l0.7-0.1l0.5,0.2l0.3,0.3l0.4,0.2l1.6,0.1l3.4,0.8l0-0.1
	l0.2-0.2l0.3-0.1l0.4,0.2l0.2,0.3l0.1,0.2l0.1,0.1l0.4,0l0.7,0.1l0.8,0.5l0.6,0.1l0.4-0.2l0.8-0.7l0.6-0.2l6.6,1.8l2.1,1l1.5,1.5
	l0.1,0.4l0,0.5l0.2,0.5l1.5,0.5l0.6,0.3l0.3,0.3l0.4,0.7l5.4,6.4l1.9,3.3l0.4,0l0.6-1l0.5-1.1l1-4.2l0.3-0.5l1.4-0.8l0.2-0.3
	l0.3-0.1l1.9-1.1l0.1-0.2l-1-1.1l-0.3-0.5l0.4-0.8l1,0l1.9,0.8l0.2-0.5l0.2-1.1l0.2-0.5l1.3-0.9l0.2-0.3l0.3-1.1l0.9-0.7l1-0.5
	l0.8-0.6l0-0.4l-2.1,0.2l-1,0l-0.9-0.3l0.7-0.8l0.4-0.4l0.5-0.2l-0.8-0.7l-0.8-1l-0.1-0.9l1.2-0.4l0-0.4l-0.7-0.5l-1.6-0.8l-0.7-0.5
	l-1,0.5l-1.1,0.1l-1.1-0.3l-2.4-1.2l-1-0.3l-0.4,0.2l-0.5-0.2l-3.7-1.2l-2.6-2l0-0.4l0.5,0.2l0.5,0.1l0.5,0l0.5-0.1l-0.1-0.4
	l-0.2-0.1l-0.5,0.2l-0.4,0l-0.9-1.5l-0.7-0.7l-1.9-0.5l-0.8-0.7l-0.2-0.8l0.7-0.6l-0.8-1.1l-0.5-1.6l-0.3-2.8l-0.5-1.4l-1.8-1.1
	l-0.4-1.2l2.7,1.6l1.1,1.2l-0.3,1.1l0,0.4l1.6,1.5l1,0.6l1.1,0.2l4-0.3l1-0.4l0.8,0.7l0.2,0.1l0.3,0.2l-0.1,0.4l-0.3,0.7l0.6,0.4
	l0.3-0.1l0.2-0.2l0.3-0.2l0.4,0.1l0.7,0.5l1.3,0.6l2.6,2.1l1,0.4l-0.3,0.3l0.6,0.5l0.8,0.5l0.4,0.1l0.3,0.3l1.9,1.4l1.5,0.7l1.6,0.4
	l1.7,0.2l1.9,0l0,0.4l-2.1,0.1l-0.9,0.2l-0.7,0.3l0,0.4l5.2-0.9l1.7,0.4l-0.2,0.9l0.3,0.6l1.5,1.1l-0.7,1.4l-0.1,0.9l1,0.3l0.7,0.5
	l2.7,3.4l1,0.9l0.5,0.6l0.3,0.7l-0.1,0.9l-0.4,0.7l-0.4,0.5l-0.3,1l-0.9,1.1l-0.3,0.7l0.1,0.6l0.2,0.6l0.1,0.6l-0.2,0.7l0.9-0.1
	l0.2,0.4l0,0.6l0.3,0.6l0.7,0.4l0.7,0.2l0.5,0.4l0.3,0.8l0.5,0.9l2.3,1.2l1,0.7l-0.2-0.4l-0.1-0.2l-0.2-0.2l0.8,0.1l0.3,0.5l0.3,0.7
	l0.7,0.5l0.8,0.1l0.8-0.2l0.7-0.3l0.7-0.2l1.5,0l8.1,1.6l1.5,0l1.6,0.2l2.6,1.3l1.6,0.2l-0.8-0.5l-0.4-0.1l-0.5-0.1l0-0.4l1.5,0.4
	l1.7,1.2l1,1.5l-0.6,1.1l1,0.1l0.6,0.5l0.5,0.3l0.8-0.4l0.3,0.4l0.3,0.2l0.3,0l0.4-0.3l0.4,0l5.9,1.8l0.8,0.5l4.7,1.8l5,4.1l1.4,0.2
	l1.9,0.8l1.4,1.2l0,1.6l2.4,0.2l1.7,1.5l1.4,1.9l1.5,1.6l0.4-0.4l1.1,1l0.3,0.5l1.9,4l-0.6,0.5l-0.4,0.5l-0.3,0.5l-0.2,0.7l0.2,0.2
	l0.4,0.2l0.1,0.3l-0.7,0.5l0.7,0l0.3,0.2l0.2,0.3l0.4,0.3l0.9,0.4l0.5,0.3l0.4,0.4l-0.7,0l-0.6-0.1l-1.2-0.5l0.2,1l0.7,0.5l0.8,0.4
	l0.4,0.6l-0.2,0.7l-0.6,0.5l-1.4,0.8l-0.8,1.1l-0.2,1l0.3,0.5l0.7-0.4l0.6-0.8l0.4-0.4l0.6-0.1l1.3,0l0,0.4l-1.4,0.5l-1.6,1
	l-0.8,1.1l0.8,0.9l-0.4,0.4l-1.3,2.3l-0.4,0.4l-0.2-0.3l-0.3-0.1l-0.6,0.3l-0.9,0.6l-0.4,0.5l-1.6,2.9l0.3,1.8l0.4,0.2l1.3,0.4
	l0.3,0l0.4,0.5l5.6,4.4l1.6,1.8l0.9,0.8l0.9,0.3l1-0.1l3.6-0.8l1.2,0.1l3.6,1.2l-0.1-0.8l0.5,0.4l0.5,0.3l1.2,0.4l-0.8,0l-0.2-0.1
	l-0.3-0.2l-0.4,0l1,0.7l2.1,0.8l2.2,0.5l1.3-0.2l0.5-1.5l0-2.2l-0.5-2.1l-1-1.1l0-0.4l0.3-0.4l0.1-0.6l-0.2-1.5l-0.7,0.5l-0.8-0.6
	l-0.9-0.9l-0.9-0.4l-0.9,0l-2.3-0.5l-0.8-0.3l-0.5-0.5l-1.4-1.8l-0.4-0.9l-2.3-3l-0.4,0l0,0l-0.4,0.4l0.2-1.2l0.8-0.4l2,0.1l0.8-0.2
	l0.2-0.4l0-0.4l0.3-0.3l0.6-0.1l0.4,0.2l0.3,0l0.3-0.7l1,0.3l1.3,0.2l0.9,0.4l-0.2,1l0.4-0.1l0.4,0l-0.3,1.3l0.6,0.9l2,0.9l0.8-0.5
	l0.9,0.4l0.8,0.8l0.5,0.8l0.9-0.3l1.2,0l1.1-0.1l0.4-0.8l0.4,0l0.5,0.7l0.8,0.7l0.9,0.6l0.8,0.3l0,0.4L603,714l-0.3-0.1l-0.1-0.8
	l-0.2-0.5l-0.6-0.9l-0.4,0l-0.1,0.3l-0.1,0.2l-0.2,0.3l1.4,2.2l0.5,0.4l0.9,0.3l1.7-0.2l0.7,0.2l-0.9,0.7l-0.7,0.3l-0.4,0.3l0.1,0.9
	l0.4,0.6l2.1,2.3l0.5,0.9l-0.3,1l-0.6,0.9l-0.3,0.6l-0.3,0.2l-1.6,2.3l2.2,1.8l7.8,4.7l1.6,1.4l4.6,6.6l0.2,0.7l-0.2,0.9l-0.4,1
	l0,0.9l0.9,0.6l1.3,0.5l0.5-0.6l0.3-1l0.7-0.9l0-0.4l-1.7-3.9l-0.6-2.5l0-2.5l0.7-2.2l1.3-1.6l1.7-1.2l4.1-1.7l2.3-0.5l2.4-0.2
	l2.2,0.3l4.3,1.3l2.5,0.4l1.5-0.4l0.5,0.2l0.4,0l1.1-0.3l-0.2-0.4l-0.2-0.4l-0.3-0.4l-0.3-0.3l0-0.4l1.1-0.6l0.2-0.8l0-0.7l0.6-0.5
	v0.6l0.1,0.5l0.3,0.3l0.5,0.2l0,0.4l-1,0.5l0.2,0.7l0.9,0.6l1.1,0.2l0.7-0.3l1.6-1l0.9-0.2l-0.2-0.4l-0.2-0.8l-0.1-0.4l1.1,0.3
	l1.1-0.2l1-0.4l0.9-0.5l-0.2,1.3l0.5,0.7l0.9,0.3l1.2,0l0-0.3l0.8-2l0.3-0.2l0.7-0.1l1.4-0.1l-0.9,0.3l-0.4,0.5l0,0.6l0.4,0.8
	l-0.3,0l-0.1-0.1V725l-0.1-0.2l-0.2,0.3l-0.1,0.3l0.1,0.3l0.4,0.2l0,0.4L660,727l0.1,0.8l0.8,1.8l-0.3,0.2l-0.2,0.2l-0.3,0.1l0,0.4
	l0.6,0.2l0.8,0.7l0.5,0.1l0.8-0.2l1-0.7l0.8-0.1l0,0.4l-0.4,0.2l-0.2,0.3l-0.1,0.4l0,0.5l0.5-0.2l0.1,0.4l-0.4,1.4l0.4,0l0-0.4
	l0.1,0l0.3,0.1l0.1,0.1l1.2-3.4l0-1.1l0.4,0l1,0.7l2,0.4l1.9,0l0.8-0.7l1.3,1l0.9,0.4l0.4-0.2l0.2-0.8l0.6-0.8l0.8-0.6l0.7-0.3
	l-0.8,1.7l-0.2,0.9l0.7,0.3l0.8,0l2.5,0.4l0.5,0.3l4.8,1.4l1.1,0.7l0.4,0l0.3-0.6l0.8-1.1l0.3-0.5l-0.7-0.1l-0.2-0.5l0.1-0.7
	l0.3-0.7l0.4,0l0.3,1.1l0.7,0.9l1.5,1.5l2.4,3.5l-0.5-0.2l-0.1-0.1l-0.2-0.2l-0.4,0l-0.3,0.4l-0.4,0.1l-0.5-0.1l-0.5-0.2l0,0.4
	l1,0.4l0.2,0.8l0.1,0.9l0.7,0.5l-0.1-0.6l0-0.5l0.3-0.9l0.4,0.6l1,2.2l1.6,1.9l0.3,0.6l0.1,0.4l0.2,0.3l0.3,0.2l0.4,0l0.2-0.2
	l-0.1-0.4l-0.4-0.8l-0.1-0.8l0.1-0.1l0.4,0.1l0.7-0.4l-0.2,0.7l0.2,0.9l-0.2,0.5l0.9,0.6l0.3,0.3l0.2,0.5l-1.1-0.3l-0.3,0.6l0,1
	l-0.1,0.9l0.9-0.1l0.5,0.2l0,0.4l-0.5,0.5l0,0.4l0.5,0.4l0.4,0l0.4-0.3l0.4-0.1l0.4,0.1l0.5,0.2l0,0.4l-0.8,1.1l-0.2,0.7l0,1
	l0.3,0.6l0.6,0.5l0.4,0.5l-0.3,0.6l0,0.4l0.7,0.2l1.5,0.9l0-1l0.6-0.2l2.4,0.5l-0.6,0.7l-1.1,0.7l-0.5,0.2l0.2,0.9l1.4,0.4l1.8,0
	l1.3-0.5l0.5,0.2l0.5,0.4l0.4,0.6l0.3,0.7l1.6-0.3l5,0.9l1.4-0.1l0.8,0.2l0.4,0.7l0.4,0l2,0.8l0.5,0.3l0.4,0l0.2-0.4l0.7-0.6
	l0.2-0.3l0.1-0.5l-0.1-0.4l-0.2-0.7l0-2.6l-0.3-0.6l-0.8,0.4l-0.8,0.5l-0.4,0l-0.5-0.5l-0.5-0.7l0.5,0.2l0.4,0l0.8-0.4l-0.8-1
	l-0.4-0.3l-0.6-0.1l0-0.4l0.8-0.1l0.8,0l0,0.4l-0.2,0.3l-0.1,0.2l0.1,0.3l0.3,0.5l1.2-1l1.2-1.4l0.4-1.6l-1.3-2l0.1-0.4l0.1-0.4
	l0-0.5l-0.2,0l-1.1-0.4l-1.1-0.8l-0.2-0.5l0.8-0.3l-0.1-0.4l-0.2-0.2l-0.6-0.2l1.1,0.1l0.2,0.8l0.4,0.9l1.5,0.3l0.7,0.1l0.8,0.5
	l0.6,0.1l2.7-0.2l0-0.4l-0.5-0.2l-0.4-0.3l-0.3-0.4l-0.2-0.6l0.4,0l0.8,1.1l0.8-0.9l1.1-2.5l0.2,3.7l0.6,1.5l1.3-0.9l0.4,0v0.8
	l-0.3,0.4l-0.6,0.2l-0.7,0.1l-0.6,0.2l-0.4,0.3l-0.3,0.3l-0.3,0.2l-0.4,0.5l0,0.9l0.6,0.8l1.4,0.1l0,0.3l-0.1,0.1l-0.2,0l-0.2,0.1
	l0.4,0.2l0.5,0.1l0.6,0l0.6-0.1l-0.9,1.9l0.1,0.3l0.5,0.1l0.8,0.3l0.7,0.5l0.3,0.5l-0.7-0.1l-0.6,0.2l-0.4,0.4l-0.2,0.6l0,0.6
	l0.2,0.2l0.5,0.1l0.6,0.3l3.1,2.6l0,0.4l-0.4,0l0,0.4l0.6,0.4l0.9,0.7l0.6,0.8l0,0.7l-0.2,0.5l0,0.6l-0.1,0.5l-0.7,0.5l0.3,0.4
	l0.5,0.4l0.2,0.1l2.4,2.1l0.4,0.7l-0.5,1.9l0.1,1.1l1.6,0.8l0.3,0.9l0.1,1.1l-0.1,0.8l-0.2,0.3l-0.6,0.6l-0.3,0.4l0,0.5l0.2,1.3
	l-0.2,0.3l-0.3,0.2l-0.2,0.4l0.1,0.4l0.6,0.1l0.6,0l0.5,0.2l0.5,0.2l0.3,0.2l1.1,1.5l0.7,0.3l0.7-0.9l0.4,0l0.3,0.3l0.3,0.1l0.3-0.1
	l0.3-0.4l0.4,0l1.2,0.2l4.7-0.6l6.8-1.9l7.2-1.6l0.6,0l1.2,0.2l0.4-0.1l0.4-0.4l0-0.4l-0.1-0.4l0.2-0.5l0.5-0.4l0.5-0.2l0.4-0.3
	l0.1-0.7l0.1-0.3l0.3-0.4l0.4-0.3l0.4-0.2l1.4-0.3l0.1-0.6l-1.2-1.6l0.1-1.6l1.5-1.3l4.1-1.8l-0.4-0.3l-0.5,0.4l-0.5,0.3l-0.6,0.2
	l-0.8,0.2l0-0.4l1.8-0.7l0.5-0.3l0.4,0l0.6,0.5l1.6,0.2l0.8,0.3l0.7-0.5l3.7-0.3l4-2l0.5-0.1l1.6-0.2l0.7-0.2l0.4-0.5l0.7-2.3l0-1.1
	l-0.9-1.7l-3.2-4.8l-6-6.3l-3.9-2.9l-6.1-3.9l-0.9-1.6l-1.1-2.4l-1.4-2l-2-0.4l-0.7-0.4l-2.3-0.8l-0.9-0.1l-0.6-0.5l-0.4-1.1
	l-0.5-1.1l-1-0.4l0.4-0.8l0-0.7l-0.7-5.7l0.4-1.1l3.4-4l1-0.8l0.2-0.4l-0.1-0.3l0-0.3l0.6-0.3l-0.3,0.3l0.4,0.4l0.8,0.4l1.7,0.2
	l0.4-0.2l1-0.6l0.5-0.2l0.3,0l0.8,0.2l0.5,0l2.8-0.6l1.7-0.9l3.9-2.5l2.5-1.6l6.1-4.9l1.1-1.2l0.1-0.2l0.3-0.3l0.5-1.2l0.3-0.3
	l0.5-0.2l0.4-0.3l0.8-0.9l0.2-0.1l0.6-0.2l0.3-0.2l0.2-0.2l0.1-0.5l0.1-0.2l3.3-1.7l0.6-0.1l0.4-0.6l0.9-0.6l1.7-0.9l-0.1-0.3
	l-0.1-0.1l-0.1,0l-0.2-0.1l0.3-0.4l0.1-0.2V694l-1.6,0l-3.8-0.7l0-0.4l1.8-0.7l0.6-0.3l0.1-0.2l-0.1-0.3l0-0.2l0.7-0.2l0.7-0.4
	l0.2-0.2l0.3-0.4l0.3-0.5l0.2-0.5l0.1-0.5l0.2-0.3l0.1-0.3l0-0.4l-0.1-0.2l-0.3-0.1l-0.3-0.2l-0.2-0.3l-0.6-3.5l0.1-1.2l0.4-0.9
	l0.7-0.9l0.9-0.6l1,0.1l-0.2-0.3l-0.1-0.3l-0.2-0.2l0-0.4l0.4,0l0.1,0l0.1,0.1l0.2,0.2l0.6-0.3l0.4,0.1l0.4,0.2l0.7,0.2l0-0.4
	l-0.4-0.7l0.8-0.5l2.6-0.7l1.4,0.4l0.8-0.7l0.2-1.3l-0.6-1.4l0.4,0l0-0.4l-0.2-0.3l-0.1-0.2l-0.1-0.3l0.4,0l0.4,1l0.9,1l1,0.9
	l0.8,0.5l-0.3-0.7l-1.2-1.6l0.6-0.2l0.1-0.4l-0.1-0.5l0.1-0.5l1.6-1.2l0.2-0.2l0.2-0.1l0-0.3l0.1-0.3l0.4-0.2l0.4-0.1l0.7-0.3l1-0.3
	l0.5-0.3l0.5-0.1l0.5,0.4l1.3-0.8h3.3l1.4-0.6l0,0.4l0.4,0l1.5-0.4l4.8,0.4l1-0.4l0.1-0.7l0.3,0.1l0.3,0.4l0.1,0.3l1.5,0.3l0.4,0.2
	l0.9,0.1l0.8-0.8l0.5-1.1l0.2-0.8l-0.3-1.2l-0.7-0.4l-0.8-0.2l-0.4-0.4l0.1-0.5l0.3-0.3l0.4-0.2l0.5-0.1l0.6-0.2l0.3-0.3l0.2-0.3
	l0.1-0.1l0.3-0.3l0.6-1.1l0.3-0.3l0.6-0.1l0.2,0.3l0.2,0.3l0.5,0.1l0.2-0.2l0.7-0.9l0.4-0.3l0.5-0.2l0.8-0.1l0.4-0.2l-0.2,0.5
	l-0.5,0.4l-1.1,0.5l-0.9,0.9l-0.6,0.1l-0.6-0.7l-0.4,0l-0.3,1l-0.6,0.9l-0.9,0.6l-1.2,0.2l0,0.4h1.1l0.5,0.6l0.2,1l0.1,1.2l-0.1,0.6
	l-0.2,0.4l-0.1,0.3l0.1,0.6l0.3,0.3l1.6,0.9l3.1,0.4l8.1,3.3l0.4,0.9l0.3,1.1l0.5,0.9l1.3,1.2l0.6,0.2l0.9-0.2l0.9-0.6l0.3-0.6
	l-0.2-0.8l-0.6-0.9l0.7,0.5l0.5,0.6l0.6,0.5l0.9,0.2l0,0.4l-0.4,0l0,0.4l1,0.7l1.4,2.4l1.2,0.6l1.6-0.2l2,2.2l0.9-1.2l0.9,0.1
	l-0.1-0.9l-0.4-1.2l0-1l0.4,0l0.4,1.1l0.2,1.2l-0.2,1.1l-0.8,0.8l0.7,1.4l0.4,0.7l0.5,0.2l0.4-0.1l0.4-0.2l0.5-0.1l0.5,0.3l0.2-0.4
	l0.2-0.1l0.4,0l-0.1,0.3l-0.2,0.9l3.7,0.6l0.1,2.1l0.4,0.6l1,0.7l-0.7,0.4l-0.6,0l-0.7-0.1l-0.9,0l0.8,0.7l1.9,2.1l0.5,1l-0.2,2
	l0.1,0.8l0.3,0.6l0.7,0.8l0.3,0.5v-0.5l0.1-0.4l0.2-0.4l0.4-0.4l0.5,0.7l0.4,1l0.2,1.1l-0.2,0.8l0.7,0.3l1.5,1.5l0.5,0.2l0.5,0.1
	l0.4,0.2l0.3,0.5l1.3-3.6l-0.3-1l-1.2-0.8l-0.9-2.8l-1.4-2.8l0.1-1.5l0.4,0l0.1,1.2l0.4,0l0-0.4l0.4,0l-0.1,0.4l-0.2,0.4l0.6,1.1
	l1,3.4l0.6,0.9l0.8-0.3l1-1.1l0.7-1.3l0-0.8l0.4-0.5l0.7,1.8l0.6,0.6l0.9-0.2l0.6-1.7l0.2-0.3l0.3-0.2l0.1-0.4l-0.4-0.7l1,0.2
	l0.1,0.5l-0.5,1.2l-0.2,0.3l-0.2,0l-0.1,0.1l0.2,0.5l0.2,0.2l0.4,0.2l0.4,0.2l0.3,0.4l0.4-0.2l0.2-0.1l0.2-0.2l0-0.4l-0.5-0.6
	l0.2-0.7l0.4-0.9l0-1.1l-0.5-0.6l-0.6-0.4l-0.3-0.5l0.3-0.9l0.4,0l1.3,3.1l0.5,1.8l0.1,1.9l-0.4-0.1l-0.2-0.1l-0.3-0.2l-1.6,1
	l-0.3,0.4l-0.1,0.4l0.1,0.5l0.3,0.4l0.5,0.1l1-0.3l1.1-0.6l0.8-0.8l0.3-0.9l0.1-1.2l0.4-1l0.7-0.6l0.9-0.1l0.6,0.4l0.8,0.8l1.3,1.7
	l0.4,0l0.2-0.6l-0.1-0.6l-1-1.8l-0.2-0.5l-0.2-1.9l0-0.2l-0.3,0l-0.8-0.4l-0.4-0.5l-0.2-1.5l-0.3-0.5l0.7,0.3l0.2,0.4l0.1,0.5
	l0.3,0.6l0.7,0.5l0.5,0.1l0.4,0.1l0.2,0.7l-0.1,0.5l-0.3,0.4l-0.1,0.6l0.4,1l0.6,0.7l0.7,0.6l0.8,0.5l0.7,0.3l-0.8,1l0.5,1.5
	l1.5,2.4l0.4,1.3l0.8,1.1l1.1,0.7l1.3,0.4l5.3,0.4l0.9,0.4l0.6,0.4l3.4,3.5l1-0.3l2.4,2.4l1.6-0.2l-0.4,0.9l-0.9,0.4l-0.9-0.1
	l-0.5-0.6l-0.3-1l-0.6-0.8l-0.7-0.3l-0.6,0.4l-0.6-0.2l-0.4-0.4l-0.2-0.6l-0.1-0.9l-0.4-0.4l-1.5-0.6l-1.1-1l-1.6-0.4l-3-0.3
	l0.5,0.7l0.7,0.6l0.9,0.4l0.9,0.1l0,0.4l-0.8,0.1l-0.5,0l-0.5-0.2l-0.4-0.3l-0.5-0.8l-0.6,0l-0.6,0.2l-0.3,0.1l-0.9-0.1l-0.8-0.5
	l-0.6-0.7l-1.3-2.7l-0.6-0.8l-0.7-0.3l-0.8-0.1l-1.1-0.3l-1-0.4l-0.6-0.4l-0.2-0.5l-0.5-2.1l-0.3-0.2l-0.5,0.1l-0.5,0.3l-0.2,0.3
	l0.1,1.2l0,0.5l-0.2,0.6l-1,1.2l-0.2,0.1l0,0.6l0.3,1.6l-0.2,0.2l-0.6,1.1l-0.1,0.2l-0.8,0.2l-0.4,0.1l-0.5-0.1l-0.4-0.2l-0.7-0.6
	l-0.5-0.3l-0.2,0.6l-0.1,0l-0.4,0.2l0.2,0.2l0.1,0.2l0.2,0.2l0.4,0.1l0,0.4l-0.7,0.5l-0.5,0.1l-1.6,0l0,0.4l0.7,0.4l1.9,1.8l0.7,0.5
	l0.6,0.5l0.4,0.7l0.2,1.2l-0.6,2.2l-1.8,2.4l-2.2,1.4l-1.8-0.7l-0.6,0.6l-0.9,0.2l-0.9-0.3l-0.9-1.8l-0.6,0.5l-0.6,1.1l-0.2,1.1
	l0.2,0.7l1.2,1.8l0.2,0.6l-0.1,0.7l0.1,0.7l0.7,1.8l1,1.7l1.2,1.3l1.6,1.3l1.4,1.5l0.7,1.8l0.3,0.6l2,2.5l0.5,1l0.1,0.8l-0.2,0.8
	l-0.5,1.2l0.6,0.1l0.5,0.3l0.3,0.5l-0.1,0.7l1.2,0l0.9,0.6l1.4,1.5l0.8,0.5l0.3,0.3l0.3,0.6l0.1,0.7l-0.2,0.5l0,0.6l0.4,0.7l0-1.1
	l0.5-0.5l0.6,0.2l0.4,1l0.3,2.1l0.2,0.6l0.2-0.9l0.4,0l0.5,1.1l0.3,0.6l0.4,0.2l0.6,0.2l0.3,0.5l0.2,0.5l0.2,0.2l0.7,0.3l1,0.7
	l1.6,1.5l0.4,0l0.5-0.5l0.4,0.2l0.8,1l-0.3,0l-0.1,0.3l0.2,0.4l0.5,0.1l0.2-0.1l0.1-0.2l0.2-0.1l0.4,0.2l0.3,0.6l0,0.6l-0.2,0.6
	l-0.1,0.6l0.3,0.6l0.5,0.5l1,0.6l2.8,2.9l1.9,1.4l1.3,0.2l1.6-7.9l1.4-6.8l1.4,0.2l1.3-0.3l1.1-0.8l0.8-1.2l0.4-1.6l-0.3-1.2
	l-1.6-2.4l-0.7-1.8l-0.5-2.5l0.1-2.2l1.3-0.9l0.6,0.3l3.2,2.2l0.6,0.6l0,0.2l-0.2,0.5l0,0.2l0.2,0.1l0.5,0.1l0.2,0.1l1.9,2l0.5,0.7
	l1,2.9l0.7,0.6l1.3-0.3l1.3-1.3l2.4-3l7.7-6l1.6-1.7l-0.5-1l-1.3-1l-1-1.6l0.1-0.7l1.5-2.4l1.1-3.5l1.1-1.4l1.7-1.1l1.9-0.9l1.7-0.6
	l2.2-0.2l0.3-0.3L959,717.6z M412.6,508.6l-0.3,1.2l-0.5,0.8l-1.8,0.8l-9,0.8l-0.9-0.2l-0.2,0l-0.1,0l-0.2-0.2l-0.1-0.3v-0.4
	l0.1-0.4l0.2-0.2l0.8-0.3l0.6-0.8l0.3-1.1l0-1.2l-1-2l-1.7-0.6l-1.9,0.5l-1.6,1.2l-0.6,0.8l-0.5,0.6l-0.7,0.1l-2-1.2l-5.4-1.9
	l-1.8-0.9l-1.2-1.4l-0.3-2.4l0-1.2l0.1-0.4l0.2-0.4l0.4-0.3l0.4,0l0.3,0.3l0.1,0.5l0.5,0.5l1.1,0.3l1.3,0.1l1.2-0.2l1.3-1l0.8-1.4
	l1-1.3l1.8-0.6l0.9-0.2l1.3-0.6l1-0.2l1.1-0.4l0.7-0.7l0.6-0.5l1,0.2l0.4-0.3l0.4-0.1l0.4,0.1l0.4,0.2l0.6,3.2l-0.2,0.5l0.2,0.4
	l1.8,1.6l0.5,0.4l0.7,0.9l1.3,4.4l0.2,1.6l1.3-1.3l1.4-1.9l1.6-1.2l1.6,0.7l0.4,1.1l0,1.3L412.6,508.6z M495.8,571l-0.5,0.6
	l-2.4,2.1l-1.9,0.2l-0.3,0.2l-0.3,0.2l-1.5,0.8l-0.6,0.2l-1.2-0.2l-1-1.1l-1.3-0.2l-1,0l-10.8-1.7l-1,0l-1,0.3l-1,0.1l-1.4-0.6
	l-0.7,0l-1.3,0.2l-0.5-0.2l-1.3-1.2l-0.6-0.5l-2.2-0.6l-2.1-0.3l-2.5,0l-5.4-1.5l-0.9-0.6l-0.8-0.7l-0.8-0.5l-1.7-0.9l-0.9-0.3
	l-1-0.2l-2-0.1l-7.7-6.8l-1.2-1.8l-2-6.1l-0.5-1l-2-3l-1-0.8l0.1,0.9l-0.5-0.4l-0.3-0.5l-0.2-0.6l0-0.6l0.3,0.1l0.6,0.1l0.4,0.1
	l-1-3.5l-0.5-1l0.3-0.3l0-0.3l-0.1-0.3l-0.3-0.4l-0.4,0v0.7l0.1,0.6l0.4,1.1l-0.9-0.6l-2.1-2l-0.4-0.8l0.1-0.6l0.4-0.6l0.4-0.5
	l0.9-0.6l0-0.7l-0.5-1.1l-0.1-2.8l-0.5-1.5l-1.1-0.6l-0.7-0.5l0.5-1.1l0.8-0.5l0.4,1.2l0.4,0l-0.7-1.7l-0.6-0.5l-1.1-0.1l-0.4-0.5
	l-0.1-1.1l0-1.2l0.1-0.8l0.6-1.9l1.7-3.9l1-1.4l1.6,0.4l1.6-0.5l1.3-0.9l1.1-0.7l0,0.1l1,0.6l4,1.9l1.4,0.4l0.5,0.3l0.2,0.7l0.3,0.3
	l0.6,0.1l0.7-0.1l0.4-0.2l0,0.4l0.4,0l1.3-1l2,1.3l2.9,3l0.5,0.4l1.2,1.7l0.8,1.5l3,2.7l1.2-1.4l2.5,0.4l2.7,1.1l1.7,1l0.5,0.7
	l0.5,0.9l0.6,0.8l0.9,0.3l0.7,0.1l0.5,0.3l0.9,0.9l0.5,0.2l1.3,0.1l0.5,0.1l2.5,3.4l2.3,2.5l0.2,0.2l0.2,0.4l0.1,0.2l0.2,0.1
	l0.5,0.1l0.2,0.1l1.1,0.9l0.5,0.6l0.6,1.5l0.7,0.7l1.6,1l2.5,2.7l1.4,0.8l2.1,2.7l0.5,0.2l0.4,0l0.4,0.1l0.4,0.4l0.2,0.5l0.2,0.6
	l0.2,1.2l0.4,1.2l0.7,0.6l0.8,0.6l0.7,0.9l-0.1,0.2l-0.3,0.2l-0.2,0.3l0.4,0.5l0.7-0.2l0.6,0l0.6,0.3l1.8,1.6l0.6,0.8l0.5,1.4
	l0.3,4.7l0.3,1.3l0.9,1.9V571z M652,663.3l0.9,1.3l0.2-0.5l0.1-0.2l-0.1-0.2l-0.3-0.3l0-0.4l0.8-1.1l-0.5-1.5l-1.8-2.3l-1.1,0.1
	l-0.9,0.5l-1.5,1.3l3,2L652,663.3z M584.2,364.9L584.2,364.9L584.2,364.9L584.2,364.9z M583.7,371.7L583.7,371.7L583.7,371.7
	l0.1-0.1L583.7,371.7l0-0.1L583.7,371.7L583.7,371.7L583.7,371.7z M583.3,372.1L583.3,372.1L583.3,372.1L583.3,372.1l0.1-0.1l0,0
	l0,0L583.3,372.1L583.3,372.1z M583.3,371.5l-0.1,0.1l0.1,0.1L583.3,371.5z M595.6,360.9L595.6,360.9L595.6,360.9l0.1-0.1
	L595.6,360.9l0-0.1L595.6,360.9L595.6,360.9L595.6,360.9z M583,366l0,0.1l0.1,0L583,366z M583.8,367.5l0,0.2l0.1-0.1L583.8,367.5z
	 M583.9,371.7L583.9,371.7l0-0.2l-0.2,0.1L583.9,371.7z M582.8,365.9L582.8,365.9L582.8,365.9l0.1-0.1L582.8,365.9l0-0.1
	L582.8,365.9L582.8,365.9L582.8,365.9z M584.3,371.6l-0.2,0.1l0.1,0L584.3,371.6z M584.2,371.5l0-0.1l-0.1,0.1L584.2,371.5
	L584.2,371.5z M584,371.3l0-0.2l-0.1,0.2L584,371.3L584,371.3z M593.5,362l-0.2,0.1l0,0.1L593.5,362z M584.3,371.4l0.1,0l0-0.1
	l-0.1-0.1L584.3,371.4z M594,372.6L594,372.6L594,372.6L594,372.6L594,372.6z M594.6,372.4l-0.2,0l0,0L594.6,372.4z M594.1,372.7
	L594.1,372.7L594.1,372.7L594.1,372.7z M595.2,360.7L595.2,360.7L595.2,360.7l0.1-0.1L595.2,360.7l0-0.1L595.2,360.7L595.2,360.7
	L595.2,360.7z M595.6,491.9l0.3,0.3l0-0.7l-0.2-0.1l-0.1-0.2l-0.2-0.4l-0.3,0.2l-0.2,0.5l0.2,0.2L595.6,491.9z M592.9,362.9
	L592.9,362.9l-0.1-0.1L592.9,362.9L592.9,362.9z M592.2,501l1.6-2l0.2-0.4l-0.7-0.5l-0.8,0.5l-0.5,1.1L592.2,501z M582.5,371.2
	l0.1-0.1l0-0.1l-0.2,0.1l0,0.1l0,0.1L582.5,371.2z M593.8,364.9l-0.6-0.4l0,0.7L593.8,364.9z M592.8,362.7l-0.1,0l0.1,0.1
	L592.8,362.7z M582.6,371.1l0,0.2l0.1,0L582.6,371.1z M583.5,371.7l-0.1-0.2L583.5,371.7L583.5,371.7z M589.6,372.1l-0.1,0
	L589.6,372.1L589.6,372.1z M589.6,372.3l-0.1,0.1l0.1,0.1L589.6,372.3z M589.1,372.4l0.1-0.1l-0.1-0.1L589.1,372.4z M589.9,374.4
	l-0.1,0.2l0.1,0L589.9,374.4z M589.2,371.9L589.2,371.9l-0.1,0L589.2,371.9L589.2,371.9z M589.6,374.8l-0.1,0L589.6,374.8
	L589.6,374.8z M591.3,362.2l-0.2-0.1l0,0.2L591.3,362.2z M592.1,366.6L592.1,366.6L592.1,366.6l0.1,0l0-0.1l0,0l0,0L592.1,366.6
	L592.1,366.6z M592,362.5L592,362.5L592,362.5l0.1-0.1L592,362.5l0-0.1L592,362.5L592,362.5L592,362.5z M591.9,366.3l-0.1-0.1
	l0.1,0.2L591.9,366.3z M591.9,366.8l-0.2-0.2l0,0.3L591.9,366.8z M591.5,373.5l-0.1-0.2l-0.1,0.2L591.5,373.5z M589.1,371.7l0-0.1
	l-0.1,0.1l0,0.1L589.1,371.7z M586.6,376L586.6,376L586.6,376L586.6,376z M584.3,360.7L584.3,360.7L584.3,360.7l0.1-0.1L584.3,360.7
	l0-0.1L584.3,360.7L584.3,360.7L584.3,360.7z M586.6,375.4l-0.1,0.2l0.1,0L586.6,375.4z M585.4,370.1l-0.2-0.1l0,0.1L585.4,370.1z
	 M585.3,370.3L585.3,370.3L585.3,370.3L585.3,370.3z M585.7,370.3l-0.1-0.1L585.7,370.3L585.7,370.3z M588,373.6L588,373.6
	L588,373.6l0.1-0.1L588,373.6l0-0.1L588,373.6L588,373.6L588,373.6z M588.2,371.2l-0.2,0.2l0.1,0L588.2,371.2z M587.7,373.1
	L587.7,373.1l-0.1-0.1L587.7,373.1L587.7,373.1z M587.5,357.5L587.5,357.5l0.1,0l0-0.1L587.5,357.5l0-0.1L587.5,357.5L587.5,357.5
	L587.5,357.5z M587.3,356.6L587.3,356.6L587.3,356.6l0.1-0.1L587.3,356.6l0-0.1L587.3,356.6L587.3,356.6L587.3,356.6z M611.7,371.7
	l0,0.1l0.1,0L611.7,371.7z M600.7,356L600.7,356L600.7,356l0.1-0.1L600.7,356l0-0.1L600.7,356L600.7,356L600.7,356z M609.1,368.8
	l-0.3,0.5l0.5,0.1L609.1,368.8z M609.4,355.8L609.4,355.8L609.4,355.8l0,0.2l0.1,0L609.4,355.8L609.4,355.8l0.1-0.1L609.4,355.8
	l0-0.1L609.4,355.8L609.4,355.8L609.4,355.8z M601.7,379.7l0.2,0l0-0.1L601.7,379.7z M609.6,355.6l0.2,0.2l0-0.1L609.6,355.6z
	 M609.6,355L609.6,355L609.6,355l0.1,0l0-0.1l0,0l0,0L609.6,355L609.6,355z M606,351.9L606,351.9L606,351.9l0.1-0.1L606,351.9l0-0.1
	L606,351.9L606,351.9L606,351.9z M601.5,381.2l0.1-0.1l0-0.1L601.5,381.2z M597.5,367.9l-0.3,0L597.5,367.9L597.5,367.9z
	 M601.6,367.4l0.3-1.7l-0.3-1l-0.5-0.5l-0.8,0.1l-0.9,0.5l-0.4,0.6l-0.2,0.7l-0.3,0.7l-0.9,0.6l0,0.2l-0.1,0.1l-0.1,0.1l3.1,0.1
	L601.6,367.4z M598.1,352.4l-0.3,0.3l0.4,0.4L598.1,352.4z M592.3,361.9l-0.1,0l0,0.1l0,0L592.3,361.9z M610.6,355.1L610.6,355.1
	L610.6,355.1l0.1-0.1L610.6,355.1l0-0.1L610.6,355.1L610.6,355.1L610.6,355.1z M610.5,354.8l-0.1-0.2L610.5,354.8L610.5,354.8z
	 M611.4,371.7L611.4,371.7l0-0.1L611.4,371.7L611.4,371.7L611.4,371.7z M612.2,374.6l-0.3-0.1l0.1,0.3L612.2,374.6z M605.7,356.8
	l-0.4-1.1l-0.2,0.5l0.4,0.5L605.7,356.8z M601.9,380L601.9,380l-0.2-0.2l0,0.1L601.9,380z M610.2,355.7l-0.2-0.1l0,0.2L610.2,355.7z
	 M609.3,369.8l0.2,0.4l0.5-0.9l-0.4,0.1L609.3,369.8z M453,550.9l-0.2-0.6l-0.2-0.3l-0.7-0.1l-0.9-0.1l-0.8-0.2l-0.7-0.1l-0.7,0.3
	l-0.9-0.7l-0.3-0.9l0-1l-0.2-1.1l-0.4-0.6l-0.6-0.5l-0.8-0.3l-0.4-0.2l-0.5-0.4l-0.7,0.4l-2.5,0.2l-1.2,0.6l-0.7,1.1l-0.8,2.4
	l-0.6,0.8l2.4,1.2l1,0.3l1.2,0l1.8-0.6l1-0.2l1.5,0.7l1.3,3.3l1.4,0.7l0.6,0l0.6,0.3l0.5,0l0.2-0.1l0.7-0.6l0.2-0.1l0.8-0.3l0.6-0.7
	l0.2-0.9l-0.5-0.9L453,550.9z M432.6,534.7l-0.5-0.4l-1.3,0.5l-0.7,0.1l-0.6-0.4l-1.5,1.4l-0.1,0.6l0.1,0.4l0.3,0.4l0.6,0.6
	l-0.4,0.1l-0.8,0.4l5.7-0.5l-0.4-1.9L432.6,534.7z M602,363.1l0-0.1L602,363.1L602,363.1L602,363.1z M602.8,362.5L602.8,362.5
	L602.8,362.5L602.8,362.5z M602.3,362.2l0-0.1l-0.1,0l0,0.2L602.3,362.2L602.3,362.2z M598.7,380.4L598.7,380.4l-0.1-0.2l-0.1,0.1
	L598.7,380.4z M602.7,362.3L602.7,362.3L602.7,362.3l0.1-0.1L602.7,362.3l0-0.1L602.7,362.3L602.7,362.3L602.7,362.3z M602.7,363.1
	l-0.1,0L602.7,363.1L602.7,363.1z M598.1,379.5L598.1,379.5L598.1,379.5L598.1,379.5z M602.5,362.3L602.5,362.3L602.5,362.3
	L602.5,362.3z M598.2,379.9L598.2,379.9L598.2,379.9L598.2,379.9l0.1-0.1L598.2,379.9l0-0.1L598.2,379.9L598.2,379.9z M595.8,360.4
	l-0.1-0.1L595.8,360.4L595.8,360.4z M596,360.4l0,0.1l0.1,0L596,360.4z M595.8,360.9L595.8,360.9l0.1-0.1l-0.2,0L595.8,360.9z
	 M597.1,378.7L597.1,378.7L597.1,378.7l0.1-0.1l0,0l0,0L597.1,378.7L597.1,378.7L597.1,378.7z M597.1,378.9l-0.1-0.1L597.1,378.9
	L597.1,378.9z M598,379.5l-0.1,0.1l0.1,0.1l0,0l0,0l0.1,0L598,379.5L598,379.5L598,379.5z M603.9,350.7L603.9,350.7l-0.1-0.2
	l-0.2,0.1L603.9,350.7z M603.7,362.7l0-0.1L603.7,362.7L603.7,362.7L603.7,362.7z M603.5,362.4L603.5,362.4L603.5,362.4L603.5,362.4
	z M604.5,353.4L604.5,353.4l-0.1,0.1l0.1,0L604.5,353.4z M602.1,341.3l-0.1-0.1l-0.1,0.2l0.1,0.1L602.1,341.3z M600.7,380.8l0-0.1
	L600.7,380.8L600.7,380.8z M604.1,351.3L604.1,351.3L604.1,351.3L604.1,351.3l0.1-0.1l0,0l0,0L604.1,351.3L604.1,351.3z
	 M603.5,362.3L603.5,362.3l0,0.1L603.5,362.3z M603,354.4l-0.1,0l0,0.1l0.1,0L603,354.4z M599.9,380.9l-0.1,0.1l0.1,0.1l0,0l0,0
	l0.1,0L599.9,380.9L599.9,380.9L599.9,380.9z M600.1,320.8l0.2-0.2l-0.3,0.1L600.1,320.8z M601.8,324.7L601.8,324.7L601.8,324.7
	l0.1-0.1L601.8,324.7l0-0.1L601.8,324.7L601.8,324.7L601.8,324.7z M600.1,316.2L600,316l-0.1,0.3l0.1,0.1L600.1,316.2z M562.7,281.1
	l-0.2-0.1L562.7,281.1L562.7,281.1z M604.1,315l-0.2-0.3L604.1,315L604.1,315z M605.8,316l-0.3,0l0.2,0.2L605.8,316z M379.2,283.8
	l0,0.2l0.3,0.2l0.2,0.2l0.2-0.2l0-0.5l-0.3-0.2L379.2,283.8z M606.8,317.7l0-0.3l-0.2,0.2L606.8,317.7L606.8,317.7z M351.3,278.9
	l0.8-0.1l1.5-0.7l0.9-0.3l1.1,0l-0.2-0.7l0.5-1l-0.4-0.4l-0.7,0l-0.8,0.2l-0.8,0.2l-0.9-0.3l-3.1,1.8l-0.2,0.9l0.9,0.3L351.3,278.9z
	 M603.7,318.1l-0.2,0.2l0.1,0.1L603.7,318.1z M378,285l0.3,0.2l0.3-0.3l-0.2-0.5l-0.1,0.3L378,285z M607,321.6L607,321.6L607,321.6
	l0.1-0.1L607,321.6l0-0.1L607,321.6L607,321.6L607,321.6z M606.4,322l0-0.2l-0.1,0.1L606.4,322L606.4,322z M322.2,443.4l-0.9,0.1
	l-1.6,0.4l-0.6-0.1l-0.7-0.2l-0.5,0.4l-0.7,1.2l-0.1,1.1l1.3,0.7l2.8,0.8l0.9-0.9l-0.8-2.3l1-0.5L322.2,443.4z M609.9,320l-0.1-0.2
	l0,0.2L609.9,320z M316.6,449.3l0.4,0.7l0.2,0.3l-0.4,0l0,0.4l0.3,0.2l0.3,0.1l0.7,0.1l1.3-0.3l0.6-0.9l0.1-0.9l-0.2-0.4l-1.8,0
	l-0.8,0.1l-0.9,0.4L316.6,449.3z M609.6,319l-0.1-0.1L609.6,319L609.6,319z M608.7,325.1L608.7,325.1L608.7,325.1l0.1-0.1
	L608.7,325.1l0-0.1L608.7,325.1L608.7,325.1L608.7,325.1z M608.6,318.2l-0.3,0l0.1,0.2L608.6,318.2z M609.2,318.5L609.2,318.5
	L609.2,318.5l0.1-0.1L609.2,318.5l0-0.1L609.2,318.5L609.2,318.5L609.2,318.5z M521.5,191.1l0.5,0l0.5-0.2l-0.4-0.2l-0.4-0.1
	l-0.4-0.1l-0.4,0l0.3,0.3L521.5,191.1z M564.4,277.3L564.4,277.3L564.4,277.3L564.4,277.3z M563.9,275.3L563.9,275.3L563.9,275.3
	l0.1-0.1L563.9,275.3l0-0.1L563.9,275.3L563.9,275.3L563.9,275.3z M563.6,275.1L563.6,275.1l-0.1,0L563.6,275.1L563.6,275.1z
	 M564.6,277.2L564.6,277.2L564.6,277.2L564.6,277.2z M563.4,282.3l-0.1,0l0.1,0.2L563.4,282.3z M565.1,277.9l0-0.1l-0.1,0
	L565.1,277.9L565.1,277.9z M565,277.4l0-0.1L565,277.4L565,277.4L565,277.4z M564.7,276.8L564.7,276.8l0,0.1L564.7,276.8z
	 M410.2,254.7l1-0.8l1.2-0.4l0.6-0.3l0.4-1.1l1.1-0.5l0.4-0.4v-0.4l-0.6-0.2l-2.1,0.2l-0.7,0.4l-0.9,0.8l-0.7,1l-0.9,1.9l-0.6,0.9
	l0,0.8L410.2,254.7z M523.4,191.3l0-0.4l-0.4,0l0,0.3L523.4,191.3z M565.3,277.7L565.3,277.7L565.3,277.7l0.1-0.1L565.3,277.7l0-0.1
	L565.3,277.7L565.3,277.7L565.3,277.7z M370.6,266l1.3-1.4l0.8-0.6l1.1-0.4l2.1-0.6l1-0.5l2.5-1.8l3.8-2.1l0.9-0.4l0.5-0.1l1,0.1
	l0.5,0l0.3-0.2l0.8-0.6l0.4-0.2l1-0.2l2.3-0.1l1.1-0.2l0.9-0.4l-0.5-0.1l-2.2,0.1l-3.1-0.6l-1,0.1l-4.6,1.2l-1.4,0.7l-3.6,2.3
	l-3.1,1.4L371,263l-1.7,1.7l0.4,1.8L370.6,266z M562.8,281.4L562.8,281.4L562.8,281.4L562.8,281.4l0.1,0.1l0-0.1l0,0l0-0.1l0,0l0,0
	L562.8,281.4L562.8,281.4z M562.8,281.2L562.8,281.2L562.8,281.2L562.8,281.2z M560.7,270.8l-0.1-0.2L560.7,270.8L560.7,270.8z
	 M561,271l-0.2-0.2L561,271L561,271z M382.6,914.9l-0.8,0.2l-0.8,0.6l-0.7,0.6l-0.7,1.4l1.1-0.2l1.2-0.4l0.7-0.9l0-0.8L382.6,914.9z
	 M479.6,631.2l-1.8-0.4l-1.9-0.2l-0.5,0.1l-1.1,0.5l0.9,1.5l0.6,0.5l1.1,0.4l1,0l1-0.2l0.9-0.3l0.7-0.3l0-0.4l-0.6,0.1l-0.5-0.1
	L479,632l-0.6-0.1l-0.3,0l-0.6-0.3l2.1-0.1L479.6,631.2z M284.1,174.6l0.5-0.2l-0.6-0.1l-0.9-0.1l0.4,0.5L284.1,174.6z M285,182.7
	l-0.3,1l0,1l0.3-0.9L285,182.7z M278.2,184.7l-0.3,0.4l-0.1,0.2l0,0.3l1.9-0.2l1.8-0.6l1.3-1.2l0.5-2l-0.7,0.3l-3.2,2.3L278.2,184.7
	z M284.5,189.1l-0.6-1.4L283,187l0.8,3.3l0.6,1.4l0.3,0.6l0.4,0L284.5,189.1z M283.4,233.2L283.4,233.2l-0.3-1l0.1,0.8L283.4,233.2z
	 M284.8,202.7l-0.5-0.8l-0.4,0.3l0.1,0.4l0.4,0.6L284.8,202.7z M283.9,233.1l-0.4,0.2l0,0l0.1,0.4L283.9,233.1z M279.4,194.8
	l-0.1-0.2l-0.5-0.3l-0.4,0.1l0.1,0.5l0.3,0.3l0.4,0.4L279.4,194.8z M284,231.4l-0.4,0.5l0.1,0.7l0.1,0.3l0.3-0.7L284,231.4z
	 M277,192.9l-0.1,0l0.1,0.3l0.1,0.4l0,0.3l0.1-0.1l0.1,0l0.2-0.2l0-0.3l-0.2-0.4L277,192.9z M279,273l-0.1-0.2L279,273L279,273z
	 M275.4,280L275.4,280v-0.2l-0.2,0.1L275.4,280z M249.6,274.9l-0.4,0.5l0,0.3l-0.3,0.1l0.2,0.2l0.3,0.2l0.2-0.3l0.1-0.2l0.3-0.3
	l-0.4-0.3l0.1-0.1L249.6,274.9z M271.3,276.8l-0.1,0.1l0.1,0.1l0,0l0,0l0.1,0L271.3,276.8L271.3,276.8L271.3,276.8z M272.6,255.5
	l0.1,0l0.2-0.1l0.6-0.1l-0.2-0.3l-0.5,0L272.6,255.5z M279.3,246l0.2,0.2l-0.1-0.8l-0.2,0.2l0.1,0.2L279.3,246z M277.7,191.9
	l-0.1-0.5l-0.3,0.3l-0.3,0.7l0,0.5l0.3-0.3l0.3-0.5L277.7,191.9z M283.4,214l-0.4-0.2l-0.2,0.5l0,0.5l0.1,0l0-0.1l0.3-0.3L283.4,214
	z M285.9,180.8l-0.2-1l0.1-1.1l0.2-0.6l-0.3,0l-0.3,0.6l0,0.7l-0.1,0.6l0.3,0.3l0,0.4l-0.2,0.3l-0.3-0.1l-0.2,0.6l0.1,0.3
	L285.9,180.8z M293.6,153.9l0.2-0.6l0-0.3l0-0.2l-0.2-0.1l-0.2,0l-0.2,0l0,0.1l0.1,0.3l0,0.1l-0.2-0.1l-0.2,0.4l-0.1,1l0.3,0.3
	L293.6,153.9z M289,170.5l1.8-1.8l1.1-2.4l0.4-2.6l-0.4,0l-0.1,0.5l-0.1,0.4l-0.5,0.8l-0.5-0.8l0-0.4l0.5-0.3l0.3-0.3l0.2-0.5
	l0.1-0.6l0.4,0.2l0.4,0.3l0.5-1.1l1.1-3.3l0.4-0.7l0.7-0.7l0.1-1.3l-0.6-0.8l-1.2,0.9l-0.9-0.4l-0.5,0.6l-0.8,3.2l0,0.6l-0.1,0.5
	l-0.3,0.3l-0.3,0.2l-0.1,0.3l-1,3.8l-0.2,1.9l0.9-0.1l-0.3,1.6l-0.7,1.1l-2.1,1.6l-0.2,0l-0.6,0l0,0.4L289,170.5z M299.8,205.1
	l-1.1-2.9l-0.7-1.1l-0.7,0.7l0.7,0.6l0.2,1.5l0.1,3.6l0.1-0.3l0.1-0.2l0.2-0.2l0.3-0.1l0,0.2v0.6l0.4,0l-0.1-1.4l0.1-0.6
	L299.8,205.1z M288.4,160.9l0.5-0.4l0.1-0.6l-0.2-0.2l-0.3,0.2l-0.2,0L288,160l-0.4,0.6l0.2,0.4L288.4,160.9z M289.4,160l0.2,0
	l0.5-0.4l0.3-0.6l-0.1-0.6l-0.1-0.2l-0.1,0.1l-0.1,0.2l-0.1,0.3l-0.3,0.3l-0.3,0.2l-0.1,0.2l0.1,0.2L289.4,160z M293.8,199l-0.7,0.7
	l-0.4,1l-0.2,2.9l-0.5,2.1l-0.1,1.3l-0.1,0.2l0,0.2l-0.1,0.2l-0.2,0.2l0.9,0.8l0-0.9l0.2-0.8l0.3-0.6l0.1-0.4l0.3-2.7l0.4-1.5
	l0.6-0.8l0.7-0.6l0.6-1l1.2,0.9l0.8-0.6l0.6-1l0.7-1.1l1.1-2.4l0.2-0.9l-0.4-1.2l-0.7-0.6l-0.8-0.2l-0.7,0l-0.5,1.6l0,0.4l0.4,0
	l0.5-0.3l0.6-0.6l0.5,0.8l-0.1,1.3l-0.4,1.2l-0.5,0.5l-0.7-0.1l-0.9-0.3l-0.6,0.1l-1.1,1.3L293.8,199z M316.7,214l0.1-0.1l-0.3-0.2
	l-0.1,0.2L316.7,214z M313.3,213.7l0-0.4l-0.4-0.3l-0.4,1.1l0,0.9l0.2-0.7L313.3,213.7z M301.6,240.9l-0.5,0.4l-0.3,0.4l0.5-0.2
	L301.6,240.9z M283.2,195.3l-1.1-0.8l-0.9-0.3l-0.4,0.3v0.4l0.2,0.2l0.2,0.3l0.3,0.4l0.5,0.2l0.5-0.1l0.1,0.3l0.1,1.2l0.1,0.5l0.4,0
	l0.2-0.5l0-0.4l0.2-0.3l0.1-0.6L283.2,195.3z M287.4,259.6l-0.1-0.2l-0.1,0.2L287.4,259.6z M317.1,198.6l0.3-0.2l0.2-0.4l-0.3-0.5
	l-0.6-0.1l-0.5,0.4l0,0.3L317.1,198.6z M282.9,236.8l0.1,0l-0.2-0.8l-0.2,0.4l0.2,0.3L282.9,236.8z M283.2,207.8l-0.2,0.6v1.1
	l0.2,0.5l0.1-0.1l0.3-0.6l0.1-1l-0.3-0.6L283.2,207.8z M285.1,163.5l-0.1,1.1l0.4-1L285.1,163.5z M286.6,220.9l0.1-0.5l-0.1-0.3
	l-1,0.1l-0.3,0.9l0.4-0.3l0.6,0L286.6,220.9z M285.2,227l0.1,0.1l0.7-0.3l-0.5-0.1L285.2,227z M286.9,225.5l-0.2-0.6l-0.1,0.3
	l0.2,0.3L286.9,225.5z"/>
</svg>
