<?xml version="1.0" encoding="utf-8"?>
<!-- Generator: Adobe Illustrator 20.1.0, SVG Export Plug-In . SVG Version: 6.00 Build 0)  -->
<svg version="1.1" id="Layer_1" xmlns="http://www.w3.org/2000/svg" xmlns:xlink="http://www.w3.org/1999/xlink" x="0px" y="0px"
	 viewBox="0 0 1000 1000" style="enable-background:new 0 0 1000 1000;" xml:space="preserve">
<style type="text/css">
	.st0{fill:#F0EBE5;}
	.st1{fill:#263778;}
	.st2{fill:#FFFFFF;}
	.st3{fill:#CE2028;}
</style>
<path class="st0" d="M956.7,505.6L956.7,505.6l-4.5-2.8l-6.7-9.9l-5.1-2.7l-5.8-0.5l-6.2,0.2l-6.3-0.7l-17.8-6.1l-4.1-3.1l-2.4-4.9
	l-1.5-10.7l-1.5-4.2l-6.8,2.1l-11.5-10.8l-15.4-20.3l-3.9-2.8l-12.4-18.1l-3.4-3.6l-1.9-3.7l-0.9-4.1l-0.2-4.9l-1.5-2l-7-1.2
	l-2.4-1.5l-6.3,3.5l-10.5-10.2l-16.9-20.5l-4-3.1l-50.6-65.4l-19-31.4l-16.1-37.5l-12.9-35.1l-1.5,3.3l-1.1,6.1l-1,3.1l-1-2.2
	l-0.5-1.9l0.3-1.6l1.2-1.3l-3.5,2.2l-2.6,2.3l-2.8,1.8l-4,0.8l7.7-6.5l0.4-8.6l-4.5-21.2l7,17l3.9,4.7l0.6-8.4l-4.8-13.1l-6.8-12.3
	l-5.3-6.1l-1.1-0.1l-1.1-0.1h-0.8h-0.8l-1.6-0.3l-1.9,1.3l0.3,1.3l-0.1,1.3l0.2,11.4l2.4,9.4l-0.8,7.2l-9.3,4.7l-17.3,4.1l-1.4,0.3
	l-17.6,6.6l-5.4,6.3l-1,0.6l-7.2-1.4l-1.8,0.6l-3.7,2.5l-1.3,0.3l-1.3,0.3l-2.5-0.4l-1.8-0.8l-16-12.5l-1.2-4.5l-2.9-2l-3.6,0.6
	l-1.6,1.5l-1.6,1.5l-4.5-1.1l-6.6,4.2l-3.2-3.1H553l-3.1,2.3l-3.1-1.1l-4.9-4.8l-3.2,0.5l-2.1-0.3l-2.1-0.3l-4.1-0.1l-3,2.1
	l-1.4-1.8l-5.8-4.6l-0.6-0.9l-1.1-1.1l-0.5-1.5l1.2-2l1.1-0.7l3.7-1.9l-1-6.4l-2.3-1.9l-2.3-1.9l-5.1-2.5l-2.4-2.6l-2.8-1.9
	l-12.3-4.7l-2.8-2.6l-0.7-1.9l-3.5-4.4l-1.2-1.9l-0.5-3.3l0.1-2.7l-0.6-2l-2.5-1.3l-1.1,0.7l-1.1,0.7l-14.3,9.2l-2.5,1l-2.9-0.3
	l-2.8-1.1l-1.2-0.7l-1.3-0.5l-2.3-1.9l-6-7.4l-1.1-0.8l-1.3-0.7l-1.4-0.5l-1.4-0.4l-13.2-5.8l-6.1-1.9l-5.7,0.3l-4.6-0.7l-10.1-7.1
	l-4.7-2l-8.3,1.9l-47,30.6l-6.2,2.2l-6.1-0.7L284,126.2L250.5,114l-30-10.9l-42.4-15.4l-4.3-2.4l-4.3-2.4l-3.7-3.3l-3.7-3.3
	l-7.6-3.9l-8.8,3.6l-7.5,9.9l-4.8,10.4l-6.4,10.3l2.4,1l3.2,2.4l2.9,3.7l0.7,3.9l-3.2,2.9l-5.3,0.1l-2.8-2.5l-2.4-1.3l-4.1,3.7
	l-1.8,1.3l-1.3,0.3v0.6l2.2,2.3l1.9,1.3l4.5,1.8l1.9,1.4l2.2,3.1l0.9,3.4l-1.1,2.9l-3.9,1.4v2l1.3,1.5l0.3,1.8l-0.7,1.5l-1.7,0.6
	l-2.2-0.5l-2.4-2.3l-1.8-0.8l-5.3-0.3l-5.7,0.8l-2.9,1.9l3,3v1.6l-2,2h-1.7l-3.4-3.1l-1.1-0.5l-0.5-0.8l0.6-2l0.3-2.4l-1.4-2
	l-3.3-0.8l-13.1,0.8v1.8l2.4,0.4l1.2,0.6l0.8,1l1,1.6l-6.3,0.7l-11.2,5l-6,1.5v2l10,1.3l6.9,3l6.1,3.5l7.8,2.9l2.1,0.1l5.1-0.5
	l2,0.5l1.5,1.9l-0.7,1.5l-1.6,0.7l-1.3-0.4l2.1,2.3l7.3,6h1.6l4-2.7l8.8,1.4l8.8,3.9l4,4.6l1.5,17.5l-0.9,9l-4.4,3.5v2h1.8v1.6
	l-3,0.8l-0.1,0.8l-0.7,2.2l0.8-0.5l0.6-0.6l0.4-0.5l0.2-0.2l1.8,1.8l-2.3,0.7l-1.9,1.4l-3.1,3.3v1.7l1.3-0.1l0.3,0.5v0.8l0.3,0.9
	l10.9-10.9l3.4,2.4l1.4,1.7l0.6,2.2l-8,8.2l-3.3-0.3l-1-0.2l-2.4,4.1l-1.4,1.2l-1.5,0.9l-0.9,1.7l0.4,3.5h-1.5l-4.1-0.5l-5.3,2.9
	l-5.2,2.1l-3.7-2.9h-1.8l-2.3,5l-1.9,1.8l-3,0.6v1.8h3.6v1.8l-1.2,0.3l-0.7,0.4l-1.7,1.1l2.8,2.8l4,5l2.2,4.8l-5.6,4.2l-1.9,4.1
	l-2.5,2.8l-4.5-1.8l-2.2,4.4l-3.1,4.5l-4.6,3.6l-2,2.6l3.5,2.1l5.7,7.1l0.6,2.1l-1.5,2.6l-3.7,3.5l1.6,3.3l1.1,4.6l0.9,7.5l10.3,25
	l3.3,5l2.1,7.1l1.6,2.9l27.2,33l2.8,6.7l-1.9,4.9l2.4,3.1l1.8-0.1l1.9-1.2l3-0.1l2.1,1l1.4,1.3l1.7,1l7.2,1.1l15,4.8l0.2-0.5l1-0.9
	l1.5-0.4l1.9,0.8l1,1.2l0.4,0.8l0.6,0.4l1.7,0.1l2.9,0.6l3.6,2.6l2.6,0.6l1.7-0.6l3.8-2.6l2.5-0.6l28.5,10.1l8.8,4.9l6.3,6.9
	l0.2,1.8l-0.1,2.4l0.6,2.1l6.7,2.7l2.5,1.5l1.1,1.2l1.4,3.3l0.1,0.1l22.1,29.7l7.4,15.2h2l3.2-4.1l2.4-4.7l5.8-18.2l1.3-2.1l6.3-3.2
	l1-1.4l1.4-0.4l8.6-4.2l0.6-1l-4.1-5.1l-1.2-2.2l1.9-3.5l4.4,0.4l8.3,4.1l1.1-2.1l1.4-4.9l1.2-1.9l6.2-3.5l1-1.1l1.7-4.7l4.1-2.7
	l4.8-2l3.7-2.5v-1.7l-9.5,0.3l-4.6-0.5l-3.9-1.7l3.2-3.3l2-1.4l2.2-0.7l-3.5-3.3l-3.2-4.5l-0.3-3.8l5.3-1.3v-1.7l-3-2.6l-6.7-4.1
	l-3.1-2.5l-4.8,2l-5.1-0.1l-4.7-1.5l-10.2-5.8l-4.2-1.7l-1.9,0.7l-2-1.1l-16.1-6.5l-6.1-5.3l-4.9-4.3v-1.6l1.9,0.8l2.3,0.7l2.4,0.3
	l2.3-0.2l-0.4-1.8l-0.9-0.7l-2.1,0.9h-1.6l-3.5-6.7l-2.9-3.1l-8.1-2.8l-3.1-3.5l-0.5-3.7l3.5-2.2l-3.1-4.9l-1.6-7.2l-0.7-12.3
	l-1.8-6.5l-7.7-5.5l-1.6-5.4l11.4,7.8l4.6,5.6l-1.5,4.8v1.6l6.6,6.9l4.2,2.9l4.7,1.2l18-0.3l4.8-1.5l3.5,3.1l1,0.5l1.1,0.8l0,0
	l-0.5,1.8l-1.6,2.8l2.4,1.8l1.5-0.2l1.2-1l1.3-0.6l1.7,0.6l2.8,2.5l5.8,2.9l10.9,10.1l4.4,2.3l-1.3,1.2l2.4,2.5l3.4,2.2l1.7,0.4
	l1.2,1.4l8,6.6l6.3,3.4l6.8,2.3l7.5,1.3l8.5,0.4v1.8l-9.2-0.1l-4.2,0.4l-3.3,1.3v2l23.5-2.3l7.6,2.3l-1.4,3.9l1.2,2.6l6.5,5.3
	l-3.7,6.1l-0.5,4l4.3,1.8l3,2.3l10.7,15.8l4.1,4.1l2.1,2.8l0.9,3.2l-0.8,3.8l-1.9,2.9l-1.9,2.2l-1.8,4.5l-4.6,4.5l-1.6,3l0.1,2.4
	l0.7,2.7l0.3,2.9l-1.1,3l4.2-0.2l0.7,1.8l-0.4,2.8l0.9,2.7l2.8,1.8l3,1.1l2.3,1.8l0.9,3.6l1.9,3.9l9.8,6.3l4.4,3.5l-0.6-1.9
	l-0.4-0.8l-0.7-1.1l3.7,0.8l1.2,2.5l1,3.1l3.1,2.6l3.6,0.5l3.5-0.7l3.4-1.1l3.2-0.6l6.8,0.6l35.5,9.8l6.7,0.5l6.9,1.5l10.9,6.4
	l6.9,1.2l-3.5-2.5l-1.6-0.6l-2.3-0.5v-1.8l6.6,2.3l6.9,6l3.8,6.9l-2.8,4.9l4.6,0.8l2.5,2.5l2.2,1.7l3.7-1.5l1,2.1l1.2,1.1h1.5
	l1.7-1.2h1.7l25.5,9.9l3.3,2.5l20.4,9.4l20.8,19.8l5.9,1.5l8,4.1l5.8,5.9l-0.6,6.9l10.6,1.9l7,7l5.4,9l6,7.7l1.8-1.8l4.3,4.7
	l1.3,2.3l7,18.3l-2.7,2.2l-1.9,1.9l-1.4,2.2l-1.2,2.9l0.9,0.9l1.8,1.1l0.5,1.4l-3.2,1.9l3.1,0.2l1.4,0.8l0.9,1.2l1.6,1.3l3.8,2
	l2,1.5l1.6,1.9l-3.3-0.1l-2.5-0.7l-5.1-2.6l0.7,4.6l3.1,2.5l3.5,1.9l1.6,2.7l-1.3,3l-3,2.1l-6.6,3.2l-3.7,4.4l-1.2,4.5l1,2.5
	l3.1-1.4l3.1-3.3l2-1.6l2.9-0.3l5.8,0.7v1.6l-6.5,1.6l-7.3,3.9l-4,4.7l3.3,4.2l-1.7,1.8l-6.5,9.8l-1.8,1.8l-0.8-1.6l-1.3-0.7
	l-2.9,1.1l-4.2,2.5l-1.9,2.1l-8.1,12.3l0.8,8.2l1.7,1.1l5.4,2.2l1.2,0.3l1.5,2.4l23.1,21.3l6.5,8.3l3.5,3.6l3.8,1.8h4.5l16.2-2
	l5.4,0.8l15.3,6.6v-3.3l2.2,2l2.1,1.3l5.1,2.3l-3.6-0.4l-1-0.4l-1.2-1h-1.6l4.3,3.6l9.2,4.4l9.7,3.1l5.9-0.2l2.9-6.6l0.7-9.6
	l-1.6-9.3l-4-5.4v-1.8l1.6-1.8l0.5-2.7l-0.2-6.6l-3.3,2l-3.1-2.9l-3.5-4.2l-3.7-2.2l-4-0.5l-9.9-3l-3.5-1.8l-2.1-2.5l-5.4-8.5
	l-1.2-4.2l-9.3-13.9h-1.6v0.1l-2,1.5l1.3-5.3l3.6-1.3l8.8,1.3l3.6-0.7l1.1-1.6l0.3-1.9l1.3-1.4h2.7l1.8,1.3l1.4,0.2l1.6-3.1l4.4,1.5
	l5.6,1.2l3.7,2.1l-1.1,4.3l1.8-0.1l1.8,0.1l-1.6,5.6l2.5,4l8.4,4.9l3.8-1.9l3.7,1.9l3.1,3.7l2,3.6l4.1-0.8l5.5,0.6l4.8-0.2l2-3.3
	h1.8l1.9,3.1l3.3,3.4l3.8,2.8l3.6,1.5v2l-7.9,3.1L802,770l-0.3-3.6l-0.8-2.1l-2.6-4.3h-1.8l-0.5,1.5l-0.4,0.9l-0.9,1.4l5.3,10.3
	l2,2.2l3.8,1.4l7.7-0.4l3.1,1l-4.2,2.6l-3.3,1l-1.9,1.4l0.1,3.9l1.5,3l8.7,10.7l1.7,4.2l-1.8,4.1l-2.9,3.5l-1.5,2.7l-1.4,0.8
	l-7.8,9.4l9,8.8l33,23.8l6.4,6.7l18.1,30.8l0.7,3.3l-1.2,4.1l-2,4.5l-0.4,4.1l3.6,2.8l0,0l1.5-6.1l1.3-11.9l-14-30.4l-1.2-8.4
	l-1.8-2.7l-4.6-2.4l-2.4-0.3l-3.2,1.3l-1.7-0.1l-1.5-1.2l-2.6-3.8l-1.4-1.5l-7.4-4.3l-2.4-2.6l0.3-3.3l2.4-1.9l12.1-6.7l0,0l4.3-4.1
	l7.4-7l7.6-3.9l7.5-2.3l6.9-3.4l0,0l5.9-7.2l2.5-7.8l0.8-9.3l-1.6-18.5l-2.1-8.1l-3.3-6.9l-4.4-6.2l-8.3-9.2l-2.4-3.5l-1.3-3.8
	l0.3-4l0,0l2.1-2.3l7.9-4.9l2.4-2.8l0,0v-3.6l-2.1-1.3l-1.3-1.2l2.6-3.4l0,0l3.1-2.2l27.4-11.1l7.9-4.8l0,0l3.7-5.9l0.2-0.3
	l-1.1-2.5l-6.8-11.4l-3.6-2.4l-12.1-4.1l-12.2-8.9l-6-2.6l-1.6-0.9l-1.2-1.6l-0.7-2.1l-1-2l-0.6-0.4l-1.3-0.9h-2.4l-5.5,2.3l-2.4,1
	v-3l-1.3-97.1l0.7-5.1l2.2-3.7l0,0l5-1.7l14.1-1.9l3.9-2.2l0,0l0.4-2.2l-1.2-0.7l-1.7-0.5l-1.1-1.5l-1.8-7.3l-3.2-5.7l0.5-2.5l3-4.2
	l0,0l4.4-3.7l0.5-0.4l0,0l4.9-0.5l15.3,6.1l11.1,9.3l2.6,1l2.1-1l2.7,3l3.4,6.4l2.8,3.1l2.6,1.2l4.6,1.4l4.9,0.8l3.5-0.5l0,0
	l1.7-3.4l1.1-10.2l1.9-2.8l0,0l4,0.6l4,2.1l2-0.1l0,0L956.7,505.6z M284,364l-7.8-2.3l-8.5-1.4l-2.2,0.1l-5,1.7l3.7,6.7l2.4,2.4
	l4.6,1.9l4.5,0.5l4.5-0.4l4.1-1l3.2-1.2v-1.6l-2.8,0.1l-2.2-0.6l-1.5-1.2l-2.6-0.6l-1.1,0.1l-2.5-1.3h9.2L284,364L284,364z"/>
<g>
	<polygon class="st1" points="436.4,306 736.4,306 736.4,486 436.4,486 436.4,306 	"/>
	<polygon class="st2" points="436.4,336 736.4,336 736.4,456 436.4,456 436.4,336 	"/>
	<polygon class="st3" points="436.4,366 736.4,366 736.4,426 436.4,426 436.4,366 	"/>
</g>
</svg>
