<?xml version="1.0" encoding="utf-8"?>
<!-- Generator: Adobe Illustrator 20.1.0, SVG Export Plug-In . SVG Version: 6.00 Build 0)  -->
<svg version="1.1" id="Layer_1" xmlns="http://www.w3.org/2000/svg" xmlns:xlink="http://www.w3.org/1999/xlink" x="0px" y="0px"
	 viewBox="0 0 1000 1000" style="enable-background:new 0 0 1000 1000;" xml:space="preserve">
<style type="text/css">
	.st0{fill:#F0EBE5;}
</style>
<polygon class="st0" points="936,480.9 939.4,475.5 932.9,472.9 922.5,464.2 916.5,459.2 914.2,458 909,456 907.1,454.9 
	904.1,450.5 900.4,440.7 896.9,438 891.4,438.2 887.6,441.3 884.6,445.1 881,447.5 877.4,447.8 870.1,446.3 866.4,446.1 
	863.5,447.1 858.7,450.6 857,451.5 854.5,450.7 849,447.3 847.1,446.9 846.1,446.7 840.5,448.2 823.6,456.4 820.5,447.2 
	817.5,443.6 814.4,440.1 811,437.1 807.6,434 804.9,430.9 802.2,427.8 796.8,414 792.5,410.5 782.7,410 763.3,412.3 757.4,412.1 
	748.6,410.2 747.5,410 741.9,409.4 738.3,410.7 738.1,412 738.1,412 738.5,419.3 739.2,420.7 742.6,423.7 743.2,424.6 741.5,429.7 
	739.1,430.3 735.8,429.8 731.3,431.6 728.9,434.2 727.5,436.7 726.2,438.9 723.2,441.7 719.2,443 716.9,443.2 714.7,443.4 
	710.7,444.8 708.1,449.4 706.9,449 705.7,448.5 704.2,448 702.7,447.6 699.8,447.1 697.4,447.3 696.2,448.6 695.9,450.9 695.9,452 
	695.9,453.1 695.5,454.2 692.8,453.9 686.8,451.6 683.3,451.4 668.3,454.6 661.5,457.4 654.6,461.6 644.7,462 644.7,462 644.7,462 
	648,456.8 647.7,450.8 643.7,441.1 642.7,437.5 642.7,437.5 643.4,432.1 644.7,427.6 645,423.2 643.2,419.3 642.7,418.3 
	642.7,418.3 643.5,418.4 644.3,418.5 644.5,418.3 644.8,418.1 644.9,417.2 645.2,416 645.2,416 641.9,412.8 638.3,411.3 
	630.1,410.7 621.9,410.1 593.8,401.4 584.3,400.7 577.8,401.7 577.8,401.7 575.4,402.1 574.8,402.2 572.5,403 572.6,402.5 
	572.7,400.5 571.9,397.4 570.1,394.9 568.7,393.7 567.4,392.6 565.7,392 557.7,391 551.9,387.2 552.1,382 554.3,375.9 554.6,369.6 
	551.9,365.4 550.3,365.5 548.7,365.7 544.9,368 540.5,369.7 524.2,368.5 517.6,369.4 515.2,359 509.6,347.8 501.8,338.3 
	492.6,332.6 486.8,332.5 481.7,334.7 477.2,337.2 473.6,337.9 470.4,335.6 469.2,331.7 468.7,328.3 468.6,326.9 467.9,324.6 
	467.2,322.3 463.8,316.8 460.4,312.8 451,305.8 449.3,302.5 447.8,291.1 445.5,286.5 439.5,283.6 426.9,282.2 422.6,278.6 
	424.1,274.9 424.4,271.2 423.6,267.5 421.7,264.1 419.6,261.3 417.8,259.6 415.6,259.2 412.3,260.1 409.4,263.1 404,273.1 
	402.3,274.7 400.5,276.2 383.4,271.3 373.9,264.8 355,260.8 343.4,255.5 329.3,253.3 323.4,252.4 312.6,244.8 312.2,245.6 
	310.3,248.4 309.8,241.3 306,242.7 297.5,251.2 291.7,252.3 287.5,250.9 283.3,248.7 277.4,248 270.8,250.7 261.6,261.4 256.6,265 
	255.5,258.1 251.4,254.1 246,253.7 240.7,257.4 238.3,263.3 239.9,267.5 242.6,271.2 243.7,275.5 243.7,275.5 241.3,279.2 
	237.6,281.8 235.4,284.9 235.4,284.9 237.7,290.1 245.5,291.1 248,292.2 250.2,294.2 251.2,295.6 253.4,299.6 253.9,301.4 
	254.6,307.1 255.3,309.5 256.9,311 261.6,313.3 262.8,314.8 262.9,320.6 262.9,320.6 260.4,322.9 220.6,332.2 210.8,336.6 
	201.4,343.6 194,351.5 178.1,378.8 177,381.8 177,381.8 177.4,384.7 179.8,390 180.1,390.7 179.9,392.8 174.5,395.6 169,393.4 
	159.4,386.1 152.6,384.4 147.2,384.8 130.7,390.9 126.7,393.4 118.8,401.1 83.1,425.4 77.6,430.2 74.5,435.4 72,440.8 68.6,446 
	64,449.6 53.8,454.9 49.4,459.3 46.4,464.7 44.4,470.6 43.5,476.6 43.5,476.6 43.7,482.4 49.5,499.9 49.5,499.9 82.8,515.9 
	103.8,529.5 104.6,529.9 127.5,541.1 138.7,548.3 143,552 147,556.6 150,562.6 152.8,578.4 157,580.7 169.2,578.8 227.8,584.1 
	232.6,585.4 254.4,591.5 315,594.3 324.6,596.6 337.3,596.6 364.6,602.9 389.8,613.8 407.6,624.4 433.9,640.1 520.6,679.5 
	525.9,681.9 526.1,682 537.6,687.2 633.6,704.6 639.1,707.4 644,711 651.4,714.7 658,715.8 660.6,711.4 653.5,704.6 637.6,699.5 
	607.1,693.4 607.1,690.9 618.2,694.1 623.2,695 630.2,696.2 630.2,693.4 627.1,691.2 622.4,685.6 619.8,683.3 615,680.7 
	611.7,680.2 581.9,683.3 571.4,681 569,682 566.3,681.6 563.5,680.1 561,678.2 565.6,676.2 586.6,675.7 601.7,672.9 607.1,672.9 
	619.4,675.3 623.7,675.7 626.6,677.4 632.7,688.1 639.5,691.6 655.2,695.5 660.6,698.5 662.3,694.6 661.2,690.7 659.1,686.3 
	657.9,681 662.5,683.8 669.5,693.4 675.9,696.2 675.9,698.5 670.8,703.6 669.4,702.6 665.7,701 668,710.1 675.4,714.6 685,714.9 
	693.6,711.4 693.6,708.6 688.4,708.7 684.9,709.7 682,710.2 678.4,708.6 684,706.3 690.6,705.7 704,706.1 702.3,702.3 697.9,696.3 
	696.4,693.4 703.2,698.1 707.7,705.1 707.1,710.9 698.7,711.4 698.7,713.7 704.1,714.9 708.8,716.5 717.8,713.6 752.2,718.8 
	784.3,716.1 787.7,714.8 790.5,713.7 793,713.7 795.6,714.2 805,716 856.2,719.4 869.3,716.5 860.8,710.7 862.1,704.7 869.6,698.9 
	897.2,685.3 904.6,679.7 907.6,671.7 907.7,667.2 907,665.1 900,660.4 887.7,648.9 883.3,647.3 876.5,642.7 879.2,632.2 
	889.6,614.5 892.5,622.5 894.3,625.6 897.3,627.2 926.5,614.2 932.9,607.1 933.8,602.3 933.1,597.4 931.2,592.9 928.3,589.7 
	922.9,587.6 919,588.9 915,590.2 911.2,588.8 909.3,584.6 907.3,580.3 909.5,570.1 918.4,549.1 919.3,542.3 919.3,542.3 919,528.5 
	920.3,522 923.5,517.4 927.3,514 929.1,510 929.1,510 926.7,503.8 928.6,497.7 "/>
</svg>
