<?xml version="1.0" encoding="utf-8"?>
<!-- Generator: Adobe Illustrator 20.1.0, SVG Export Plug-In . SVG Version: 6.00 Build 0)  -->
<svg version="1.1" id="Layer_1" xmlns="http://www.w3.org/2000/svg" xmlns:xlink="http://www.w3.org/1999/xlink" x="0px" y="0px"
	 viewBox="0 0 1000 1000" style="enable-background:new 0 0 1000 1000;" xml:space="preserve">
<style type="text/css">
	.st0{fill:#F0EBE5;}
	.st1{fill:#2B72B9;}
	.st2{fill:#FFFFFF;}
</style>
<path class="st0" d="M938.7,449l-4.6-3.6l-4-5.8l-2.7-6.1l-2.4-9.7l-1.8-2.8l-7.8-5.5L895,408l-16.4-8.2l-1.6-0.5l-1.8-1l-2.1-2
	l-2.4-1.3l-2.5,1.2l-0.9,2.8l2.3,1.3l3.2,1l1.6,1.7l1.3,1l6.5,2.3l2.4,0.3l-0.6,1.5l-0.3,0.6l0.9,1l2.7-1.1l2.2,0.5l4.5,2.6l2.8-1.4
	l1.9,1.7l1.1,2.9l0.5,2.1l0.6,1.5l0.9,0.9l0.9,0.7l0.6,0.9l0.7,1.6v0.5l-6.8,2.4l-1.2,0.7l-0.9,0.9l-1.4,2.2l-0.8,0.9l-2.9,1.2
	l-1.9-1l-1-2.7l-0.3-3.7h-1.1l-0.6,1l-0.3,0.9l0.2,1l0.8,1.3l-0.9,0.7l-1,0.4L883,429l-0.4-1.4l0.2-1.6l0.5-0.7l0.7-0.5l0.7-0.8
	l0.9-2.2l0.8-1.4l0.9-0.6l1.3,0.1l1.6,0.3l1.3,0.5l0.6,0.8l0.8,2.6l1.7,0.7l1.7-1l0.8-2.3v-4.6l-0.3-1.1l-0.5-0.7l-0.1-0.6l0.9-0.9
	v-0.9l-2.6,0.5l-9.8-1.8l-1.1-0.4l-1-0.1l-1,0.6l-0.2,1.2l0.3,3.4l-0.7,0.7l-5.4,0.7l-3.1,0.9l-2.3,1.3l-2.6,4.4l-1.3,0.7l-1.4-2.9
	h-1.1v2L863,425l-1.1,0.1l-1.1-1.1l-0.3-1.5l0.3-5.6l-1.1-4.4l-1.6,0.2l-2.1,1.5l-2.5-0.5v-0.9l0.9-0.4l1.2-1.1l1-0.6l-1.3-1.9
	l-1.5-1.7l-1.8-1.2l-4.3-0.9l-2.6-1.1l-2.1-1.5l-0.9-1.6l-2.2-3.1l-13.5-5.7l-3.4,1.2l-1.5,0.8l-1.1,1.1l1.8,1.3l3.5,4.9l1.9,1.2
	l11.6,4l1.6,0.1l1.4,0.3l0.6,0.8l0.5,1l1.1,1l6.4,3.4l1.9,1.8l-2.3,1.6l-3.4,1.3l-3.5,0.9l-2.7,0.3l-3.2-0.7l-2.5-1.7l-1.9-2.4
	l-1.3-2.6v-0.9l1.7-0.8l1-0.3l1.5,0.1v-1l-7.4,0.9l-2.9-0.5l-2.1-2.5l1.2-2.4l-0.7-2.3l-1.8-2l-2-1.6l1.4,4.4l-1.4,1.4l-3.2-0.8
	l-3.9-2l-2.6-2.6l-2.6-4.2l-1.2-3.8l1.6-1.7l3.2-1.4l-0.9-3.4l-2.5-4l-2-5l-1.4-0.8l-1.4,0.5l-1.4,4.2l-3,1.4l-0.5,2.3h-1l0.3-1.8
	l0.5-1.7V378l-2.8-1l-1-1.2l-1.2-3.4l1.8,0.2l2.6,0.6l1.8,0.1l2.6-0.8l2-0.4l1.7,0.3l1.7,1.8l4.5,8.5h1l0.3-0.5l0.2-0.2l0.2-0.1
	l0.4-0.3l-1.9-2.2l-1.8-2.8l-1-2.6l0.4-1.6l1.1-0.2l1.8,0.1l1.6,0.3l0.7,0.3l-0.3,1l-0.8,0.9l-1.9,1.7l4.2,1.4l1,0.6l2.1-1.4
	l1.1-1.3l1.4-0.9l3.1-0.4l1.9,0.9l2.1,1.7l2,1.2l1.7-0.8h1l5,5.4l1.3,1.9l-0.7,0.2l-0.7,0.5l-0.7,0.3l1.8,1.7l2,0.4h4.6l1.4,0.6
	l2.9,2l4.3,1.4l5.7,4.4l2.6,1l2.2-0.3l1-0.8l-0.1-1.2l-1-1.5l-1.3-0.7l-5.3-0.9l-2.7-1.2l-2.8-1.6l-10.1-8.9l-8.5-6.6l-15.5-14.5
	l-17.6-13.5l-8.6-9.5l-4.8-2.4l-1.2-2.1l-1.2-1.3l-1.9-0.6l-20.5-1.6l-23.9-4.7l-1.9-0.1l-1.1,1.1l1.9,0.9l23,4.3l3,2.1h-7.4
	l-3.5,1.2l0.5,2.9l-7.9,0.4l-3.2-0.8l-1.3-3.2l-0.8-1L739,333l-1.3,2.6l0.3,1.3l-3.1,0.2l-1.1-0.6l-1.5-1.7l-1.1-2.4l-0.7-3.1
	l0.4-2.7l2.8-1.6l-1.3-1l-3.2-1.6l-5.3-1l-25.1-10.3l-17.9-5.1l-6.6,0.2l-3.9,0.1l-13.5,8.6l-4.5,1.7l-5.3,1l-23.9,1l-19.1,1.6
	l-6.3-0.7l-5.6-1.3l-9.7-3.6l-2.2-0.5l-2.3-1l-2.4-1.9l-2-0.9l-1.1,1.7l-0.4,0.3l-0.5,0.3l-0.3,0.5l0.1,1h-1.1l-0.4-1.7v-2l-0.4-1.7
	l-1.7-0.7l-2.4-0.5l-3.7-2.2l-2.1-0.5l-8.4-1.1l-4.2-1.3l-2.5-1.8l-1.7,0.8l-3.3,0.6l-1.2,0.8l-12.6-3.4l-3.9,0.3l-0.7,1.7l4.6,1.1
	l9.6,1.3l2.4,3.1l-1.4,3.7l-3.2,3.4l-5.9,4.2l-1.5,0.8l-1.9,0.5l-21.6,0.8l-5.3,1.2l-5.2,2l-1.7,1.4l-3.7,4l-14.4,8.7l-2.5,1.1
	l-3,0.5l-3.7-0.2l-2.4-0.6l-3.5-2.2l-0.3-0.2l-4.6-1.8l-5-0.1l-29.5,2.5l-6.4-0.5l-0.7-0.5l-1.8-1l-1.9-0.6l-0.8,0.7l-0.6,0.3
	l-2.5,1.9l-0.4,0.5l-2.7,0.4l-9.3,2.7l-5.8,0.6l-5.4-0.4l-16.1-3.6l-14-1.5l-13.6-4.6l-15.6-3.5l-3,0.3l-2.3,1.3l-0.9,2.6l-0.8,0.6
	l-3.9-0.2l-1.5,0.1l-0.7,0.7l-1.5,2.5l-0.8,0.9l-4.9,0.9l-4.6-1.9l-14.1-12.4l-0.8-1.1l-1.3-1l1-2.3l2.9-3.8l-5.2,3.1l-1.6,1.7
	l1.6,1.5v0.9l-2.6-0.2l-6.7-3.9l-2.5-0.9l-2.7-0.3l-1,0.3l-1.2,0.4l-0.9,2.1l-2.7,0.7l-13,0.9l-4.5,1.4l-2.5,1.7l-2.5,0.8l-6.4,0.1
	l-0.5,0.5l0.6,1.1l1.4,1.1l1.7,0.5l0.9,0.7l-0.3,1.5l-1.1,2l-8.8,5.2l-6-0.8l-1.5,0.5l0.8,2.4l-3.7,2.3l-8.8,9.1l-4,1.7l-3.7-1.1
	l-6.9-4.7l-1-0.4l-1.8,0.6l-0.5,1.4l0.1,1.6l0,0l-1,2l-0.9-1.1l-2.6,1.1l-2.2,1.2l-2.4,0.9l-3.2,0.1l-0.8,1.1l-4.6,7.6l-7,6.7
	l-10.4,7.9l-4.9,3.7l0,0L105.7,411l-32.2,24.2l-5.3,2.4l-15.4,5l-4.6,2.3l-0.7,0.6l-0.2,0.2l-0.6,0.4l-1.6,1.3l-1.8,2.7l-2.4,7l0,0
	l3,2.7v4l-1.9,4.3l-2.6,3.6l-3.8,3.1l-1.2,1.8l-0.2,2.9l0,0l0.7,2.1l1.3,2l3,3.6l1.4,2.3l2.9,6.7l1.6,2.1l1.4,1.2l0.7,1l0.2,0.3
	l0.3,2.6l0,0l-0.4,1.2l-1.6,1.7l-0.5,0.9l0,0l0.6,7.6l-0.1,2.7L45,520l-1.8,1.6l-1.7,0.1l-3.8-1.3l-1.9-0.3l-2.6,0.3l-1.1,0.7
	l-0.7,1.2l-1.4,1.6l-4.7,4l-2.1,2.2l-1.5,2.6l-1.2,1.3l-3.4,0.8l-1.5,1l-1,2l-0.3,2.4l0,0l0.3,4.7l0,0l8.2,1.3l4.7,2.2l7.7,1.6
	l3.8,2.6l7,2l0.7-0.6l0.7-0.6l2.2-4.1l1.2-1.2l1.3-0.4l0.9,0.2l0.7,0.7l0.9,1.1l0.8,1.4l0.3,1.5l-0.1,1.5l-0.6,1.5l1.7,1.4l5.2,0.6
	l2.4,1.2l1,1.9l0.6,4.6l0.7,1.4l3.8,2.8l1.4,1.6l1.4,2.2l0.3,0.9l0.3,1l0.1,0.5l0.1,0.8l0.1,0.6l0.3,1l1.3,0.9l1.5-0.3l1.8-1
	l2.1-0.9h2.4l3.7,2.3l3.2,3.9l2.3,4.5l1,4.3l2.7-0.4l6.6,0.5l1.8-0.7l1.6-0.9l0.7-0.1l0.7-0.1l1.1,1.7l0,0l-0.1,2.6l-0.9,2.5
	l-0.1,2.1l2.4,1.5l3.2,0.4l0.7,0.2l1.1,0.9l0.8,1l0.3,1.3l-0.1,1l0.9-0.3l3.9-0.6l3.9,0.3l11.5,3.6l6.7,0.5l1.5,0.6l1.3,1.3l0,0
	l-0.1,0.5v0.4l-0.1,0.1l-0.1,0.1h-0.3H145l0.2,0.4l0.7,1.6l-0.1,1.8l-0.5,1.8l-0.3,2.2l0.4,1.4l1.6,4l0.1,2.4l-1.3,2.1l0,0l4-0.2
	l2.8-1.7l2.8-1.1l6.1-1.3l1.4,0.1l2.4,0.9l1.1,0.1l0.2-0.4v-0.4v-0.4l0.1-0.9l0.5-0.5l1-0.1l1.2,0.2l0.6,0.2l0.6,0.2l0.5,0.2
	l0.5,0.2l1.1-1.9l1.6-0.6l0.9-0.1l0.9-0.1l1.6-0.6l1.2-1.1l0.5-0.9l0.6-1l1-1.1l1.8-0.8l1.3,0.2l1-0.2l0.7-2.1l-0.3-0.4l-1.3-1.2
	l-0.3-0.5l-0.2-3l0.1-0.5l1.5-0.5l2.3,0.2l0.5,0.1l3.6,0.8l2.4,0.1l7.9-0.9l4,0.2l1.7,1.4l2.2,5.6l1.1,1.3l1.1,1.3l1.4,1.2l1.4,1.2
	l1.2,1.4l1.2,1.4l1.3,3.8l6.9-3.4l2.3-0.6l1.2,0.2l2.2,1.4l1,0.3l0.7-0.3l1.9-1.5l1.2-0.4l1.5,0.1l3,0.6l1.5-0.1l1.5-1l1.3-1.5
	l1.5-1.2l2.3-0.1l1.4,1.1l1.5,4l1.2,1.8l0.8,0.5l2.1,0.8l0.9,0.5l2.4,2.1l4.2,3.6l2.7,1l-1.4,2.2l-3,6.9l-0.8,2.5l0,0l1,2.5
	l-0.7,1.6l-1.5,1.4l-1.3,1.9l-0.5,2.7l0.1,5.6l-0.3,2.8l-3.6,8.5l-0.9,4.2l0,0l0.8,1.7l0.8,1.7l1.6,0.6l1.6-0.5l1.6-0.5l2.2,0.8
	l1.2,1.3l0.8,1.8l0.3,2l0,0l-0.4,1.9l-2.6,2.9l-11.9,5.3l2.2,0.8l1,0.2l1.5,0.1l0.5,0.5v1l0.2,1l2.9,0.9l3.5,2.1l2.7,0.5l4.3-1.1
	l4.1-3l2.2-4l-1.4-4.3l1.5-1.7l2.1-1.7l1.9-0.4l0.8,2.3l-0.6,4.3l0.5,1.7l2.1,0.8l-1.7,3.8l-0.3,1.5h1l1.9-1.9l2.7,0.2l3,1.1
	l2.9,0.6v0.9h-2.2v1l1.4,0.6h1.4l2.4-0.6l5.2,0.1l0.9-0.1l1.5-1.2l-0.1-0.8l-0.5-1.1l0.3-2l0.8-1.5l0.8-0.8l2.6-1.8l1.4,1.4l1.2,0.2
	l3.1-0.5l1.4,0.3l1,0.7l2.2,2l0,0l-0.2,1v0.9l0.2,1.3l-4.9,1.9l-2.4,0.6l-2-0.5l-1.1,1l-3,4.2l-1.4,1.1l-2.5,1.1l-1.3,0.8l-1.3,1.4
	l-0.3,1.2l0.5,1.2l1.1,1.4l0.7,0.2l1-0.2l0.9-0.1l0.4,0.6l0.2,0.1l0.9,2.4l3,3.8l2.9,5.3l2.1,6l0.4,5.8h0.9l2.8-0.8l5,0.5l8.8,2.3
	L325,744l-4.6,0.7l-1,0.4l-0.3,2.4l0.2,0.8l1,1.5l2,2.2l2.3,1.3l3,0.6l4.2,0.1v0.9l-2.1,0.8l-1.6,1.1l-1.1,1.5l-0.5,1.9l-1.5,1
	l34.5-2.2l2.2,0.2l3.5,2.1l1.8,0.1l0.8-2.5l3.2-1.5l3.9-2.4l1.7-1.8l3.5-5.4l0.9-0.7l1.1-0.5l1.1-0.5l0.4-0.4l0.4-0.4l0.4-1.5l0,0
	l-0.6-0.5l-0.4-0.2l-0.4-0.2l-0.4-0.9l1.3-8l-0.3-0.4l-1.1-2.4l-0.3-0.9l0,0l0.3-0.4l1.1-4.3l1.1-2l1.2-1.5l7.3-6.1l2-1.3l2.4-0.7
	l2.6,0.2l8.7,4.2l1.4,0.4l1.4-0.4l1.1-0.8l1-0.7l2.1-1.9l1.2-2l0.3-2.3l0,0l-0.9-4.3l-0.2-0.5l-0.2-0.5l-0.5-1l-0.5-1l-1-0.9l-1-0.2
	l-0.9-0.5l-0.6-1.5l0.2-2.2l1.9-4.2l0.2-2.4l-4.9-18.1l-0.1-2.6l0.5-2.4l0.5-2.4l-0.1-2.4l-0.6-1l-1.1-0.8l-0.2-0.1l-0.7-0.5
	l-0.6-0.8l-0.3-1.4l0.4-8l0.1-2.7l0.3-2.1l0.3-0.9l0.7-0.6l1.7-1.2l3.4-1.7l3.2-0.3l6.6,0.8l12.3-2.3l6-0.3l5,2.7l2.7,0.7l2.2-0.7
	l2-1l2.2-0.3l2.4,2.4l0.9,0.6l1.4,0.5l1.1,0.1l7.8-0.5l2.8-0.7l2.3-1.1l1.8-1.9l0.4-1.1l0.4-1.2l1.2-4.5l2.4-3.7l5-5.2l5-5.2
	l5.2-7.9l1.6-1l1.8-0.7l1.8-0.9l1.8-1.8l1.1-1.9l0.6-1.5l0.8-1.3l1.7-1.5l2.1-1.1l11.6-1.7v1.7l-1.6,3.3l0.4,4l10.7,7.6l3.3,4.2
	l1,0.9l2.1,0.7l1.4-0.3l1.4-0.6l2.1-0.1l3.3,1.4l1.8,2.6l1.5,3.1l2.4,2.9l3.3,1.1l3.5-0.1l3.1,0.3l2,2.2l0.4,0.1l1.4-1.2l1.2-2.4
	l0.3-2.3l-0.9-1.8l-2.3-0.7l-0.6-1.3l0.6-2.9l1.5-4.5l0.2-3.3l0.7-0.8l1.6,0.4l2.7,0.2l1.9-0.9l3.1-2.6l1.3,0.4h0.9l-0.1-0.7
	l0.2-0.2h0.4l0.5-0.1l-0.7-1.5l0,0l2.6-0.8l2.7-0.8l1.5-1.5l1.4-2.1l3.3-1.1l0.9-0.1l0.5-0.1l2.4-0.4l2.8-0.9l1.4-2.1l0.3-2.4l0.9-2
	l5.4-1.5l2.6-1.5l2-1.5l2-1.5l1.8-2.1l1.7-2.9l1.2-2.9l1.1-3.9l1.5-2.4l0.9-1.1l0.9-1.1l0.7-0.7l0.7-0.7l0.3-0.1l0.3-0.1l1.6,0.2
	l0.3-0.1l0.3-0.1l0.2-0.2l0.2-0.2l0.4-1.1l1.1-1.3l0.6-1l0.8-0.8l1.4-0.3l3.6-1.7l1.6-0.3h5.7l3.7-0.7l3.8-1.2l3.1-1.8l1.8-2.5
	l-0.2-3.5l-1.9-3l-2.7-2.4l-2.4-1.6l0,0l4.1-3.1l0.2-1l-0.3-2.3l0.2-1l3.5-3.6l0.5-1l0.3-7.6l0.7-4.2l1.2-2.2l2.8,0.7l2.4,2.6
	l2.6,1.9l3.2-1.5l5.4-5.2l1-2.3l0.1-0.3h-3.9l0.9-1.2l3.3-3.1l0,0l-4.3-3l-0.8-1.5l2.4-0.6l0.8-0.4l0.5-0.9l0.8-5.6l1.3-2.4l2.1-1.9
	l0.4-0.3l0.9-0.6l1.3-0.9l2.7-1.9l6.9-6.5l1.2-0.7l1.2-0.7l4.5-0.8l4.5-0.8l4-0.2l3.9,1.2l3.3,2.4l2.2,3.6l0,0l-0.5,0.4l-1.2,1.5
	l-0.1,0.3l3,0.4l0.4,1.8l-0.1,2l3.1,2l1.6,2.5l2.3,5.2l2.8-1.6l2.9,0.3l5.9,2.5l3.4,0.7l11.1,0.3l-0.6,1.1l-0.2,1.5l-0.2,1.5l0,0
	l2.3-0.7l1.6,0.8l1.6,1.3l2.3,0.7l1.7-0.5l3.9-2.1l5.6-1.9l2.8-3.3l1.1-1.9l1.1-1.9l2-2.9l1.5,1.5l1.1,3.9l1.2,0.8l2.3,0.2l3.7,0.8
	l1.7,0.1l3.1-1.6l0.8-3.3l-0.8-7.1l0,0l0.8-1.8l1.9-0.1l2.1,0.7l1.4,0.8l0.6,0.5l0.6,0.5l3.6,3.7l1.8,0.7l2.2-0.2l3.7-1l0.9-0.5
	l0.6-0.7l0.8-0.6l1.4-0.3l1.3,0.2l0.7,0.3h0.3h0.3l1-0.6v-1.1l-1.3-1.3l-1.1-1.4l-1.8-3.6l1.7-1.3l1.1-0.1l3.5,2.1l0.4,0.7l0.6,0.5
	l1.6,0.2l2.5-0.1l0.8,0.4l0.3,1.2l2.6,0.3l15-0.8l-0.8-1.2l0,0v-1.4l0.4-1.7l0.4-1.7l0.9,0.5l0.9,0.5l1.2,1.3l1.2,1.3l1.9,0.5
	l-0.2-0.6l-0.8-1.4l1.1,0.4l0.6,0.2l0.5,0.4l0.9,1.1l1.8-1.6l1.3-0.7l1.3-0.7l3-0.9h1.4h1.4l0,0l-1.2-0.8l-0.7-0.7l-1.1-1.8l8.4-0.5
	l3.1-1.2l-0.3-2.3l0.9-0.1l1-0.1l0.8,0.1l0.8,0.1l1.1,0.7l0.6,1.3h1.1l-1.4-4.3l0,0l0.3-0.8l0.3-0.8l2.8-1.3l3-0.4l3.4,0.2l2.8,0.8
	l1.3,1.6h1.1l0.7-1.9l0.3-2l0.7-1.6l3.7-1.4l3.8-2.9l2.2-0.6l-0.3-0.5l-0.4-1.1l-0.3-0.5l2.2,0.6l0.8,0.4l-0.5-2l0.2-1.8l0.8-0.6
	l1.5,1.3l0.1-2.3l0.2-0.9l0.8-1l-1-1.5l0,0l0.5-0.8l1.5-0.2l2,0.3l0.8,0.7l1.8,2.7l1.4,0.7l3.6-0.4l3.1-1.8l2.4-2.5l1.4-2.6l1.9,1.5
	l1,0.4l1,0.4l0.8,0.5l0.8,0.5l0.8,2l2.3-1.5l2.6-0.2l6.7,0.7l-1.8,0.9l-0.1,0.4l-0.1,0.4l0,0l1.1,0.7l1.8,0.7l0.3-0.1l0.3-0.1
	l3.3,0.1l3.3,0.1l2-0.9l2-0.9l2.1-0.4l5.1,0.3l2.1-0.3L938.7,449z M378.9,292.7l2.1-0.3l4.1-1.6l2.4-0.6l2.8,0.1l-0.4-1.7l1.3-2.5
	l-0.9-0.9l-1.8-0.1l-2,0.6l-2.2,0.3l-2.3-0.8l-8.3,4.1l-0.5,2.3l2.4,0.9L378.9,292.7z M430.5,262.2l3.6-3.3l2.2-1.3l2.8-1l5.6-1.3
	l2.7-1.1l6.6-4.3l10.2-5l2.4-0.9l1.4-0.1l2.6,0.4h1.3l0.9-0.4l2.1-1.3l1-0.5l2.7-0.4h6l2.8-0.4l2.5-0.9l-1.2-0.2l-5.7,0.1l-8.1-1.8
	h-2.7l-12,2.6l-3.8,1.6l-9.6,5.5l-8.2,3.2l-6.5,3.2l-4.6,4.2l1,4.7L430.5,262.2z M538.1,236.3l3.1-0.8l1.6-0.6l1.1-2.8l2.9-1.1
	l1-1.1l0.1-1.1l-1.5-0.5l-5.6,0.2l-2,0.9l-2.4,2l-1.9,2.3l-2.7,4.8l-1.6,2.2v2.1l5-4.5L538.1,236.3z M274.4,714.3l-1.9,0.3l-2.4,0.8
	l0.6,0.8l0.9,1.7l0.6,0.8h-1v0.9l0.6,0.5l0.6,0.3l1.8,0.3l3.4-0.6l1.6-2.2l0.3-2.3l-0.5-1.1L274.4,714.3z M279.3,703l-1.5-0.4
	l-1.8-0.7l-1.4,0.9l-2,2.8l-0.4,2.6l3.2,1.9l7,2.2l2.3-2.1l-1.8-6l2.6-1.2v-0.9h-2.1L279.3,703z"/>
<g>
	<polygon class="st1" points="294,394.1 594,394.1 594,544.1 294,544.1 294,394.1 	"/>
	<polygon class="st2" points="294,444.1 594,444.1 594,494.1 294,494.1 294,444.1 	"/>
	<polygon class="st1" points="436.1,466.5 441,470.1 439.1,475.8 444,472.3 448.9,475.8 447.1,470.1 452,466.5 445.9,466.5 
		444,460.7 442.2,466.5 436.1,466.5 	"/>
	<polygon class="st1" points="477.8,453.2 482.7,456.7 480.8,462.5 485.7,458.9 490.6,462.5 488.7,456.7 493.6,453.2 487.6,453.2 
		485.7,447.4 483.8,453.2 477.8,453.2 	"/>
	<polygon class="st1" points="477.8,478.2 482.7,481.7 480.8,487.5 485.7,483.9 490.6,487.5 488.7,481.7 493.6,478.2 487.6,478.2 
		485.7,472.4 483.8,478.2 477.8,478.2 	"/>
	<polygon class="st1" points="394.4,478.2 399.3,481.7 397.5,487.5 402.4,483.9 407.3,487.5 405.4,481.7 410.3,478.2 404.2,478.2 
		402.4,472.4 400.5,478.2 394.4,478.2 	"/>
	<polygon class="st1" points="394.4,453.2 399.3,456.7 397.5,462.5 402.4,458.9 407.3,462.5 405.4,456.7 410.3,453.2 404.2,453.2 
		402.4,447.4 400.5,453.2 394.4,453.2 	"/>
</g>
</svg>
