<?xml version="1.0" encoding="utf-8"?>
<!-- Generator: Adobe Illustrator 20.1.0, SVG Export Plug-In . SVG Version: 6.00 Build 0)  -->
<svg version="1.1" id="Layer_1" xmlns="http://www.w3.org/2000/svg" xmlns:xlink="http://www.w3.org/1999/xlink" x="0px" y="0px"
	 viewBox="0 0 1000 1000" style="enable-background:new 0 0 1000 1000;" xml:space="preserve">
<style type="text/css">
	.st0{fill:#F0EBE5;}
</style>
<path class="st0" d="M454,729.4l-0.5-1.7l-0.6-1l-2-0.4l-2.7-0.5l-2.2-0.8l-2.1-0.5l-2.1,0.7l-2.5-2.2l-0.6-2.6l0.1-3l-0.5-3.3
	l-1.1-1.7l-1.8-1.4l-2.2-1l-1-0.5l-1.3-1.3l-2.1,1l-7.5,0.1l-3.6,1.5l-2.3,3l-2.9,6.9l-2,2.2l6.8,4l2.9,0.9l3.5,0.3l5.5-1.3l3.1-0.3
	l4.2,2.4l3.4,9.8l3.9,2.2l1.7,0.2l1.8,0.9l1.4,0.2l0.6-0.4l2.3-1.7l0.8-0.4l2.4-0.7l1.9-1.9l0.7-2.5l-1.3-2.7L454,729.4z
	 M857.9,106.8l-2.5,0.4l-2.3,1l-2.3,1l-3.9-0.1l-3.9-0.1l-0.4,0.1l-0.4,0.1l-2.2-0.8l-1.3-0.9l0.1-0.5l0.1-0.5l2.1-1l-7.8-0.8
	l-3,0.2l-2.7,1.7l-0.9-2.3l-0.9-0.6l-0.9-0.6l-1.1-0.4l-1.1-0.4l-2.2-1.7l-1.7,3.1l-2.8,2.9l-3.6,2.1l-4.2,0.5l-1.6-0.9l-2.2-3.2
	l-0.9-0.9l-2.3-0.4l-1.8,0.2l-0.6,0.9v0l1.2,1.7l-0.9,1.2l-0.3,1.1l-0.1,2.7l-1.7-1.6l-1,0.8l-0.2,2.1l0.5,2.4l-1-0.5l-2.6-0.7
	l0.4,0.5l0.5,1.2l0.3,0.6l-2.5,0.7l-4.4,3.4l-4.3,1.6l-0.9,1.9l-0.4,2.4l-0.8,2.2h-1.3l-1.5-1.9l-3.2-1l-3.9-0.2l-3.5,0.5l-3.3,1.5
	l-0.3,1l-0.3,1v0l1.7,5.1h-1.3l-0.7-1.5l-1.3-0.8l-0.9-0.1l-0.9-0.1l-1.1,0.1l-1.1,0.1v0l0.4,2.7l-3.7,1.4l-9.8,0.6l1.3,2.1l0.9,0.9
	l1.4,0.9l0,0l-1.6,0l-1.6,0l-3.5,1.1l-1.6,0.9l-1.6,0.9l-2.1,1.9l-1-1.3l-0.6-0.4l-0.7-0.2l-1.3-0.5l0.9,1.7l0.2,0.8L731,145
	l-1.4-1.5l-1.4-1.5l-1.1-0.6l-1.1-0.6l-0.4,2l-0.4,2l0,1.6l0.9,1.5l-17.5,0.9l-1.5-0.2l-1.5-0.2l-0.3-1.4l-0.9-0.5l-3,0.1l-1.9-0.2
	l-0.7-0.6l-0.5-0.8l-4-2.5l-1.3,0.1l-1.9,1.6l2.1,4.1l1.2,1.6l1.6,1.5v1.3l-1.2,0.7l-0.4,0l-0.4,0l-0.8-0.4l-1.5-0.2l-1.6,0.3
	l-0.9,0.8l-0.7,0.8l-1,0.6l-4.3,1.2l-2.6,0.2l-2.1-0.9l-4.2-4.4l-0.7-0.6l-0.7-0.6l-1.6-0.9l-2.4-0.8l-2.2,0.2l-1,2.1v0l0.9,8.3
	l-0.9,3.9l-3.6,1.9l-2-0.1l-4.3-0.9l-2.7-0.2l-1.3-0.9l-1.3-4.6l-1.7-1.7l-2.3,3.3l-1.2,2.2l-1.2,2.2l-3.2,3.9l-6.6,2.2l-4.6,2.5
	l-2,0.6l-2.7-0.8l-1.8-1.5l-1.9-1l-2.7,0.8l0.3-1.7l0.3-1.7l0.7-1.3l-12.9-0.4l-4-0.8l-6.8-2.9l-3.4-0.4l-3.3,1.9l-2.7-6l-1.8-2.9
	l-3.6-2.4v0l0.2-2.4v0l-0.5-2.1l-3.5-0.4l0,0l0.1-0.3l1.4-1.7l0.5-0.5l-2.6-4.2l-3.9-2.8l-2.3-0.7l-2.3-0.7l-4.6,0.2l-5.3,0.9
	l-5.3,0.9l-1.4,0.8l-1.5,0.8l-8.1,7.6L539,150l-1.5,1l-1.6,1l-2.4,2.2l-1.6,2.8l-0.9,6.5l-0.6,1.1l-0.9,0.4l-2.8,0.7v0l1,1.7l5,3.5
	v0l-3.9,3.6l-1.1,1.4l4.6,0v0l-0.2,0.4l-0.1,0.2l-1,2.4l-6.3,6.1l-3.7,1.7l-3-2.2l-2.8-3l-3.2-0.8l-1.4,2.5l-0.8,4.9l-0.4,8.9
	l-0.6,1.2l-4.1,4.2l-0.2,1.1l0.4,2.7l-0.2,1.1l-4.8,3.6l0,0l2.8,1.8l3.1,2.8l2.3,3.5l0.2,4l-2.1,2.9l-3.6,2.1l-4.4,1.4l-4.4,0.8
	h-6.7l-1.8,0.4l-4.2,2l-1.7,0.4l-1,1l-0.7,1.2l-1.2,1.5l-0.5,1.3l-0.2,0.3l-0.2,0.3l-0.4,0.1l-0.4,0.1l-1.9-0.3l-0.4,0.1l-0.4,0.1
	l-0.8,0.8l-0.8,0.8l-1,1.3l-1,1.3l-1.7,2.8l-1.3,4.5l-1.5,3.4l-1.9,3.4l-2,2.5l-2.3,1.7l-2.3,1.7l-3,1.7l-6.3,1.7l-1,2.3l-0.4,2.8
	l-1.7,2.4l-3.3,1.1l-2.8,0.5l-0.6,0.1l-1,0.2l-3.9,1.2l-1.7,2.5l-1.7,1.7l-3.1,0.9l-3.1,0.9l0,0l0.6,1.9l-0.5,0.2l-0.5,0l-0.3,0.2
	l0,0l0.1,0.8h-1.1l-1.5-0.4l-3.6,3l-2.3,1l-3.1-0.2l-1.8-0.4l-0.9,1l-0.2,3.9l-1.8,5.3l-0.7,3.4l0.7,1.5l2.6,0.8l1,2v0l-0.4,2.7
	l-1.5,2.9l-1.6,1.4l-0.4-0.2l-2.4-2.6l-3.6-0.3l-4.1,0.1l-3.9-1.3l-2.8-3.3l-1.7-3.6l-2.1-3.1l-3.9-1.7l-2.4,0.1l-1.6,0.7l-1.6,0.3
	l-2.5-0.8l-1.2-1.1l-3.8-4.9l-12.5-8.8l-0.5-4.7l1.9-3.8l0-2v0l-13.5,2l-2.4,1.2l-2,1.7l-0.9,1.5l-0.7,1.7l-1.3,2.3l-2.1,2.1
	l-2.1,1.1l-2.1,0.8l-1.9,1.2l-6.1,9.3l-5.8,6.1l-5.8,6.1l-2.8,4.3l-1.4,5.2l-0.5,1.3l-0.5,1.3l-2.1,2.3l-2.6,1.3l-3.2,0.8l-9.1,0.6
	L286,327l-1.7-0.5l-1-0.7l-2.8-2.8l-2.6,0.4l-2.4,1.2l-2.6,0.8l-3.1-0.9l-5.8-3.1l-7,0.4l-14.4,2.7l-7.7-0.9l-3.7,0.3l-4,2l-2,1.4
	l-0.8,0.7l-0.3,1.1l-0.4,2.5l-0.7,12.5l0.3,1.6l0.7,0.9l0.8,0.6l0.2,0.1l1.3,0.9l0.7,1.1l0.1,2.8v0l-0.6,2.8l-0.5,2.8v0l0.1,3
	l5.7,21.2l-0.3,2.8l-2.2,4.9l-0.3,2.5l0.7,1.8l1.1,0.5l1.2,0.3l1.1,1l0.6,1.1l0.6,1.1l0.2,0.5l0.2,0.5l1.1,5v0l-0.4,2.7l-1.4,2.3
	l-2.4,2.2l-1.2,0.8l-1.3,0.9l-1.7,0.4l-1.7-0.5l-10.2-4.9l-3-0.3l-2.8,0.8l-2.3,1.6l-8.5,7.1l-1.4,1.7l-1.3,2.4l-1.3,5l-0.3,0.5v0
	l0.3,1l1.3,2.8l0.3,0.4l-1.5,9.3l0.4,1.1l0.5,0.2l0.5,0.2l0.7,0.6l-0.5,1.7l-0.5,0.5l-0.4,0.5l-1.3,0.6l-1.3,0.6l-1,0.8l-4.1,6.3
	l-2,2.1l-4.5,2.8l-3.7,1.8l-1,2.9l-2.1-0.1l-4.1-2.4l-2.6-0.3l-40.3,2.5l-1.2,0.8l-8.5,4.2l-1.8,2.8l2,1.6l4.6,0.5l9.2-0.2v1.3
	l-18.2,1.1l-7.5-1.6l-5.8-5.6l-0.2-1.1l0.4-2.7l-0.2-1.1l-0.6-0.5l-2.3-1.3l-0.8-0.6l-3.2-4.2l-1.1-0.6l-4.5-3.8l-0.8-0.5l-0.8-0.8
	l-2-0.6l-2.4-0.3l-2,0l0.6-1l0.5-3.8h-1.1l-0.9,6.8l-3.7,3.9l-5.1,3.1l-5,4.3l-3.3,6.1l0,5.2l2.6,4.4l4.3,3.7l20.7,12.2l3.9,3.7
	l2.6,2l1.8,0.3l-0.1-2l-2.5-2.2l-4.7-3v-1.1l3.5,0.9l4,2.1l3,2.4l0.5,1.8v1.1l1.6,1l0.8,0.3v1.1l-2.1-1.1l-0.7-0.5l-0.8-0.8l2.3,4.6
	l19.4,22l0.5-0.9l1.4-1.7l0.5-1l1,3.1l0.8,1.8l1.5,1.5l11,8.4l2.2,0.9l3.4,3.2l4.6,5.7l2.9,2.5l-1.8-6.5h1.1l4,7.4l1.5,1.1l2.4,0.7
	l2.3,1.8l0.3,0.4l4.1,4.4l-3.8-0.7l-4-1.6l-3.5-2.3l-2-2.6l0.4,4.1l12.2,5.4l5.4,5.7l9.9,5.6l2.3,2.7l36.1,21.7l4.4,3.7l1.8,2.7
	l6.2,16.6l6.7,11.3l3.4,4.2l0.7,0.9l4.3,3.3l2,2.1l0.9,2.5l0.6,2.6l3,5.6l2.7,3.8l4.7,4.6l1.8,0.9l1.9,1.6l4.7,10.5l2.3,2.9l1.1,1.3
	l21.1,15.9l2,5.6l2.4,2.7l2.8,2l16.3,7l6.6,6.3l5.5,2.4l0.2,0.5l1.5,4.8l0.7,1.4l2.6,2.3l7.7,4.3l6,6.3l4.7,2.4l5.9,7.1l2.7,2.5
	l6.1,1.7l0.6,0.8l2.7,1.9l0.8,0.4l1.6,1.1l18.8,20.8l3.2,4.7l1.7,6.4l1.4,3.1l2.5,1.4l3.4,0.5l8.8,3.6l4.3-6.8l3.2-6.9l5-6.6
	l5.9-2.4l5.1,2.6l2.5,2.2l2.5,2.2l2.8,1.6l2.9,1.6l28.2,10.3l20,7.3l22.3,8.1l31.4,11.5l4.1,0.4l4.1-1.5l31.3-20.4l5.5-1.3l3.1,1.4
	l6.7,4.8l3.1,0.4l3.8-0.2l4.1,1.3l8.8,3.8l1,0.3l0.9,0.4l0.8,0.5l0.8,0.5l4,4.9l1.5,1.3l0.8,0.4l0.8,0.4l1.9,0.7l1.9,0.2l1.7-0.7
	l9.5-6.1l0.7-0.4l0.7-0.4l1.7,0.8l0.4,1.3l0,1.8l0.4,2.2l0.8,1.3l2.3,2.9l0.5,1.2l1.9,1.7l8.2,3.1l1.9,1.3l1.6,1.7l3.4,1.7l1.5,1.3
	l1.5,1.3l0.7,4.2l-2.5,1.3l-0.7,0.5l-0.8,1.4l0.3,1l0.7,0.7l0.4,0.6l3.9,3.1l0.9,1.2l2-1.4l2.7,0.1l2.8,0.4l2.1-0.4l3.3,3.2l2,0.8
	l2-1.5h1.2l2.1,2.1l4.4-2.8l3,0.7l1-1l1-1l2.4-0.4l2,1.3l0.8,3l10.6,8.3l1.2,0.5l1.6,0.3l0.9-0.2l0.9-0.2l2.5-1.7l1.2-0.4l4.8,0.9
	l0.7-0.4l3.6-4.2l11.7-4.4l12.5-3l6.2-3.1l0.5-4.8v0l-1.6-6.3l-0.2-7.6l0.1-0.9l-0.2-0.9l1.3-0.9l1,0.2l0.6,0l0.6,0l0.7,0.1l0.7,0.1
	l-2.9-1.5l-3.7-0.8l-2.6,0.4l0.7,1.9l-3.1,0.6l-1.4-3.7l-1.3-3.4l-3.2-2l-1.5-1.4l-4.2-6.6l-1.7-4.4l-5.3-8l-3.8-9.2l-5.4-23.2
	l0-17.9l0.9-3l1.6-2.7l5.6-7h1.1l3.8,0.6l2.4-6.2l1.7-8.3l1.8-5.5l1.4-1.3l1.5-0.7l1.7-0.3l2.1,0l1.6-0.6l1.8-2.6l1.4-0.6l0.2-0.4
	l2.4-0.8l2.5-0.5l0.3,0.5l1.4-1.3l0.7-1.1l0.2-1.4l0.1-2.3l-0.4-6.2l-8.2-32.2l-1.7-1.4l-3,0.1l-1.6,0.7l-1,1.8l-1.2,3.4l0.2,1.4
	l0.7,1.1l-0.2,0.8l-2.6,0.3l-1.8-0.2l-1.7-0.6l-1.3-0.9l-1.5-3.4l-2.4-2.7l-2.8-2.5l-2.3-1.5l0.8-1.5l1.5-1.6l1.7-1.3l1.5-0.5l1-0.7
	l3.3-4.2l0.7-0.5l0.9-0.3l1-0.5l0.9-1.1l0.2-1.2l-0.4-1.1l-0.6-1l-0.3-1l0.4-1.3l1.6-3.3l0.4-1.6l-0.1-2.3l-0.4-2.2l-0.7-1.9l-1-1.4
	l-4.3-1.7l-2.2-1.3l1-0.6l7.3,2.2l3.2-0.1l1-3.4l0.3-2.8l2.7-3.8l0.7-3l-0.5-2.3l-1.2-1.9l-3-3h-1.3l-2.3,2.4l-2.8-1.6l-0.3-2.6
	l5.4-0.6l3.3,1.5l3.1,3l2.3,3.4l0.9,3l-1.4,4.1l-2.6,1.7l-1.5,1.9l1.9,4.5l4.4,5.4l1.3,3l-0.7,3.6l1.3-0.5l1.2-0.7l-1.3-3.8
	l-1.3-22.6l3.9-20.9l8.3-16.2l-0.7-1.3l-3.5-0.5l-1.6,0.9l-1.1,2.3l-2.8,9.1l-0.8,1.6l-0.4-1.1l0.2-2l0.9-3.5l0.2-1.8l-0.9-2.7
	l-5.5,1.2l-3.3-1.6l-1.3-3.2l0.6-3.4l1.3-3.6l0.7-3.8l-1.2-7.9l-1.4-1.7l-1.2-0.4l-1.4,0l-2.1-0.4l-1.5-0.1l-0.7,0.4l-0.2-0.2l0-9.2
	l1.3-2.3l3.2-1l7.6-0.8l5.7-2.4l9.4-7.7l5.5-3.2l-1.8-2.8l-0.7-0.8l0.8-1.3l0.4-1.2l0.1-3l-0.3-1.8l-0.7-0.7l-0.8-0.5l-0.7-1.2
	l-0.3-1.2l-0.3-3l0-0.6l-0.4-0.4l-3.9-2l-1.4-3.1l-0.1-3.6l1.6-3.3l3.6-2.1l4.5-0.3l4.7,1.1l3.4,2.8l0.6,4.7l-0.6,1.2l-0.8,0.9
	l-0.7,0.6l-0.3,0.4l-0.3,9.9l-0.6,2.4L789,517v1.3l2.3,5.4l-1.5,8l-4.3,5.5l-6.3-2h-1.1l-0.4,0.6l-0.1,0.1l-0.2,0l-0.6,0.4l0.8,4.4
	l-0.3,11.6l3.9,3.4l1.1,2.4l0.7,2.8l-0.1,2.1l-1.1,1.1l-3.6,2.5l-1.3,1.3l3.5,1.9l4.1-0.6l4.4-1.6l4.3-0.9l5.7-0.2l3.6-1.1l1.8-2.9
	l0.5-5.4l-1.2-4.4l-4.9-6.8l-1.7-5.6l-2.6-5.1l-0.6-1.7v-10.3l5.9-46.6l-3.9-22.9l-5.9-35l-1-2.2l1.3-1.1l-1.3-2.5l-0.3-4.2
	l1.9-22.7l3.1-11.7l3.7-8.8l0-3.4l0.7-4.2l-0.3-8.7l4.2-20.1l6.8-22.3l4.2-16.4l2.4-5.6l3.5-4.9l8.4-5.7l1.2-2.2l0.9-2.9l6.3-7.5
	l14.7-23l4.8-11.1l0.9-6l-0.9-6.9l-8.5-24.2l-1.5-8.4l-1.7-3.3l-0.4-1l-6.9-30.9l-1.6-1.5l-1.3,1.3l0.1,4l-1.5-2.4l-1.9-1.7l-2-0.6
	l-2,1.1l1.5,0.6l3.3,1.9l1.3,1.1l-2.7,3.3l-2.7-0.8l-2.6-2.4l-2.3-1.4l-1.2-1.6l-1.9-7.3l-2.4-1.9l-0.6,0.8l-1.7,1.8l1.9-4.2
	l7.8-9.8l3.5-3.1l2.1-1.3l2.9-1l2.5,0.6l1.1,3.5l0.5,3.6l1.9,4.6l0.1,3.3l-1.4-1.7l-1.8-0.6l-2,0.3l-2.1,1v1.1l1.6,1l0.6-0.1
	l1.4-0.8l0,1.2l-0.2,0.9l-0.3,0.8l-0.6,1v-1.3l-1.5,1.7l-0.5,0.8l-0.4,1.1l6.1-2.4l2.1-1.6l1.4-2.2l0.4-1.7l0.3-3.8l0.5-1.7l0.9-1.3
	l2.3-2.1l0.5-0.8l0.6-2.4l1.6-3l2.2-2.5l2.3-1.1l1.3-2l1.7-3.7l2.1-2.1l2.6,3l1.6-1.7l3.2-1.5l1.3-1.8l-2.5,0.3L857.9,106.8z
	 M343.6,584.9l-1.9,13.2l-1.1,3.6l-1.6,2.4l-5.5,2l-26.8,0.7l-2.6-0.6l-0.5,0.1l-0.4-0.1l-0.6-0.7l-0.2-0.9l0.1-1.2l0.3-1.1l0.5-0.5
	l2.5-0.8l1.8-2.2l1-3.1l0.1-3.6l-2.6-5.9l-5-2l-5.8,1l-4.9,3.2l-2,2.4l-1.7,1.6l-2.1,0l-5.7-3.9l-15.7-6.4l-5.2-2.8l-3.2-4.3
	l-0.6-7.1l0.1-3.6l0.3-1.3l0.8-1.2l1.2-0.7l1.2,0.1l0.9,0.8l0.4,1.5l1.3,1.7l3.3,1.2l4,0.5l3.5-0.3l4.1-2.7l2.6-4l3.1-3.7l5.4-1.6
	l2.6-0.4l4-1.6l3-0.4l3.3-1.1l2.2-2.1l2-1.4l2.9,0.8l1.1-0.8l1.2-0.2l1.3,0.3l1.2,0.7l1.2,9.5l-0.6,1.5l0.6,1.1l5,5l1.6,1.1l1.9,2.7
	l3.2,13l0.3,4.8l3.9-3.6l4.6-5.2l4.9-3.2l4.7,2.4l1.2,3.4L343.6,584.9z M577.3,796.5l-1.5,1.7l-7.6,5.5l-5.6,0.2l-1,0.4l-0.9,0.7
	L556,807l-1.7,0.4l-3.6-0.7l-2.8-3.3l-3.9-0.8l-2.9-0.2l-31.7-7.2l-2.8-0.1l-2.9,0.6l-2.9,0.2l-4.1-1.9l-2-0.1l-3.8,0.2l-1.5-0.8
	l-3.5-3.8l-1.8-1.5l-6.5-2.2l-6.1-1.4l-7.3-0.6l-15.6-5.5l-2.5-1.8l-2.1-2.1l-2.1-1.6l-4.8-2.9l-2.7-1.2l-3-0.8l-5.8-0.6l-21.6-21.2
	l-3.2-5.4l-4.8-18.1l-1.2-2.9l-5.4-9.2l-2.9-2.5v2.5l-1.4-1.2l-0.9-1.4l-0.4-1.6l0.1-1.8l0.9,0.5l1.7,0.3l1,0.4l-2.3-10.4l-1.4-2.9
	l0.9-0.9l0.2-0.8l-0.4-0.9l-0.7-1.1h-1.2l-0.1,2.2l0.3,1.8l1.1,3.3l-2.5-1.8l-5.9-6.1l-1.2-2.3l0.5-1.6l1.2-1.8l1.4-1.4l2.8-1.5l0-2
	l-1.2-3.2l0.1-8.2l-1.2-4.4l-3.2-1.9l-2-1.7l1.5-3.1l2.5-1.3l1,3.7h1.2l-1.8-5.2l-1.7-1.5l-3.2-0.6l-1.2-1.4l-0.2-3.3l0.3-3.6
	l0.5-2.4l2-5.5l5.6-11l3.3-4l4.8,1.4l4.7-1.1l3.9-2.5l3.5-1.7l0.1,0.3l2.7,2.1l11.7,6.3l4.1,1.5l1.4,1l0.6,1.9l0.8,1l1.8,0.3l2-0.2
	l1.4-0.6v1.2h1.1l4.1-2.8l5.6,4.2l7.9,9.4l1.3,1.1l3.4,5.2l2,4.7l8.5,8.4l3.9-3.8l7.5,1.5l7.8,3.8l4.8,3.2l1.5,2.2l1.2,2.8l1.6,2.5
	l2.6,1l2.1,0.3l1.4,0.9l2.5,2.9l1.4,0.8l3.8,0.7l1.4,0.4l6.9,10.4l6.5,7.7l0.4,0.7l0.4,1.3l0.4,0.6l0.6,0.4l1.4,0.4l0.5,0.3l3,2.8
	l1.3,1.7l1.4,4.6l2.1,2.1l4.4,3.3l7,8.5l4,2.5l5.8,8.3l1.5,0.8l1.1,0.2l1,0.3l1.2,1.2l0.6,1.4l0.4,1.8l0.2,3.4l0.9,3.6l2.1,2
	l2.4,1.8l1.8,2.8l-0.4,0.7l-1.1,0.6l-0.6,0.9l1,1.6l2.1-0.4l1.7,0l1.6,1.1l5,5l1.7,2.5l1.1,4.1v13.9l0.6,3.8l2.2,5.8L577.3,796.5z
	 M830.1,219.4l4.3,1.4l1.8,1l1.1,1.3h1.3l-0.9-1.3l-2.4-2.2l-0.5-0.9l0.5-2.2l1.2-0.1l1.4,1.1l2.9,3.2l1.7,2.5l0.8,2.5l-1.1,2.2v1.1
	l2.1,2.4l1.3,3.3l0.2,3.5l-1.1,3l-2.6,2.1l-1.7-1.1l-1.7-2.5l-2.5-2.1l-0.8,0.9l-0.8,0.1l-2-1l-0.8-2.3l-0.2-1.1l0-1.4l0.4-1.5
	l0.8-1l0.8-0.7l0.4-0.5l-0.1-3.1l-0.9-2.1l-2.8-3.2V219.4z M396.5,678l-1.3-1.4l-4.1,1.2l-2.1,0.2l-1.7-1.4l-4.8,3.7l-0.4,1.7
	l0.2,1.3l0.9,1.3l1.7,1.8l-1.1,0.1l-2.5,1l17-0.6l-0.8-5.8L396.5,678z M937.2,209.8l-1.6-1.4l-2.3,0l-2.9,1.4l-1.3,1.7l-0.6,2
	l-1.1,2l-2.8,1.5l0.1,0.7l-0.2,0.4l-0.4,0.2l9.4,0.8l3.2-1.4l1.2-4.9L937.2,209.8z M881.2,603.5l-1.7,3.1l0.3,3.9l5.1-5.5l0.7-1.2
	l-2-1.6L881.2,603.5z M924,218.3L924,218.3l-0.7-0.1L924,218.3z"/>
</svg>
