<?xml version="1.0" encoding="utf-8"?>
<!-- Generator: Adobe Illustrator 20.1.0, SVG Export Plug-In . SVG Version: 6.00 Build 0)  -->
<svg version="1.1" id="Layer_1" xmlns="http://www.w3.org/2000/svg" xmlns:xlink="http://www.w3.org/1999/xlink" x="0px" y="0px"
	 viewBox="0 0 1000 1000" style="enable-background:new 0 0 1000 1000;" xml:space="preserve">
<style type="text/css">
	.st0{fill:#F0EBE5;}
	.st1{fill:#003976;}
	.st2{fill:#FFFFFF;}
	.st3{fill:#FFCF46;}
	.st4{fill:#EF3E42;}
	.st5{fill:#B3D2EF;}
	.st6{fill:#4E2F91;}
	.st7{fill:#009CDC;}
	.st8{fill:#00AD8E;}
	.st9{fill:#FFF200;}
	.st10{fill:#FAAB54;}
	.st11{fill:#ED1B2E;}
	.st12{fill:#FFE01B;}
</style>
<path class="st0" d="M450.9,731.9l-0.5-1.7l-0.6-1l-2-0.4l-2.7-0.5l-2.2-0.8l-2.1-0.5l-2.1,0.7l-2.5-2.2l-0.6-2.6l0.1-3l-0.5-3.3
	l-1.1-1.7l-1.8-1.4l-2.2-1l-1-0.5l-1.3-1.3l-2.1,1l-7.5,0.1l-3.6,1.5l-2.3,3l-2.9,6.9l-2,2.2l6.8,4l2.9,0.9l3.5,0.3l5.5-1.3l3.1-0.3
	l4.2,2.4l3.4,9.8l3.9,2.2l1.7,0.2l1.8,0.9l1.4,0.2l0.6-0.4l2.3-1.7l0.8-0.4l2.4-0.7l1.9-1.9l0.7-2.5l-1.3-2.7L450.9,731.9z
	 M854.8,109.3l-2.5,0.4l-2.3,1l-2.3,1l-3.9-0.1l-3.9-0.1l-0.4,0.1l-0.4,0.1l-2.2-0.8l-1.3-0.9l0.1-0.5l0.1-0.5l2.1-1l-7.8-0.8
	l-3,0.2l-2.7,1.7l-0.9-2.3l-0.9-0.6l-0.9-0.6l-1.1-0.4l-1.1-0.4l-2.2-1.7l-1.7,3.1l-2.8,2.9l-3.6,2.1l-4.2,0.5l-1.6-0.9l-2.2-3.2
	l-0.9-0.9l-2.3-0.4l-1.8,0.2l-0.6,0.9l0,0l1.2,1.7l-0.9,1.2l-0.3,1.1l-0.1,2.7l-1.7-1.6l-1,0.8l-0.2,2.1l0.5,2.4l-1-0.5l-2.6-0.7
	l0.4,0.5l0.5,1.2l0.3,0.6l-2.5,0.7l-4.4,3.4l-4.3,1.6l-0.9,1.9l-0.4,2.4l-0.8,2.2h-1.3l-1.5-1.9l-3.2-1l-3.9-0.2l-3.5,0.5l-3.3,1.5
	l-0.3,1l-0.3,1l0,0l1.7,5.1h-1.3l-0.7-1.5l-1.3-0.8l-0.9-0.1l-0.9-0.1l-1.1,0.1l-1.1,0.1l0,0l0.4,2.7l-3.7,1.4l-9.8,0.6l1.3,2.1
	l0.9,0.9l1.4,0.9l0,0h-1.6h-1.6l-3.5,1.1l-1.6,0.9l-1.6,0.9l-2.1,1.9l-1-1.3l-0.6-0.4l-0.7-0.2l-1.3-0.5l0.9,1.7l0.2,0.8l-2.6-0.8
	l-1.4-1.5l-1.4-1.5l-1.1-0.6l-1.1-0.6l-0.4,2l-0.4,2v1.6l0.9,1.5l-17.5,0.9l-1.5-0.2l-1.5-0.2l-0.3-1.4l-0.9-0.5l-3,0.1l-1.9-0.2
	l-0.7-0.6l-0.5-0.8l-4-2.5l-1.3,0.1l-1.9,1.6l2.1,4.1l1.2,1.6l1.6,1.5v1.3l-1.2,0.7h-0.4h-0.4l-0.8-0.4l-1.5-0.2l-1.6,0.3l-0.9,0.8
	l-0.7,0.8l-1,0.6l-4.3,1.2l-2.6,0.2l-2.1-0.9l-4.2-4.4l-0.7-0.6l-0.7-0.6l-1.6-0.9l-2.4-0.8l-2.2,0.2l-1,2.1l0,0l0.9,8.3l-0.9,3.9
	l-3.6,1.9l-2-0.1l-4.3-0.9l-2.7-0.2l-1.3-0.9l-1.3-4.6l-1.7-1.7l-2.3,3.3l-1.2,2.2l-1.2,2.2l-3.2,3.9l-6.6,2.2l-4.6,2.5l-2,0.6
	l-2.7-0.8l-1.8-1.5l-1.9-1l-2.7,0.8l0.3-1.7l0.3-1.7l0.7-1.3l-12.9-0.4l-4-0.8l-6.8-2.9l-3.4-0.4l-3.3,1.9l-2.7-6l-1.8-2.9l-3.6-2.4
	l0,0l0.2-2.4l0,0l-0.5-2.1l-3.5-0.4l0,0l0.1-0.3l1.4-1.7l0.5-0.5l-2.6-4.2l-3.9-2.8l-2.3-0.7l-2.3-0.7l-4.6,0.2l-5.3,0.9l-5.3,0.9
	l-1.4,0.8l-1.5,0.8l-8.1,7.6l-3.3,2.3l-1.5,1l-1.6,1l-2.4,2.2l-1.6,2.8l-0.9,6.5l-0.6,1.1l-0.9,0.4l-2.8,0.7l0,0l1,1.7l5,3.5l0,0
	l-3.9,3.6l-1.1,1.4h4.6l0,0l-0.2,0.4l-0.1,0.2l-1,2.4l-6.3,6.1l-3.7,1.7l-3-2.2l-2.8-3l-3.2-0.8l-1.4,2.5l-0.8,4.9l-0.4,8.9
	l-0.6,1.2l-4.1,4.2l-0.2,1.1l0.4,2.7l-0.2,1.1l-4.8,3.6l0,0l2.8,1.8l3.1,2.8l2.3,3.5l0.2,4l-2.1,2.9l-3.6,2.1l-4.4,1.4l-4.4,0.8H484
	l-1.8,0.4l-4.2,2l-1.7,0.4l-1,1l-0.7,1.2l-1.2,1.5l-0.5,1.3l-0.2,0.3l-0.2,0.3l-0.4,0.1l-0.4,0.1l-1.9-0.3l-0.4,0.1l-0.4,0.1
	l-0.8,0.8l-0.8,0.8l-1,1.3l-1,1.3l-1.7,2.8l-1.3,4.5l-1.5,3.4l-1.9,3.4l-2,2.5l-2.3,1.7l-2.3,1.7l-3,1.7l-6.3,1.7l-1,2.3l-0.4,2.8
	l-1.7,2.4l-3.3,1.1l-2.8,0.5l-0.6,0.1l-1,0.2l-3.9,1.2l-1.7,2.5l-1.7,1.7l-3.1,0.9l-3.1,0.9l0,0l0.6,1.9l-0.5,0.2h-0.5l-0.3,0.2l0,0
	l0.1,0.8h-1.1l-1.5-0.4l-3.6,3l-2.3,1l-3.1-0.2l-1.8-0.4l-0.9,1l-0.2,3.9l-1.8,5.3l-0.7,3.4l0.7,1.5l2.6,0.8l1,2l0,0l-0.4,2.7
	l-1.5,2.9l-1.6,1.4l-0.4-0.2l-2.4-2.6l-3.6-0.3l-4.1,0.1l-3.9-1.3l-2.8-3.3l-1.7-3.6l-2.1-3.1l-3.9-1.7l-2.4,0.1l-1.6,0.7l-1.6,0.3
	l-2.5-0.8l-1.2-1.1l-3.8-4.9l-12.5-8.8l-0.5-4.7l1.9-3.8v-2l0,0l-13.5,2l-2.4,1.2l-2,1.7l-0.9,1.5l-0.7,1.7l-1.3,2.3l-2.1,2.1
	l-2.1,1.1l-2.1,0.8l-1.9,1.2l-6.1,9.3l-5.8,6.1l-5.8,6.1l-2.8,4.3L302,322l-0.5,1.3l-0.5,1.3l-2.1,2.3l-2.6,1.3l-3.2,0.8l-9.1,0.6
	l-1.1-0.1l-1.7-0.5l-1-0.7l-2.8-2.8l-2.6,0.4l-2.4,1.2l-2.6,0.8l-3.1-0.9l-5.8-3.1l-7,0.4l-14.4,2.7l-7.7-0.9l-3.7,0.3l-4,2l-2,1.4
	l-0.8,0.7l-0.3,1.1l-0.4,2.5l-0.7,12.5l0.3,1.6l0.7,0.9l0.8,0.6l0.2,0.1l1.3,0.9l0.7,1.1l0.1,2.8l0,0l-0.6,2.8l-0.5,2.8l0,0l0.1,3
	l5.7,21.2l-0.3,2.8l-2.2,4.9l-0.3,2.5l0.7,1.8l1.1,0.5l1.2,0.3l1.1,1l0.6,1.1l0.6,1.1l0.2,0.5l0.2,0.5l1.1,5l0,0l-0.4,2.7l-1.4,2.3
	l-2.4,2.2l-1.2,0.8l-1.3,0.9l-1.7,0.4l-1.7-0.5l-10.2-4.9l-3-0.3l-2.8,0.8l-2.3,1.6l-8.5,7.1l-1.4,1.7l-1.3,2.4l-1.3,5l-0.3,0.5l0,0
	l0.3,1l1.3,2.8l0.3,0.4l-1.5,9.3l0.4,1.1l0.5,0.2l0.5,0.2l0.7,0.6l-0.5,1.7l-0.5,0.5l-0.4,0.5l-1.3,0.6l-1.3,0.6l-1,0.8l-4.1,6.3
	l-2,2.1l-4.5,2.8l-3.7,1.8l-1,2.9l-2.1-0.1l-4.1-2.4l-2.6-0.3l-40.3,2.5l-1.2,0.8l-8.5,4.2l-1.8,2.8l2,1.6l4.6,0.5l9.2-0.2v1.3
	l-18.2,1.1l-7.5-1.6l-5.8-5.6l-0.2-1.1l0.4-2.7l-0.2-1.1l-0.6-0.5l-2.3-1.3l-0.8-0.6l-3.2-4.2l-1.1-0.6l-4.5-3.8l-0.8-0.5l-0.8-0.8
	l-2-0.6l-2.4-0.3h-2l0.6-1L78,447h-1.1l-0.9,6.8l-3.7,3.9l-5.1,3.1l-5,4.3l-3.3,6.1v5.2l2.6,4.4l4.3,3.7l20.7,12.2l3.9,3.7l2.6,2
	l1.8,0.3l-0.1-2l-2.5-2.2l-4.7-3v-1.1l3.5,0.9l4,2.1l3,2.4l0.5,1.8v1.1l1.6,1l0.8,0.3v1.1l-2.1-1.1l-0.7-0.5l-0.8-0.8l2.3,4.6
	l19.4,22l0.5-0.9l1.4-1.7l0.5-1l1,3.1l0.8,1.8l1.5,1.5l11,8.4l2.2,0.9l3.4,3.2l4.6,5.7l2.9,2.5l-1.8-6.5h1.1l4,7.4l1.5,1.1l2.4,0.7
	l2.3,1.8l0.3,0.4l4.1,4.4l-3.8-0.7l-4-1.6l-3.5-2.3l-2-2.6l0.4,4.1l12.2,5.4l5.4,5.7l9.9,5.6l2.3,2.7l36.1,21.7l4.4,3.7l1.8,2.7
	l6.2,16.6l6.7,11.3l3.4,4.2l0.7,0.9l4.3,3.3l2,2.1l0.9,2.5l0.6,2.6l3,5.6l2.7,3.8l4.7,4.6l1.8,0.9l1.9,1.6l4.7,10.5l2.3,2.9l1.1,1.3
	l21.1,15.9l2,5.6l2.4,2.7l2.8,2l16.3,7l6.6,6.3l5.5,2.4l0.2,0.5l1.5,4.8l0.7,1.4l2.6,2.3l7.7,4.3l6,6.3l4.7,2.4l5.9,7.1l2.7,2.5
	l6.1,1.7l0.6,0.8l2.7,1.9l0.8,0.4l1.6,1.1l18.8,20.8l3.2,4.7l1.7,6.4l1.4,3.1l2.5,1.4l3.4,0.5l8.8,3.6l4.3-6.8l3.2-6.9l5-6.6
	l5.9-2.4l5.1,2.6l2.5,2.2l2.5,2.2l2.8,1.6l2.9,1.6l28.2,10.3l20,7.3l22.3,8.1l31.4,11.5l4.1,0.4l4.1-1.5l31.3-20.4l5.5-1.3l3.1,1.4
	l6.7,4.8l3.1,0.4l3.8-0.2l4.1,1.3l8.8,3.8l1,0.3l0.9,0.4l0.8,0.5l0.8,0.5l4,4.9l1.5,1.3l0.8,0.4l0.8,0.4l1.9,0.7l1.9,0.2l1.7-0.7
	l9.5-6.1l0.7-0.4l0.7-0.4l1.7,0.8l0.4,1.3v1.8l0.4,2.2l0.8,1.3l2.3,2.9l0.5,1.2l1.9,1.7l8.2,3.1l1.9,1.3l1.6,1.7l3.4,1.7l1.5,1.3
	l1.5,1.3l0.7,4.2l-2.5,1.3l-0.7,0.5l-0.8,1.4l0.3,1l0.7,0.7l0.4,0.6l3.9,3.1l0.9,1.2l2-1.4l2.7,0.1l2.8,0.4l2.1-0.4l3.3,3.2l2,0.8
	l2-1.5h1.2l2.1,2.1l4.4-2.8l3,0.7l1-1l1-1l2.4-0.4l2,1.3l0.8,3l10.6,8.3l1.2,0.5l1.6,0.3l0.9-0.2l0.9-0.2l2.5-1.7l1.2-0.4l4.8,0.9
	l0.7-0.4l3.6-4.2l11.7-4.4l12.5-3l6.2-3.1l0.5-4.8l0,0l-1.6-6.3l-0.2-7.6l0.1-0.9l-0.2-0.9l1.3-0.9l1,0.2h0.6h0.6l0.7,0.1l0.7,0.1
	l-2.9-1.5l-3.7-0.8l-2.6,0.4l0.7,1.9l-3.1,0.6l-1.4-3.7l-1.3-3.4l-3.2-2l-1.5-1.4l-4.2-6.6l-1.7-4.4l-5.3-8l-3.8-9.2l-5.4-23.2
	v-17.9l0.9-3l1.6-2.7l5.6-7h1.1l3.8,0.6l2.4-6.2l1.7-8.3l1.8-5.5l1.4-1.3l1.5-0.7l1.7-0.3h2.1l1.6-0.6l1.8-2.6l1.4-0.6l0.2-0.4
	l2.4-0.8l2.5-0.5l0.3,0.5l1.4-1.3l0.7-1.1l0.2-1.4l0.1-2.3l-0.4-6.2l-8.2-32.2l-1.7-1.4l-3,0.1l-1.6,0.7l-1,1.8l-1.2,3.4l0.2,1.4
	l0.7,1.1l-0.2,0.8l-2.6,0.3l-1.8-0.2l-1.7-0.6l-1.3-0.9l-1.5-3.4l-2.4-2.7l-2.8-2.5l-2.3-1.5l0.8-1.5l1.5-1.6l1.7-1.3l1.5-0.5l1-0.7
	l3.3-4.2l0.7-0.5l0.9-0.3l1-0.5l0.9-1.1l0.2-1.2l-0.4-1.1l-0.6-1l-0.3-1l0.4-1.3l1.6-3.3l0.4-1.6l-0.1-2.3l-0.4-2.2l-0.7-1.9l-1-1.4
	l-4.3-1.7l-2.2-1.3l1-0.6l7.3,2.2l3.2-0.1l1-3.4l0.3-2.8l2.7-3.8l0.7-3l-0.5-2.3l-1.2-1.9l-3-3h-1.3l-2.3,2.4l-2.8-1.6l-0.3-2.6
	l5.4-0.6l3.3,1.5l3.1,3l2.3,3.4l0.9,3l-1.4,4.1l-2.6,1.7l-1.5,1.9l1.9,4.5l4.4,5.4l1.3,3l-0.7,3.6l1.3-0.5l1.2-0.7l-1.3-3.8
	l-1.3-22.6l3.9-20.9l8.3-16.2l-0.7-1.3l-3.5-0.5l-1.6,0.9l-1.1,2.3l-2.8,9.1l-0.8,1.6l-0.4-1.1l0.2-2l0.9-3.5l0.2-1.8l-0.9-2.7
	l-5.5,1.2l-3.3-1.6l-1.3-3.2l0.6-3.4l1.3-3.6l0.7-3.8l-1.2-7.9l-1.4-1.7l-1.2-0.4h-1.4l-2.1-0.4l-1.5-0.1l-0.7,0.4l-0.2-0.2v-9.2
	l1.3-2.3l3.2-1l7.6-0.8l5.7-2.4l9.4-7.7l5.5-3.2l-1.8-2.8l-0.7-0.8l0.8-1.3l0.4-1.2l0.1-3l-0.3-1.8l-0.7-0.7l-0.8-0.5l-0.7-1.2
	l-0.3-1.2l-0.3-3v-0.6l-0.4-0.4l-3.9-2l-1.4-3.1l-0.1-3.6l1.6-3.3l3.6-2.1l4.5-0.3l4.7,1.1l3.4,2.8l0.6,4.7l-0.6,1.2l-0.8,0.9
	l-0.7,0.6l-0.3,0.4l-0.3,9.9l-0.6,2.4l-1.9,1v1.3l2.3,5.4l-1.5,8l-4.3,5.5l-6.3-2H775l-0.4,0.6l-0.1,0.1h-0.2l-0.6,0.4l0.8,4.4
	l-0.3,11.6l3.9,3.4l1.1,2.4l0.7,2.8l-0.1,2.1l-1.1,1.1l-3.6,2.5l-1.3,1.3l3.5,1.9l4.1-0.6l4.4-1.6l4.3-0.9l5.7-0.2l3.6-1.1l1.8-2.9
	l0.5-5.4l-1.2-4.4l-4.9-6.8l-1.7-5.6l-2.6-5.1l-0.6-1.7v-10.3l5.9-46.6l-3.9-22.9l-5.9-35l-1-2.2l1.3-1.1l-1.3-2.5l-0.3-4.2
	l1.9-22.7l3.1-11.7l3.7-8.8v-3.4l0.7-4.2l-0.3-8.7l4.2-20.1l6.8-22.3l4.2-16.4l2.4-5.6l3.5-4.9l8.4-5.7l1.2-2.2l0.9-2.9l6.3-7.5
	l14.7-23L852,230l0.9-6l-0.9-6.9l-8.5-24.2l-1.5-8.4l-1.7-3.3l-0.4-1l-6.9-30.9l-1.6-1.5l-1.3,1.3l0.1,4l-1.5-2.4l-1.9-1.7l-2-0.6
	l-2,1.1l1.5,0.6l3.3,1.9l1.3,1.1l-2.7,3.3l-2.7-0.8l-2.6-2.4l-2.3-1.4l-1.2-1.6l-1.9-7.3l-2.4-1.9l-0.6,0.8l-1.7,1.8l1.9-4.2
	l7.8-9.8l3.5-3.1l2.1-1.3l2.9-1l2.5,0.6l1.1,3.5l0.5,3.6l1.9,4.6l0.1,3.3l-1.4-1.7l-1.8-0.6l-2,0.3l-2.1,1v1.1l1.6,1l0.6-0.1
	l1.4-0.8v1.2l-0.2,0.9l-0.3,0.8l-0.6,1v-1.3l-1.5,1.7l-0.5,0.8l-0.4,1.1l6.1-2.4l2.1-1.6l1.4-2.2l0.4-1.7l0.3-3.8l0.5-1.7l0.9-1.3
	l2.3-2.1l0.5-0.8l0.6-2.4l1.6-3l2.2-2.5l2.3-1.1l1.3-2l1.7-3.7l2.1-2.1l2.6,3l1.6-1.7l3.2-1.5l1.3-1.8l-2.5,0.3L854.8,109.3z
	 M340.5,587.4l-1.9,13.2l-1.1,3.6l-1.6,2.4l-5.5,2l-26.8,0.7l-2.6-0.6l-0.5,0.1l-0.4-0.1l-0.6-0.7l-0.2-0.9l0.1-1.2l0.3-1.1l0.5-0.5
	l2.5-0.8l1.8-2.2l1-3.1l0.1-3.6l-2.6-5.9l-5-2l-5.8,1l-4.9,3.2l-2,2.4l-1.7,1.6h-2.1l-5.7-3.9l-15.7-6.4l-5.2-2.8l-3.2-4.3l-0.6-7.1
	l0.1-3.6l0.3-1.3l0.8-1.2l1.2-0.7l1.2,0.1l0.9,0.8l0.4,1.5l1.3,1.7l3.3,1.2l4,0.5l3.5-0.3l4.1-2.7l2.6-4l3.1-3.7l5.4-1.6l2.6-0.4
	l4-1.6l3-0.4l3.3-1.1l2.2-2.1l2-1.4l2.9,0.8l1.1-0.8l1.2-0.2l1.3,0.3l1.2,0.7l1.2,9.5l-0.6,1.5l0.6,1.1l5,5l1.6,1.1l1.9,2.7l3.2,13
	l0.3,4.8l3.9-3.6l4.6-5.2l4.9-3.2l4.7,2.4l1.2,3.4L340.5,587.4z M574.2,799l-1.5,1.7l-7.6,5.5l-5.6,0.2l-1,0.4l-0.9,0.7l-4.7,2
	l-1.7,0.4l-3.6-0.7l-2.8-3.3l-3.9-0.8l-2.9-0.2l-31.7-7.2l-2.8-0.1l-2.9,0.6l-2.9,0.2l-4.1-1.9l-2-0.1l-3.8,0.2l-1.5-0.8l-3.5-3.8
	l-1.8-1.5l-6.5-2.2l-6.1-1.4l-7.3-0.6l-15.6-5.5L443,779l-2.1-2.1l-2.1-1.6l-4.8-2.9l-2.7-1.2l-3-0.8l-5.8-0.6l-21.6-21.2l-3.2-5.4
	l-4.8-18.1l-1.2-2.9l-5.4-9.2l-2.9-2.5v2.5l-1.4-1.2l-0.9-1.4l-0.4-1.6l0.1-1.8l0.9,0.5l1.7,0.3l1,0.4l-2.3-10.4l-1.4-2.9l0.9-0.9
	l0.2-0.8l-0.4-0.9l-0.7-1.1h-1.2l-0.1,2.2l0.3,1.8l1.1,3.3l-2.5-1.8l-5.9-6.1l-1.2-2.3l0.5-1.6l1.2-1.8l1.4-1.4l2.8-1.5v-2l-1.2-3.2
	l0.1-8.2l-1.2-4.4l-3.2-1.9l-2-1.7l1.5-3.1l2.5-1.3l1,3.7h1.2l-1.8-5.2l-1.7-1.5l-3.2-0.6l-1.2-1.4l-0.2-3.3l0.3-3.6l0.5-2.4l2-5.5
	l5.6-11l3.3-4l4.8,1.4l4.7-1.1l3.9-2.5l3.5-1.7l0.1,0.3l2.7,2.1l11.7,6.3l4.1,1.5l1.4,1l0.6,1.9l0.8,1l1.8,0.3l2-0.2l1.4-0.6v1.2
	h1.1l4.1-2.8l5.6,4.2l7.9,9.4l1.3,1.1l3.4,5.2l2,4.7l8.5,8.4l3.9-3.8l7.5,1.5l7.8,3.8l4.8,3.2l1.5,2.2l1.2,2.8l1.6,2.5l2.6,1
	l2.1,0.3l1.4,0.9l2.5,2.9l1.4,0.8l3.8,0.7l1.4,0.4l6.9,10.4l6.5,7.7l0.4,0.7l0.4,1.3l0.4,0.6l0.6,0.4l1.4,0.4l0.5,0.3l3,2.8l1.3,1.7
	l1.4,4.6l2.1,2.1l4.4,3.3l7,8.5l4,2.5l5.8,8.3l1.5,0.8l1.1,0.2l1,0.3l1.2,1.2l0.6,1.4l0.4,1.8l0.2,3.4l0.9,3.6l2.1,2l2.4,1.8
	l1.8,2.8l-0.4,0.7l-1.1,0.6l-0.6,0.9l1,1.6l2.1-0.4h1.7l1.6,1.1l5,5l1.7,2.5l1.1,4.1v13.9l0.6,3.8l2.2,5.8L574.2,799z M827,221.9
	l4.3,1.4l1.8,1l1.1,1.3h1.3l-0.9-1.3l-2.4-2.2l-0.5-0.9l0.5-2.2l1.2-0.1l1.4,1.1l2.9,3.2l1.7,2.5l0.8,2.5l-1.1,2.2v1.1l2.1,2.4
	l1.3,3.3l0.2,3.5l-1.1,3l-2.6,2.1l-1.7-1.1l-1.7-2.5l-2.5-2.1l-0.8,0.9l-0.8,0.1l-2-1l-0.8-2.3l-0.2-1.1v-1.4l0.4-1.5l0.8-1l0.8-0.7
	l0.4-0.5l-0.1-3.1l-0.9-2.1l-2.8-3.2v-1.3H827z M393.4,680.5l-1.3-1.4l-4.1,1.2l-2.1,0.2l-1.7-1.4l-4.8,3.7l-0.4,1.7l0.2,1.3
	l0.9,1.3l1.7,1.8l-1.1,0.1l-2.5,1l17-0.6l-0.8-5.8L393.4,680.5z M934.1,212.3l-1.6-1.4h-2.3l-2.9,1.4L926,214l-0.6,2l-1.1,2
	l-2.8,1.5l0.1,0.7l-0.2,0.4l-0.4,0.2l9.4,0.8l3.2-1.4l1.2-4.9L934.1,212.3z M878.1,606l-1.7,3.1l0.3,3.9l5.1-5.5l0.7-1.2l-2-1.6
	L878.1,606z M920.9,220.8L920.9,220.8l-0.7-0.1L920.9,220.8z"/>
<g>
	<polygon class="st1" points="701,548 701,368 401,368 401,548 701,548 	"/>
	<polygon class="st2" points="701,488 401,488 401,428 701,428 701,488 	"/>
	<polygon class="st1" points="569.8,468.6 551,436.6 532.3,468.6 569.8,468.6 	"/>
	<polygon class="st3" points="532.9,468.2 551,437.4 569.2,468.2 532.9,468.2 	"/>
	<polygon class="st1" points="533.5,467.8 551,438.1 568.6,467.8 533.5,467.8 	"/>
	<polygon class="st2" points="568,467.5 551,438.9 534.1,467.5 568,467.5 	"/>
	<path class="st4" d="M550,454.6c-0.1,0-0.1,0-0.2,0s-0.1,0-0.1-0.2c0-0.7,0-1.3,0.3-1.5c0.2-0.2,0.5-0.3,0.7-0.3
		c0.2,0,0.3-0.2,0-0.3c-0.3-0.1-0.4-0.1-0.7-0.1c0-0.4,0.1-0.8,0.6-0.8c0.3,0,0.4,0,0.8,0c0.4,0,0.9,0.6,0.9,1.2c0,0.8,0,1.5,0,1.7
		c0,0.2-0.1,0.3-0.3,0.3c-0.2,0-0.4,0-0.5,0s-0.2,0-0.2,0.2c0,0.2,0,0.5,0,0.7c0,0.2-0.2,0.4-0.5,0.2
		C550.4,455.7,550.2,455.4,550,454.6L550,454.6z"/>
	<polygon class="st3" points="525.5,453.3 525.2,455 526,455.1 526.2,453.5 526.9,453.6 526.6,455.2 527.6,455.3 527.8,453.6 
		528.4,453.7 528,456.1 524.5,455.6 524.9,453.2 525.5,453.3 	"/>
	<path class="st3" d="M526.5,451.2c0.3,0.1,0.6,0.2,0.6,0.2s0.1-0.3,0.2-0.6c0.1-0.3-0.1-0.6-0.4-0.7c-0.3-0.1-0.6,0.1-0.6,0.4
		c-0.1,0.3-0.2,0.6-0.2,0.6C526,451.1,526.2,451.2,526.5,451.2l-0.2,0.6l-1.1-0.3c0,0,0.2-0.6,0.4-1.4c0.2-0.6,0.8-0.8,1.4-0.6
		c0.5,0.2,1,0.7,0.8,1.3c-0.1,0.4-0.2,0.8-0.2,0.8l1.2,0.4l-0.2,0.6l-2.3-0.7L526.5,451.2L526.5,451.2z"/>
	<path class="st3" d="M529.7,447.9c0.2-0.4,0-0.7-0.3-0.8c-0.3-0.1-2.1-1-2.1-1l0.3-0.6c0,0,1.7,0.8,2.1,1c0.5,0.3,1,0.8,0.5,1.7
		c-0.4,0.9-1.1,0.9-1.6,0.6c-0.4-0.2-2.1-1-2.1-1l0.3-0.6c0,0,1.8,0.9,2.1,1C529.2,448.3,529.5,448.3,529.7,447.9L529.7,447.9z"/>
	<path class="st3" d="M530.9,444.8c0.2,0.1,0.4,0.3,0.4,0.3s0.4-0.6,0.5-0.8c0.1-0.2,0.1-0.4-0.2-0.6c-0.2-0.2-0.5-0.1-0.6,0
		c-0.1,0.2-0.5,0.8-0.5,0.8C530.5,444.5,530.7,444.6,530.9,444.8l-0.4,0.6c-0.4-0.3-0.8-0.6-1.2-0.8l0.4-0.6
		c0.2,0.1,0.3,0.2,0.3,0.2s0.3-0.4,0.5-0.7c0.2-0.3,0-0.5-0.1-0.5c-0.1-0.1-0.4-0.1-0.6,0.1c-0.1,0.2-0.5,0.7-0.5,0.7
		c0,0,0.2,0.1,0.3,0.2l-0.4,0.6c-0.4-0.3-0.8-0.6-0.8-0.6s0.2-0.3,0.8-1.1c0.4-0.5,1-0.8,1.5-0.5c0.2,0.2,0.4,0.4,0.4,0.7
		c0.3-0.1,0.6-0.1,0.9,0.2c0.3,0.3,0.7,0.8,0.2,1.5c-0.3,0.5-0.9,1.3-0.9,1.3c0,0-0.4-0.3-0.9-0.7L530.9,444.8L530.9,444.8z"/>
	<polygon class="st3" points="531.6,439.9 533.7,441.9 534.8,440.8 535.3,441.2 533.7,442.9 531.2,440.4 531.6,439.9 	"/>
	<polygon class="st3" points="536,440.6 533.8,437.8 534.3,437.4 536.6,440.1 536,440.6 	"/>
	<path class="st3" d="M538.1,436.2c-0.1-0.2-0.5-0.4-0.9-0.1c-0.5,0.3-0.4,0.8-0.1,1.4c0.4,0.6,0.9,0.8,1.3,0.6
		c0.4-0.2,0.4-0.7,0.3-0.9l0.5-0.3c0.4,0.6,0.2,1.3-0.5,1.8c-0.7,0.4-1.5,0.1-2.1-0.8c-0.6-0.9-0.5-1.8,0.3-2.2
		c0.7-0.5,1.5-0.1,1.8,0.3L538.1,436.2L538.1,436.2z"/>
	<path class="st3" d="M547.2,433.4c0.1,0.6,0.1,1.2,0.1,1.2c0,0,0.3,0,0.6-0.1c0.2,0,0.8-0.2,0.7-1.3c-0.1-1-0.7-1-0.9-1
		c-0.1,0-0.6,0.1-0.6,0.1S547.1,432.9,547.2,433.4l-0.6,0.1c-0.1-0.9-0.2-1.7-0.2-1.7c0.3,0,0.9-0.1,1.3-0.1c0.4,0,1.4,0,1.6,1.5
		c0.1,0.9-0.2,1.9-1,2c-0.8,0.1-1.4,0.2-1.4,0.2s-0.1-0.9-0.2-1.8L547.2,433.4L547.2,433.4z"/>
	<polygon class="st3" points="553.4,432.1 551.6,432 551.6,432.8 553.1,432.9 553.1,433.5 551.6,433.5 551.5,434.4 553.2,434.5 
		553.2,435.1 550.8,434.9 550.9,431.4 553.4,431.5 553.4,432.1 	"/>
	<polygon class="st3" points="558.5,432.5 559,434.9 559.6,432.9 560.3,433.1 559.2,436.4 558.6,436.2 558,433.7 557.3,435.8 
		556.6,435.6 557.7,432.2 558.5,432.5 	"/>
	<polygon class="st3" points="560.3,436.9 561.8,433.7 562.5,434 561,437.2 560.3,436.9 	"/>
	<path class="st3" d="M565.2,436.9c0.1-0.2,0.2-0.6-0.3-0.9c-0.5-0.3-0.9,0-1.3,0.5c-0.4,0.6-0.3,1.2,0.1,1.4
		c0.4,0.3,0.8,0.1,0.9-0.2l0.5,0.3c-0.4,0.6-1.1,0.7-1.8,0.3c-0.7-0.4-0.8-1.3-0.2-2.2c0.6-0.9,1.4-1.2,2.1-0.7
		c0.7,0.5,0.8,1.3,0.5,1.7L565.2,436.9L565.2,436.9z"/>
	<path class="st3" d="M575.5,450.3c0.3-0.2,0.4-0.6,0.3-0.9c-0.2-0.5-0.7-0.7-1.4-0.4c-0.7,0.2-1,0.7-0.8,1.2c0.1,0.4,0.5,0.6,1,0.5
		l-0.2-0.7l0.5-0.2l0.4,1.2l-1.7,0.6l-0.1-0.4c0.1,0,0.3-0.1,0.4-0.2c-0.3-0.1-0.6-0.3-0.8-0.7c-0.3-0.8,0.2-1.7,1.2-2
		c1-0.3,1.8,0,2.1,0.9c0.2,0.7,0,1.4-0.6,1.6L575.5,450.3L575.5,450.3z"/>
	<path class="st3" d="M574.5,454c0.1,0.5,0.4,0.5,0.7,0.5c0.3,0,2.3-0.4,2.3-0.4l0.1,0.7c0,0-1.8,0.3-2.3,0.4
		c-0.6,0.1-1.2-0.1-1.4-1.1c-0.2-1,0.4-1.4,1-1.5c0.5-0.1,2.3-0.4,2.3-0.4l0.1,0.7c0,0-2,0.3-2.3,0.4
		C574.7,453.4,574.4,453.5,574.5,454L574.5,454z"/>
	<path class="st3" d="M529.3,471.2c0.1,0.2,0.2,0.4,0.2,0.4l1-1.1l-1.4,0.4C529.1,470.9,529.2,471.1,529.3,471.2l-0.5,0.3
		c-0.2-0.2-0.3-0.5-0.3-0.5l-0.7,0.2l-0.3-0.6l3.6-0.9l0.4,0.7l-2.4,2.8l-0.3-0.6l0.5-0.6c0,0-0.2-0.3-0.4-0.6L529.3,471.2
		L529.3,471.2z"/>
	<polygon class="st3" points="530.8,475.5 532.3,473.2 530.3,475 529.9,474.5 532.5,472.2 533.2,472.9 531.6,475.2 534,473.8 
		534.7,474.6 532.1,476.9 531.6,476.4 533.6,474.6 531.2,476 530.8,475.5 	"/>
	<polygon class="st3" points="537.2,477.5 535.8,476.4 535.4,477 536.6,478 536.2,478.5 535,477.5 534.4,478.2 535.8,479.3 
		535.4,479.8 533.5,478.3 535.6,475.5 537.6,477 537.2,477.5 	"/>
	<path class="st3" d="M538.5,479.4c0.2,0.1,0.5,0.3,0.6,0.3c0.2,0.1,0.4,0,0.6-0.2c0.1-0.3,0-0.5-0.2-0.6c-0.2-0.1-0.8-0.4-0.8-0.4
		l-0.5,0.8C538.3,479.3,538.4,479.3,538.5,479.4l-0.3,0.6c-0.2-0.1-0.3-0.2-0.3-0.2l-0.7,1.2l-0.6-0.3c0,0,1.7-3.1,1.7-3.1
		c0,0,1.2,0.7,1.7,0.9c0.4,0.2,0.4,0.8,0.2,1.3c-0.2,0.4-0.7,0.5-0.9,0.4c0.2,0.1,0.3,0.5,0.1,0.9c-0.1,0.2-0.5,0.9-0.5,0.9
		l-0.6-0.3c0,0,0.2-0.3,0.4-0.7c0.2-0.4,0.1-0.6-0.2-0.7c-0.1-0.1-0.2-0.1-0.3-0.2L538.5,479.4L538.5,479.4z"/>
	<polygon class="st3" points="540.3,482.6 541.7,479.3 542.3,479.6 541,482.8 540.3,482.6 	"/>
	<path class="st3" d="M545.2,481.8c0.1-0.2,0-0.6-0.5-0.8c-0.5-0.1-0.9,0.2-1.1,0.9c-0.2,0.7,0,1.2,0.5,1.3c0.5,0.1,0.8-0.2,0.9-0.4
		l0.6,0.2c-0.2,0.7-0.9,1-1.7,0.8c-0.8-0.2-1.1-1-0.9-2.1c0.3-1,1-1.5,1.8-1.3c0.8,0.2,1.1,1,1,1.5L545.2,481.8L545.2,481.8z"/>
	<path class="st3" d="M555.5,482.1c0-0.2-0.3-0.6-0.8-0.5c-0.5,0.1-0.7,0.6-0.6,1.3c0.1,0.7,0.5,1.1,1,1c0.5-0.1,0.7-0.5,0.6-0.7
		l0.6-0.1c0.1,0.7-0.4,1.3-1.2,1.4c-0.8,0.1-1.5-0.5-1.6-1.5c-0.2-1.1,0.3-1.8,1.1-2c0.9-0.1,1.4,0.4,1.5,1L555.5,482.1L555.5,482.1
		z"/>
	<polygon class="st3" points="559.3,480.5 557.6,481 557.9,481.7 559.4,481.3 559.6,481.9 558.1,482.3 558.4,483.2 560,482.7 
		560.2,483.2 557.8,484 556.8,480.6 559.1,479.9 559.3,480.5 	"/>
	<polygon class="st3" points="560.8,479.2 562.8,480.5 561.9,478.6 562.5,478.3 564.1,481.5 563.5,481.8 561.3,480.4 562.3,482.4 
		561.7,482.7 560.1,479.6 560.8,479.2 	"/>
	<polygon class="st3" points="566.3,480 564.6,477.7 563.8,478.3 563.5,477.8 565.6,476.2 566,476.7 565.1,477.3 566.9,479.7 
		566.3,480 	"/>
	<polygon class="st3" points="571.5,469.1 574.1,470.4 574.8,469 575.4,469.3 574.3,471.4 571.2,469.8 571.5,469.1 	"/>
	<path class="st3" d="M548.2,483.4c0.2,0,0.5,0,0.5,0l-0.3-1.5l-0.6,1.4C547.8,483.3,548,483.3,548.2,483.4l-0.1,0.6
		c-0.3,0-0.6-0.1-0.6-0.1l-0.3,0.7l-0.7-0.1l1.5-3.4l0.8,0.1l0.8,3.6l-0.7-0.1l-0.1-0.7c0,0-0.4,0-0.7-0.1L548.2,483.4L548.2,483.4z
		"/>
	<path class="st3" d="M571.6,473.1c0.1-0.2,0.3-0.4,0.3-0.4l-1.4-0.5l0.9,1.2C571.4,473.4,571.5,473.3,571.6,473.1l0.5,0.4
		c-0.2,0.2-0.3,0.5-0.3,0.5l0.5,0.6l-0.4,0.5l-2.2-3l0.5-0.6l3.5,1.1l-0.4,0.5l-0.7-0.2c0,0-0.2,0.3-0.4,0.6L571.6,473.1
		L571.6,473.1z"/>
	<path class="st3" d="M568.1,476c0.2-0.2,0.4-0.4,0.5-0.5c0.2-0.2,0.1-0.4-0.1-0.6c-0.2-0.2-0.5-0.2-0.6,0c-0.2,0.2-0.6,0.6-0.6,0.6
		l0.7,0.7C568,476.2,568,476.1,568.1,476l0.5,0.4c-0.1,0.1-0.2,0.2-0.2,0.2l1,1l-0.5,0.5c0,0-2.5-2.5-2.5-2.5c0,0,1-1,1.4-1.4
		c0.3-0.3,0.9-0.2,1.3,0.2c0.4,0.4,0.3,0.9,0.2,1c0.2-0.2,0.5-0.2,0.8,0.1c0.2,0.2,0.7,0.7,0.7,0.7l-0.5,0.5c0,0-0.3-0.3-0.6-0.6
		c-0.3-0.3-0.5-0.2-0.8,0c-0.1,0.1-0.2,0.2-0.3,0.3L568.1,476L568.1,476z"/>
	<path class="st3" d="M575.6,458c0,0.2,0,0.5,0,0.5l1.4-0.4l-1.4-0.5C575.6,457.6,575.6,457.8,575.6,458l-0.6,0c0-0.3,0-0.6,0-0.6
		l-0.7-0.2l0-0.7l3.5,1.1l0,0.8l-3.5,1.1l0-0.7l0.7-0.2c0,0,0-0.4,0-0.7L575.6,458L575.6,458z"/>
	<path class="st3" d="M572.4,446.1c0.1,0.2,0.2,0.4,0.2,0.4l1-1.1l-1.5,0.3C572.2,445.7,572.3,445.9,572.4,446.1l-0.5,0.3
		c-0.1-0.3-0.3-0.5-0.3-0.5l-0.7,0.2l-0.3-0.6l3.6-0.7l0.4,0.7L572,448l-0.3-0.6l0.5-0.5c0,0-0.2-0.3-0.3-0.6L572.4,446.1
		L572.4,446.1z"/>
	<path class="st3" d="M567.2,439.7c0.2,0.2,0.4,0.3,0.4,0.3l0.6-1.4l-1.3,0.8C566.9,439.5,567.1,439.6,567.2,439.7l-0.4,0.4
		c-0.2-0.2-0.4-0.4-0.4-0.4l-0.6,0.4l-0.5-0.4l3.2-1.9l0.6,0.5l-1.5,3.4l-0.5-0.4l0.3-0.7c0,0-0.3-0.2-0.5-0.5L567.2,439.7
		L567.2,439.7z"/>
	<path class="st3" d="M541.6,435.6c0.2-0.1,0.4-0.2,0.4-0.2l-1-1.2l0.1,1.5C541.2,435.8,541.4,435.7,541.6,435.6l0.2,0.6
		c-0.3,0.1-0.5,0.2-0.5,0.2l0.1,0.7l-0.6,0.3l-0.3-3.7l0.7-0.3l2.4,2.8l-0.6,0.3l-0.5-0.6c0,0-0.3,0.1-0.6,0.3L541.6,435.6
		L541.6,435.6z"/>
	<path class="st3" d="M526,458.9c0-0.2,0-0.6,0-0.7c0-0.2-0.2-0.4-0.5-0.4c-0.3,0-0.5,0.2-0.5,0.5c0,0.3,0,0.9,0,0.9l0.9,0
		C526,459.1,526,459,526,458.9l0.6-0.1c0,0.2,0,0.3,0,0.3l1.4,0l0,0.7c0,0-3.5,0-3.5,0c0,0,0-1.4,0-1.9c0-0.5,0.5-0.8,1-0.8
		c0.5,0,0.8,0.4,0.8,0.6c0-0.2,0.3-0.5,0.7-0.5c0.2,0,1,0,1,0l0,0.7c0,0-0.4,0-0.8,0c-0.4,0-0.5,0.2-0.5,0.5c0,0.1,0,0.3,0,0.4
		L526,458.9L526,458.9z"/>
	<path class="st3" d="M570.4,442c0.1,0.2,0.3,0.4,0.4,0.5c0.1,0.2,0.4,0.2,0.6,0c0.2-0.2,0.2-0.4,0.1-0.6c-0.2-0.2-0.6-0.7-0.6-0.7
		l-0.7,0.6C570.2,441.8,570.3,441.9,570.4,442l-0.5,0.4c-0.1-0.1-0.2-0.3-0.2-0.3l-1.1,0.9l-0.4-0.5c0,0,2.8-2.2,2.7-2.2
		c0,0,0.9,1.1,1.2,1.5c0.3,0.4,0.1,0.9-0.3,1.2c-0.4,0.3-0.9,0.2-1,0.1c0.2,0.2,0.1,0.6-0.2,0.8c-0.2,0.1-0.8,0.6-0.8,0.6l-0.4-0.5
		c0,0,0.3-0.2,0.6-0.5c0.3-0.3,0.3-0.5,0.1-0.8c-0.1-0.1-0.2-0.2-0.2-0.3L570.4,442L570.4,442z"/>
	<path class="st3" d="M527.1,465.3c0.3,0,0.6-0.3,0.6-0.6c0-0.3-0.3-0.6-0.6-0.6c-0.3,0-0.6,0.3-0.6,0.6
		C526.5,465,526.8,465.3,527.1,465.3L527.1,465.3z"/>
	<path class="st3" d="M574.9,465.3c-0.3,0-0.6-0.3-0.6-0.6c0-0.3,0.3-0.6,0.6-0.6s0.6,0.3,0.6,0.6
		C575.5,465,575.3,465.3,574.9,465.3L574.9,465.3z"/>
	<path class="st5" d="M543.4,451.7l-0.7,1.2l5.5,1.1c0-0.1,0-0.2,0-0.4L543.4,451.7L543.4,451.7z"/>
	<path class="st5" d="M545.2,448.7l-0.6,1l4,1.8c0-0.1,0.1-0.2,0.1-0.3L545.2,448.7L545.2,448.7z"/>
	<path class="st5" d="M544.4,450.1l-0.6,0.9l4.4,1.7c0-0.1,0-0.2,0.1-0.4L544.4,450.1L544.4,450.1z"/>
	<path class="st5" d="M553.3,455.7l6.2,4.4c0.6,0,2.2-0.1,2.5-0.1l-8.6-4.6C553.4,455.5,553.4,455.6,553.3,455.7L553.3,455.7z"/>
	<path class="st5" d="M550.8,457.1l-0.3,3c0.2,0,0.5,0,0.6,0v-3c0,0,0,0,0,0C550.9,457.2,550.9,457.1,550.8,457.1L550.8,457.1z"/>
	<path class="st5" d="M551.2,449.9l0.7-9.4l-0.9-1.5l-0.4,0.6l0.3,10.3c0,0,0,0,0.1,0C551.1,449.8,551.1,449.9,551.2,449.9
		L551.2,449.9z"/>
	<path class="st5" d="M562.8,458.7l-1.4-2.4l-7.6-1.6c0,0.2-0.1,0.3-0.1,0.5L562.8,458.7L562.8,458.7z"/>
	<path class="st5" d="M560.3,454.5l-0.8-1.4l-5.6,0.8c0,0.2,0,0.3-0.1,0.5L560.3,454.5L560.3,454.5z"/>
	<path class="st5" d="M559,452.4l-0.6-1l-4.5,1.7c0,0.1,0,0.3,0,0.4L559,452.4L559,452.4z"/>
	<path class="st5" d="M557.8,450.3l-0.4-0.7l-3.7,2.6c0,0.1,0.1,0.2,0.1,0.4L557.8,450.3L557.8,450.3z"/>
	<path class="st5" d="M557,449l-0.5-0.9l-3.1,3.4c0.1,0.1,0.1,0.2,0.2,0.3L557,449L557,449z"/>
	<path class="st5" d="M556.2,447.7l-0.4-0.6l-2.9,3.8c0.1,0.1,0.1,0.2,0.2,0.3L556.2,447.7L556.2,447.7z"/>
	<path class="st5" d="M555.6,446.5l-0.4-0.6l-2.7,4.4c0.1,0.1,0.2,0.1,0.2,0.2L555.6,446.5L555.6,446.5z"/>
	<path class="st5" d="M554.7,445.1l-0.5-0.9l-2.1,5.8c0.1,0,0.2,0.1,0.2,0.1L554.7,445.1L554.7,445.1z"/>
	<path class="st5" d="M553.6,443.2l-0.7-1.2l-1.4,7.9c0.1,0,0.1,0,0.2,0.1L553.6,443.2L553.6,443.2z"/>
	<path class="st5" d="M549.7,441.1l-0.7,1.3l1.5,7.5c0.1,0,0.1,0,0.2,0L549.7,441.1L549.7,441.1z"/>
	<path class="st5" d="M548.3,443.5l-0.5,0.9l2.2,5.7c0.1,0,0.1-0.1,0.2-0.1L548.3,443.5L548.3,443.5z"/>
	<path class="st5" d="M547.3,445.3l-0.4,0.7l2.8,4.3c0,0,0.1-0.1,0.1-0.1L547.3,445.3L547.3,445.3z"/>
	<path class="st5" d="M546.4,446.8l-0.7,1.2l3.5,2.8c0.1-0.1,0.1-0.1,0.2-0.2L546.4,446.8L546.4,446.8z"/>
	<path class="st5" d="M541.6,454.6l-0.9,1.7l7.6-1.5c0-0.1,0-0.2-0.1-0.3L541.6,454.6L541.6,454.6z"/>
	<path class="st5" d="M539.5,458.4l-1,1.8l10.1-4.8c0-0.1-0.1-0.2-0.1-0.2L539.5,458.4L539.5,458.4z"/>
	<path class="st5" d="M543.7,458.9l0.4,0.7l4.7-3.8c0-0.1-0.1-0.1-0.1-0.2L543.7,458.9L543.7,458.9z"/>
	<path class="st5" d="M544.5,460.2L544.5,460.2c0.4,0,1,0,1.1,0l3.6-4c0-0.1-0.1-0.1-0.1-0.2L544.5,460.2L544.5,460.2z"/>
	<path class="st5" d="M547.9,458.6c0.3,0,0.7-0.1,0.8-0.1l0.9-1.9c-0.1-0.1-0.2-0.1-0.2-0.2L547.9,458.6L547.9,458.6z"/>
	<path class="st5" d="M549.2,458.9c0.1,0.2,0.4,0.8,0.4,0.8l0.7-2.7c-0.1,0-0.2-0.1-0.3-0.1L549.2,458.9L549.2,458.9z"/>
	<path class="st5" d="M551.7,460.1c0.2,0,0.7,0,0.8,0l-0.9-3.1c-0.1,0-0.2,0-0.3,0.1L551.7,460.1L551.7,460.1z"/>
	<path class="st5" d="M553.3,460.1c0.2,0,0.7,0,1,0l-2.2-3.2c-0.1,0-0.2,0.1-0.3,0.1L553.3,460.1L553.3,460.1z"/>
	<path class="st5" d="M555,460.1c0.4,0,1.1,0,1.4,0l-3.7-3.6c0,0-0.1,0.1-0.1,0.1L555,460.1L555,460.1z"/>
	<path class="st5" d="M556.9,460.1c0.4,0,1.3,0,1.5,0l-5.3-4.1c-0.1,0.1-0.2,0.2-0.3,0.3L556.9,460.1L556.9,460.1z"/>
	<path class="st6" d="M561.5,456.5c0.2,0.7,0.2,1.5,0.2,2.2c0,0.5,0,0.9-0.1,1.4l0.2,0c0.1-0.4,0.1-0.9,0.1-1.3c0-0.6,0-1.1-0.1-1.7
		L561.5,456.5L561.5,456.5z"/>
	<path class="st6" d="M557.7,450.1c-1.8-1.4-4.1-2.3-6.6-2.3s-4.8,0.8-6.6,2.3l-0.3,0.5c1.9-1.6,4.3-2.6,7-2.6c2.7,0,5.1,1,7,2.6
		L557.7,450.1L557.7,450.1z"/>
	<path class="st6" d="M540.6,456.5l-0.3,0.5c-0.1,0.6-0.1,1.1-0.1,1.7c0,0.5,0,1,0.1,1.6l0.2,0c-0.1-0.5-0.1-1-0.1-1.6
		C540.4,458,540.4,457.2,540.6,456.5L540.6,456.5z"/>
	<path class="st1" d="M561.8,457c0.1,0.6,0.1,1.1,0.1,1.7c0,0.5,0,0.9-0.1,1.3h0.2c0.1-0.4,0.1-0.9,0.1-1.3c0-0.4,0-0.8-0.1-1.2
		L561.8,457L561.8,457z"/>
	<path class="st1" d="M557.4,449.6c-1.8-1.3-4-2-6.4-2s-4.6,0.7-6.4,2l-0.3,0.5c1.8-1.4,4.1-2.3,6.6-2.3s4.8,0.8,6.6,2.3
		L557.4,449.6L557.4,449.6z"/>
	<path class="st1" d="M540.3,457l-0.3,0.5c0,0.4-0.1,0.8-0.1,1.2c0,0.5,0,1,0.1,1.6l0.2,0c-0.1-0.5-0.1-1-0.1-1.6
		C540.1,458.2,540.2,457.6,540.3,457L540.3,457z"/>
	<path class="st7" d="M562.1,457.5c0,0.4,0.1,0.8,0.1,1.2c0,0.5,0,0.9-0.1,1.3l0.2,0c0.1-0.4,0.1-0.9,0.1-1.3c0-0.3,0-0.5,0-0.8
		L562.1,457.5L562.1,457.5z"/>
	<path class="st7" d="M557.1,449.2c-1.8-1.1-3.9-1.8-6.1-1.8c-2.3,0-4.3,0.7-6.1,1.8l-0.3,0.4c1.8-1.3,4-2,6.4-2s4.6,0.7,6.4,2
		L557.1,449.2L557.1,449.2z"/>
	<path class="st7" d="M540,457.5l-0.3,0.4c0,0.3,0,0.5,0,0.8c0,0.5,0,1,0.1,1.6l0.2,0c-0.1-0.5-0.1-1-0.1-1.6
		C539.9,458.3,540,457.9,540,457.5L540,457.5z"/>
	<path class="st8" d="M562.3,457.9c0,0.3,0,0.5,0,0.8c0,0.5,0,0.9-0.1,1.3l0.2,0c0.1-0.4,0.1-0.9,0.1-1.3c0-0.1,0-0.3,0-0.4
		L562.3,457.9L562.3,457.9z"/>
	<path class="st8" d="M556.9,448.8c-1.7-1-3.7-1.6-5.9-1.6c-2.1,0-4.2,0.6-5.9,1.6l-0.2,0.4c1.8-1.1,3.9-1.8,6.1-1.8
		c2.3,0,4.3,0.7,6.1,1.8L556.9,448.8L556.9,448.8z"/>
	<path class="st8" d="M539.7,457.9l-0.2,0.4c0,0.1,0,0.3,0,0.4c0,0.5,0,1.1,0.1,1.6l0.2,0c-0.1-0.5-0.1-1-0.1-1.6
		C539.7,458.5,539.7,458.2,539.7,457.9L539.7,457.9z"/>
	<path class="st9" d="M562.6,458.3c0,0.1,0,0.3,0,0.4c0,0.5,0,0.9-0.1,1.4l0.2,0c0.1-0.4,0.1-0.9,0.1-1.3c0,0,0,0,0,0L562.6,458.3
		L562.6,458.3z"/>
	<path class="st9" d="M556.7,448.4c-1.7-0.9-3.6-1.4-5.7-1.4s-4,0.5-5.7,1.4l-0.2,0.4c1.7-1,3.7-1.6,5.9-1.6c2.1,0,4.2,0.6,5.9,1.6
		L556.7,448.4L556.7,448.4z"/>
	<path class="st9" d="M539.5,458.3l-0.2,0.4c0,0,0,0,0,0c0,0.5,0,1,0.1,1.6l0.2,0c-0.1-0.5-0.1-1-0.1-1.6
		C539.5,458.6,539.5,458.5,539.5,458.3L539.5,458.3z"/>
	<path class="st10" d="M562.8,458.7C562.8,458.7,562.8,458.7,562.8,458.7c0,0.5,0,0.9-0.1,1.4l0.2,0c0-0.3,0.1-0.7,0.1-1
		L562.8,458.7L562.8,458.7z"/>
	<path class="st10" d="M556.5,448.1c-1.6-0.8-3.5-1.3-5.4-1.3c-2,0-3.8,0.5-5.4,1.3l-0.2,0.4c1.7-0.9,3.6-1.4,5.7-1.4s4,0.5,5.7,1.4
		L556.5,448.1L556.5,448.1z"/>
	<path class="st10" d="M539.3,458.7l-0.2,0.4c0,0.4,0,0.8,0.1,1.2l0.2,0C539.3,459.8,539.3,459.3,539.3,458.7
		C539.3,458.7,539.3,458.7,539.3,458.7L539.3,458.7z"/>
	<path class="st11" d="M563,459.1c0,0.3,0,0.7-0.1,1l0.2,0c0-0.2,0-0.5,0.1-0.7L563,459.1L563,459.1z"/>
	<path class="st11" d="M556.3,447.7c-1.6-0.8-3.4-1.2-5.2-1.2c-1.9,0-3.7,0.4-5.2,1.2l-0.2,0.3c1.6-0.8,3.5-1.3,5.4-1.3
		c2,0,3.8,0.5,5.4,1.3L556.3,447.7L556.3,447.7z"/>
	<path class="st11" d="M538.9,459.4c0,0.3,0,0.6,0.1,0.9l0.2,0c-0.1-0.4-0.1-0.8-0.1-1.2L538.9,459.4L538.9,459.4z"/>
	<path class="st1" d="M544.9,460.8c0.3,0,1,0,1.2,0c0.2,0,0.4,0.2,0,0.2c-0.4,0-1,0-1,0L544.9,460.8L544.9,460.8z"/>
	<path class="st1" d="M545.3,461.4c0.2,0,0.5,0,0.6,0s0.2,0.1,0,0.1s-0.4,0.1-0.5,0.1L545.3,461.4L545.3,461.4z"/>
	<path class="st1" d="M550.1,460.8c0.2,0,1.1,0,1.3,0v0.2c-0.4,0-1,0.1-1.2,0.1L550.1,460.8L550.1,460.8z"/>
	<path class="st1" d="M554.9,460.6c0.3,0,0.8,0,0.9,0l0,0.1c-0.3,0-0.7,0-0.8,0L554.9,460.6L554.9,460.6z"/>
	<path class="st1" d="M558.1,460.6c0.3,0,0.9,0,1.1,0l0,0.2c-0.3,0-0.8,0-0.9,0L558.1,460.6L558.1,460.6z"/>
	<path class="st1" d="M564.6,461.8c-0.4,0-1,0.1-1.1,0.1c-0.2,0-0.2,0.2,0.1,0.2c0.2,0,0.8-0.1,1.2-0.1L564.6,461.8L564.6,461.8z"/>
	<path class="st1" d="M537.4,461.9c0.4,0,1.2,0.1,1.7,0.2l0.4-0.2c-0.3,0-1.4-0.1-2-0.1L537.4,461.9L537.4,461.9z"/>
	<path class="st1" d="M537.7,461.3l-0.1,0.2c0.6-0.1,1.7-0.1,2.3,0.1l0.2-0.2C539.7,461.1,538.3,461.2,537.7,461.3L537.7,461.3z"/>
	<path class="st1" d="M538.1,460.7l-0.2,0.4c0.7-0.2,2.1-0.3,2.7-0.1l0.2-0.2C540.1,460.5,538.7,460.7,538.1,460.7L538.1,460.7z"/>
	<path class="st1" d="M541.5,466.8c-0.1,0,0-0.1,0.2-0.2c0.8-0.4,1.8-0.2,2.3-0.1c0.5,0.1,0.4,0.2,0.3,0.3c0.5,0,1.1,0,1.6,0
		c-0.4,0-0.8-0.1-1.6-0.3c-1.1-0.4-2.5-0.2-3,0c-0.4,0.1-0.9,0.2-1.4,0.1C540.5,466.6,541,466.7,541.5,466.8L541.5,466.8z"/>
	<path class="st1" d="M563.5,459.9c-0.8,0-3,0.1-3.8,0.1c-0.9,0-4.7,0.1-5.6,0c-0.9,0-5.5,0.1-6.9,0.1c-1.3,0-7.5-0.1-8.8-0.1
		l-0.2,0.3c0.7,0,4.2,0,5.4,0c1.3,0,4.5,0,5.6,0c1.1,0,3.8-0.1,4.3-0.1c0.5,0,4.3,0,5,0c0.7,0,3.2-0.1,5.1-0.1L563.5,459.9
		L563.5,459.9z"/>
	<path class="st1" d="M563.8,460.4c-0.7,0-1.7,0.1-1.8,0.1c-0.2,0-0.4,0.2,0.1,0.2c0.3,0,1.4,0,1.9,0L563.8,460.4L563.8,460.4z"/>
	<path class="st1" d="M564.1,460.9c-0.5,0-1.5,0-1.7,0.1c-0.2,0-0.3,0.3,0,0.2c0.3-0.1,1.3-0.1,1.8-0.1L564.1,460.9L564.1,460.9z"/>
	<path class="st1" d="M564.4,461.4c-0.5,0-1.3,0.1-1.4,0.1c-0.2,0-0.3,0.2,0,0.2c0.3,0,1.1-0.1,1.5-0.1L564.4,461.4L564.4,461.4z"/>
	<path class="st1" d="M566.6,465.1c-0.4,0-1.1-0.1-1.3-0.2c-0.3-0.1-0.5-0.2-0.2,0.1c0.3,0.2,1.2,0.4,1.6,0.3L566.6,465.1
		L566.6,465.1z"/>
	<path class="st1" d="M566.9,465.6c-0.5,0-1.5-0.1-2.3-0.5c-0.8-0.4-1.9-0.2-2.8-0.1c-1.7,0.2-2.6,0.1-4-0.2c-1.4-0.3-3.3-0.3-4,0
		c-0.6,0.3-0.5,0.4,0.2,0.2c0.7-0.1,2.3-0.3,3.7,0c1.4,0.4,2.7,0.4,3.6,0.4c0.9-0.1,1.5-0.2,1.9-0.1c0.4,0,0.3,0.1,0,0.2
		c-2.6,0.3-3.7,0.4-5.1,0c-1.5-0.4-2.8-0.3-3.8-0.1c-1,0.1-2,0.1-2.9-0.3c-0.9-0.4-1.6-0.5-2.2-0.3c-0.2,0.1-0.3,0.2,0.1,0.1
		c0.3,0,1.3,0,2.1,0.3c0.8,0.4,2,0.5,3.1,0.3c1.1-0.2,2.4-0.3,3.6,0.2c1.2,0.5,2.5,0.4,3.7,0.2c1.2-0.2,2-0.4,2.9-0.2
		c0.8,0.2,2,0.3,2.4,0.2L566.9,465.6L566.9,465.6z"/>
	<path class="st1" d="M567.2,466.2c-0.5,0.1-1.9,0-2.5-0.1c-0.7-0.2-1.7,0-3.2,0.3c-1.5,0.3-3.1-0.2-4-0.4s-1.9-0.2-2.7-0.1
		c-0.8,0.1-2,0.2-3.7-0.3c-2.1-0.6-3.3-0.4-3.8-0.2c-0.5,0.2-1.7,0.2-2.9-0.2c-1.2-0.3-2.3-0.2-3,0c-0.7,0.2-1.9,0.4-2.9,0
		c-1-0.3-2.2-0.3-2.9-0.2l-0.1,0.3c0.6-0.1,2.1-0.1,3,0.2c1.1,0.4,2.5,0.2,3,0.1c1.1-0.4,1.8-0.3,2.9,0c0.8,0.2,2.2,0.3,3.1,0
		c1.5-0.4,2.4-0.2,3.6,0.2s2.9,0.4,3.9,0.4c0.9-0.1,1.7-0.3,2.8,0.1c1.1,0.4,2.6,0.6,3.9,0.3c1.3-0.3,2.5-0.4,3.1-0.2
		c0.6,0.1,1.6,0.2,2.5,0.1L567.2,466.2L567.2,466.2z"/>
	<path class="st1" d="M567.5,466.6c-0.4,0.1-1.3,0.1-2.2,0c-1.4-0.2-2.4-0.1-3.3,0.1c-1.4,0.3-2.2,0.2-3.3,0
		c-1.1-0.3-2.2-0.3-3.4-0.2c-1.3,0.1-3.1-0.1-4.5-0.5c-1.4-0.4-2.6-0.2-3.7,0c-1.1,0.3-2.7,0-3.2-0.3c-0.5-0.2-1.3-0.3-2.3,0
		c-1,0.2-1.9,0.2-3-0.1c-1-0.3-2.3-0.4-3.2-0.2l-0.1,0.2c0.7-0.1,2.4-0.1,3.3,0.2c1.1,0.4,2.4,0.3,3,0.2c0.6-0.1,1.8-0.2,2.3,0.1
		c1.1,0.5,2.7,0.4,3.3,0.2c1.4-0.4,2.4-0.4,3.5,0c1.2,0.4,3.3,0.6,4.6,0.4c0.9-0.1,2.2-0.1,3.3,0.2c1.1,0.3,2.2,0.4,3.4,0
		c1.2-0.3,2.6-0.2,3.3-0.1c0.7,0.1,1.3,0.2,2.2,0.1L567.5,466.6L567.5,466.6z"/>
	<path class="st1" d="M567.8,467.1c-0.4,0-1.8,0.1-2.4,0c-0.7-0.1-1.7-0.2-2.9,0.1c-1.2,0.3-2.8,0.3-3.7,0c-0.9-0.3-2.1-0.4-3.2-0.3
		c-1.1,0.2-2.5,0.3-4.1-0.2c-1.7-0.5-2.3-0.6-4.1-0.1c-0.7,0.2-4.3,0.2-5.3,0.2c-1,0-2.3-0.3-3-0.6c-0.7-0.3-2.6-0.4-4-0.3l-0.2,0.3
		c1.3-0.3,2.9,0,3.6,0.3c-0.8-0.2-2.8-0.1-3.8,0.1l-0.2,0.4c1.7-0.4,4.1-0.3,5-0.1c1,0.2,2.7,0.4,3.7,0.1c1-0.3,2.7,0.1,3.7,0.5h4.7
		c-0.7-0.4-1.6-0.2-2.2-0.1c-0.7,0.1-1.3-0.1-1.6-0.3c-0.3-0.2,0-0.2,0.5-0.3c1.6-0.4,2.8,0.1,3.7,0.7h3.7c1-0.7,1.9-0.3,2.4-0.2
		c0.1,0,0.4,0.1,0.8,0.2h3.9c0.9-0.4,2.2-0.2,2.8-0.2c0.6,0.1,1.4,0.2,2.5,0L567.8,467.1L567.8,467.1z"/>
	<path class="st8" d="M565.1,462.6c-2.4,0-3.4-1.4-4.3-2.9c-0.4,0-1.1,0.1-1.5,0.1c-0.1,0.2-0.4,1-0.5,1.5c-0.5-0.3-1.1-1.4-1.4-2
		c-0.2,0-0.8,0-1.2,0c-0.2,0.3-0.6,1.4-0.8,1.8c-0.4-0.4-1.3-1.7-1.6-2.3c-0.4,0-1.1,0.1-1.5,0.1c-0.3,0.8-0.8,2-1.5,2.6
		c-0.5-0.5-1.4-2.2-1.7-3c-0.3,0-0.9,0.1-1.3,0.1c-0.3,0.6-1.2,2.5-1.7,3.4c-0.9-0.9-2-2.8-2.8-4.1l-1.1,0.1
		c-1.4,3.8-3.7,4.3-5.1,4.4l-1.1,1.8c0.5,0,1.5,0.1,2.1,0.3c0.8,0.2,2.2,0.4,3.3,0c1.1-0.4,2.3-0.3,3.4-0.1c1.1,0.2,3.1,0.4,4.7-0.5
		c2.2,1.1,3.5,0.5,4.6,0.3c1.1-0.2,2.5-0.4,3.6,0c1.5,0.5,3.4,0.5,4.8,0.1c1.7-0.5,2.7,0.4,4,0.5L565.1,462.6L565.1,462.6z"/>
	<path class="st12" d="M542.1,458.1c0.1,2,1.2,4.1,4.1,6.6c0.2,0,0.5,0,0.6,0c-0.8-0.7-2.5-2.6-3.1-3.5c0-0.2,0-0.3,0-0.4
		c1.6,1.8,2.7,3.2,4.2,3.8c0.3,0,0.6-0.1,0.9-0.2c-2.5-1.3-3.9-3.2-5.7-6.3C542.8,458,542.4,458.1,542.1,458.1L542.1,458.1z"/>
	<path class="st12" d="M552.7,458.9c-0.4,1.3-0.9,2.5-1.7,3.2c0.1,0.1,0.3,0.3,0.4,0.4c0.3-0.2,0.7-0.7,0.8-0.8
		c0.2,0.1,0.3,0.5-0.2,1.3c0.6,0.4,1.7,1,2.5,1.3c-0.7,0.1-1.4,0.3-1.8,0.4c-1.4-1-2.6-1.7-3.7-3.6c-0.2,0.7,0,1,0.4,1.6
		c0.4,0.5,1.2,1.3,2.5,2.1c-0.8,0-1.6-0.1-2.6-0.6c-0.5-0.9-1.6-2.9-1.8-5.4c0.4,0,0.9-0.1,1.3-0.1c0.4,0.9,1.2,2.4,1.7,3
		c0.5-0.5,1.1-1.5,1.5-2.6C552.4,458.9,552.7,458.9,552.7,458.9L552.7,458.9z"/>
	<path class="st12" d="M556.6,459.3c-0.1,0.6-0.6,1.6-0.9,2.2c-0.1-0.1-0.2-0.3-0.3-0.4l0.8-1.8
		C556.3,459.2,556.6,459.3,556.6,459.3L556.6,459.3z"/>
	<path class="st12" d="M555.8,461.9c0.1,0.1,0.3,0.2,0.4,0.3c0.3-0.4,0.3-0.7,0.2-1.3C556.2,461.1,556.2,461.7,555.8,461.9
		L555.8,461.9z"/>
	<path class="st12" d="M558.8,461.3c0.1,0.1,0.3,0.2,0.4,0.3c0.2-0.6,0.5-1.4,0.5-1.8c-0.1,0-0.3,0-0.4,0
		C559.1,460.4,558.8,461.1,558.8,461.3L558.8,461.3z"/>
</g>
</svg>
